<svg width="56" height="64" viewBox="0 0 56 64" fill="none" xmlns="http://www.w3.org/2000/svg">
<path d="M7 27.4286C6.38116 27.4286 5.78767 27.6694 5.35009 28.098C4.9125 28.5267 4.66667 29.1081 4.66667 29.7143V57.1429C4.66667 57.7491 4.9125 58.3304 5.35009 58.7591C5.78767 59.1878 6.38116 59.4286 7 59.4286H49C49.6188 59.4286 50.2123 59.1878 50.6499 58.7591C51.0875 58.3304 51.3333 57.7491 51.3333 57.1429V29.7143C51.3333 29.1081 51.0875 28.5267 50.6499 28.098C50.2123 27.6694 49.6188 27.4286 49 27.4286H7ZM7 22.8571H49C50.8565 22.8571 52.637 23.5796 53.9498 24.8656C55.2625 26.1515 56 27.8957 56 29.7143V57.1429C56 58.9615 55.2625 60.7056 53.9498 61.9916C52.637 63.2776 50.8565 64 49 64H7C5.14348 64 3.36301 63.2776 2.05025 61.9916C0.737498 60.7056 0 58.9615 0 57.1429V29.7143C0 27.8957 0.737498 26.1515 2.05025 24.8656C3.36301 23.5796 5.14348 22.8571 7 22.8571Z" fill="url(#paint0_linear_68_2036)"/>
<path d="M28 34.2857C28.6188 34.2857 29.2123 34.5265 29.6499 34.9552C30.0875 35.3838 30.3333 35.9652 30.3333 36.5714V50.2857C30.3333 50.8919 30.0875 51.4733 29.6499 51.902C29.2123 52.3306 28.6188 52.5714 28 52.5714C27.3812 52.5714 26.7877 52.3306 26.3501 51.902C25.9125 51.4733 25.6667 50.8919 25.6667 50.2857V36.5714C25.6667 35.9652 25.9125 35.3838 26.3501 34.9552C26.7877 34.5265 27.3812 34.2857 28 34.2857ZM42 22.8571V18.2857C42 14.6485 40.525 11.1602 37.8995 8.58825C35.274 6.01632 31.713 4.57143 28 4.57143C24.287 4.57143 20.726 6.01632 18.1005 8.58825C15.475 11.1602 14 14.6485 14 18.2857V22.8571H42ZM28 0C32.9507 0 37.6987 1.92653 41.1993 5.35576C44.7 8.785 46.6667 13.436 46.6667 18.2857V27.4286H9.33333V18.2857C9.33333 13.436 11.3 8.785 14.8007 5.35576C18.3014 1.92653 23.0493 0 28 0Z" fill="url(#paint1_linear_68_2036)"/>
<defs>
<linearGradient id="paint0_linear_68_2036" x1="3.75476" y1="48.0001" x2="33.1766" y2="3.4161" gradientUnits="userSpaceOnUse">
<stop stop-color="#75030B"/>
<stop offset="0.333333" stop-color="#930210"/>
<stop offset="0.666667" stop-color="#B4001E"/>
<stop offset="1" stop-color="#DA291C"/>
</linearGradient>
<linearGradient id="paint1_linear_68_2036" x1="3.75476" y1="48.0001" x2="33.1766" y2="3.4161" gradientUnits="userSpaceOnUse">
<stop stop-color="#75030B"/>
<stop offset="0.333333" stop-color="#930210"/>
<stop offset="0.666667" stop-color="#B4001E"/>
<stop offset="1" stop-color="#DA291C"/>
</linearGradient>
</defs>
</svg>
