<svg width="183" height="35" viewBox="0 0 183 35" fill="none" xmlns="http://www.w3.org/2000/svg">
<path d="M38.6418 2.93112C35.6971 1.56175 32.5486 0.566553 29.2568 -0.00012207C28.8526 0.726336 28.3803 1.70344 28.0546 2.48072C24.5554 1.95768 21.0884 1.95768 17.6535 2.48072C17.328 1.70344 16.8449 0.726336 16.4371 -0.00012207C13.1418 0.566553 9.98958 1.56541 7.04492 2.93837C1.10551 11.8591 -0.504564 20.5582 0.300475 29.1339C4.2398 32.0578 8.05748 33.834 11.8107 34.9963C12.7374 33.7286 13.5639 32.3811 14.2759 30.9609C12.9199 30.4487 11.6211 29.8167 10.3939 29.083C10.7195 28.8433 11.0379 28.5927 11.3456 28.3348C18.8307 31.8145 26.9634 31.8145 34.359 28.3348C34.6703 28.5927 34.9887 28.8433 35.3107 29.083C34.0799 29.8203 32.7775 30.4523 31.4215 30.9645C32.1335 32.3811 32.9565 33.7323 33.8867 34.9999C37.6436 33.8376 41.4648 32.0614 45.4041 29.1339C46.3487 19.1925 43.7905 10.5733 38.6418 2.93112ZM15.2957 23.8599C13.0487 23.8599 11.2061 21.775 11.2061 19.2361C11.2061 16.6972 13.0094 14.6087 15.2957 14.6087C17.582 14.6087 19.4246 16.6935 19.3853 19.2361C19.3888 21.775 17.582 23.8599 15.2957 23.8599ZM30.409 23.8599C28.162 23.8599 26.3193 21.775 26.3193 19.2361C26.3193 16.6972 28.1226 14.6087 30.409 14.6087C32.6952 14.6087 34.5379 16.6935 34.4986 19.2361C34.4986 21.775 32.6952 23.8599 30.409 23.8599Z" fill="#949494"/>
<path d="M61.2362 8.92866H71.0038C73.3584 8.92866 75.3476 9.30276 76.9795 10.0474C78.6071 10.7919 79.8274 11.8308 80.6362 13.1602C81.4443 14.4896 81.8522 16.0114 81.8522 17.7259C81.8522 19.4039 81.43 20.9258 80.5857 22.2879C79.7414 23.6536 78.4568 24.7324 76.7288 25.5279C75.0009 26.3233 72.8608 26.7228 70.3029 26.7228H61.2362V8.92866ZM70.2025 22.2007C71.7876 22.2007 73.008 21.7976 73.8591 20.9948C74.7109 20.1885 75.1368 19.0916 75.1368 17.7004C75.1368 16.411 74.7571 15.383 73.9988 14.613C73.2406 13.843 72.0919 13.4544 70.5567 13.4544H67.5011V22.2007H70.2025Z" fill="#949494"/>
<path d="M96.4757 26.7011C95.1232 26.3452 93.9028 25.8294 92.819 25.1502V20.9296C93.6384 21.5724 94.7365 22.1028 96.114 22.5204C97.4915 22.9345 98.8228 23.1415 100.111 23.1415C100.712 23.1415 101.166 23.0616 101.474 22.9018C101.782 22.742 101.936 22.5495 101.936 22.3279C101.936 22.0737 101.853 21.863 101.685 21.6923C101.517 21.5216 101.191 21.3799 100.709 21.26L97.7029 20.5735C95.9818 20.1668 94.7615 19.6038 94.0356 18.881C93.3092 18.1618 92.9475 17.2174 92.9475 16.0478C92.9475 15.0635 93.2624 14.21 93.8997 13.4798C94.5326 12.7498 95.4343 12.1868 96.6042 11.7909C97.7746 11.3913 99.1409 11.1916 100.712 11.1916C102.114 11.1916 103.399 11.3441 104.569 11.6492C105.739 11.9544 106.705 12.343 107.474 12.8188V16.8106C106.687 16.3348 105.785 15.9607 104.755 15.6773C103.728 15.3977 102.673 15.2596 101.585 15.2596C100.014 15.2596 99.2307 15.532 99.2307 16.0732C99.2307 16.3275 99.3523 16.5164 99.5955 16.6435C99.8387 16.7706 100.286 16.9014 100.934 17.0394L103.438 17.4971C105.074 17.7841 106.293 18.2889 107.095 19.0081C107.897 19.7273 108.297 20.7915 108.297 22.2008C108.297 23.7445 107.635 24.9686 106.308 25.8766C104.98 26.7847 103.098 27.2387 100.658 27.2387C99.2232 27.2351 97.8282 27.0571 96.4757 26.7011Z" fill="#949494"/>
<path d="M114.208 26.167C112.774 25.4551 111.69 24.489 110.967 23.2685C110.244 22.0481 109.88 20.6751 109.88 19.1496C109.88 17.6241 110.255 16.2584 111.006 15.0561C111.758 13.8538 112.86 12.9095 114.313 12.223C115.765 11.5365 117.5 11.1951 119.522 11.1951C122.026 11.1951 124.105 11.729 125.758 12.7968V17.4497C125.175 17.0429 124.495 16.7124 123.719 16.4581C122.942 16.2039 122.112 16.0767 121.225 16.0767C119.672 16.0767 118.459 16.3637 117.583 16.9412C116.706 17.5187 116.266 18.2706 116.266 19.2041C116.266 20.1194 116.691 20.8676 117.543 21.4561C118.395 22.0408 119.629 22.3351 121.25 22.3351C122.084 22.3351 122.907 22.2115 123.719 21.9682C124.527 21.7212 125.225 21.4198 125.808 21.0637V25.5641C123.973 26.6828 121.844 27.2421 119.422 27.2421C117.382 27.2349 115.643 26.8789 114.208 26.167Z" fill="#949494"/>
<path d="M132.005 26.1672C130.56 25.4553 129.458 24.4818 128.699 23.2432C127.941 22.0046 127.558 20.6244 127.558 19.0989C127.558 17.5734 127.937 16.2113 128.699 15.0163C129.461 13.8213 130.556 12.8842 131.995 12.2049C133.429 11.5257 135.143 11.1879 137.129 11.1879C139.115 11.1879 140.828 11.5257 142.263 12.2049C143.698 12.8842 144.793 13.814 145.544 15.0017C146.296 16.1895 146.671 17.5516 146.671 19.0953C146.671 20.6208 146.296 22.0011 145.544 23.2396C144.793 24.4782 143.694 25.4516 142.249 26.1635C140.803 26.8755 139.097 27.2314 137.126 27.2314C135.154 27.2314 133.447 26.8791 132.005 26.1672ZM139.615 21.656C140.224 21.0385 140.531 20.2213 140.531 19.2042C140.531 18.1872 140.227 17.3772 139.615 16.7779C139.007 16.1749 138.177 15.8735 137.126 15.8735C136.055 15.8735 135.218 16.1749 134.606 16.7779C133.998 17.3809 133.694 18.1872 133.694 19.2042C133.694 20.2213 133.998 21.0385 134.606 21.656C135.215 22.2735 136.055 22.5858 137.126 22.5858C138.177 22.5822 139.007 22.2735 139.615 21.656Z" fill="#949494"/>
<path d="M161.72 12.1322V17.6241C161.083 17.1992 160.26 16.9885 159.241 16.9885C157.906 16.9885 156.875 17.399 156.16 18.2198C155.441 19.0407 155.083 20.3192 155.083 22.0482V26.7265H148.947V11.8526H154.958V16.5817C155.29 14.8527 155.831 13.5779 156.575 12.7533C157.316 11.9325 158.274 11.522 159.441 11.522C160.324 11.522 161.083 11.7255 161.72 12.1322Z" fill="#949494"/>
<path d="M182.107 8.42018V26.7265H175.971V23.3958C175.452 24.6489 174.665 25.6042 173.606 26.258C172.547 26.9082 171.237 27.2351 169.684 27.2351C168.296 27.2351 167.087 26.8936 166.053 26.2071C165.019 25.5207 164.221 24.5799 163.659 23.3849C163.101 22.1899 162.818 20.8388 162.818 19.3278C162.801 17.7696 163.098 16.3711 163.709 15.1325C164.318 13.8939 165.18 12.9278 166.289 12.234C167.398 11.5403 168.665 11.1916 170.085 11.1916C173.009 11.1916 174.969 12.481 175.971 15.0562V8.42018H182.107ZM175.055 21.5543C175.681 20.9368 175.993 20.1341 175.993 19.1534C175.993 18.2054 175.688 17.4317 175.08 16.8397C174.472 16.2477 173.638 15.9498 172.59 15.9498C171.556 15.9498 170.73 16.2512 170.11 16.8542C169.491 17.4572 169.184 18.2381 169.184 19.2042C169.184 20.1704 169.491 20.9586 170.11 21.5688C170.73 22.179 171.545 22.4841 172.565 22.4841C173.599 22.4805 174.429 22.1717 175.055 21.5543Z" fill="#949494"/>
<path d="M87.0229 13.4361C88.7122 13.4361 90.0821 12.1871 90.0821 10.6465C90.0821 9.10592 88.7122 7.85704 87.0229 7.85704C85.333 7.85704 83.9636 9.10592 83.9636 10.6465C83.9636 12.1871 85.333 13.4361 87.0229 13.4361Z" fill="#949494"/>
<path d="M83.9611 15.3576C85.8356 16.1785 88.1615 16.2148 90.079 15.3576V26.8064H83.9611V15.3576Z" fill="#949494"/>
</svg>
