<svg width="172" height="33" viewBox="0 0 172 33" fill="none" xmlns="http://www.w3.org/2000/svg">
<path d="M13.4866 5.50815C11.4734 5.50815 10.8913 6.37152 10.8913 8.27577V11.4347H16.2614L15.7231 16.5383H10.8934V32.0264H4.44889V16.5383H0.107361V11.4347H4.44889V8.3625C4.44889 3.21458 6.59567 0.49538 12.5854 0.49538C13.8405 0.492556 15.0947 0.564569 16.3406 0.71122V5.5142L13.4866 5.50815Z" fill="#949494"/>
<path d="M16.7078 21.081C16.7078 15.3279 19.5264 10.995 25.4326 10.995C28.6538 10.995 30.6212 12.5966 31.5621 14.5856V11.4347H37.7354V32.0264H31.5621V28.9118C30.6671 30.9028 28.6538 32.4601 25.4326 32.4601C19.5264 32.4601 16.7078 28.1332 16.7078 22.3741V21.081ZM23.1502 22.4668C23.1502 25.537 24.3123 27.5704 27.3103 27.5704C29.9515 27.5704 31.293 25.7105 31.293 22.7694V20.7018C31.293 17.7607 29.9515 15.9008 27.3103 15.9008C24.3123 15.9008 23.1502 17.9342 23.1502 21.0044V22.4668Z" fill="#949494"/>
<path d="M51.1584 11.001C53.662 11.001 56.0341 11.5215 57.3317 12.3848L55.9005 16.7985C54.5582 16.1804 53.0916 15.8552 51.6049 15.8464C48.1146 15.8464 46.5978 17.793 46.5978 21.1254V22.3357C46.5978 25.6682 48.1187 27.6148 51.6049 27.6148C53.0916 27.6057 54.5582 27.2807 55.9005 26.6626L57.3317 31.0743C56.0341 31.9397 53.6641 32.4601 51.1584 32.4601C43.5957 32.4601 40.1513 28.5225 40.1513 22.2066V21.2545C40.1513 14.9386 43.5957 11.001 51.1584 11.001Z" fill="#949494"/>
<path d="M58.1808 22.5173V20.7018C58.1808 14.862 61.6253 11.0192 68.6518 11.0192C75.2737 11.0192 78.1819 14.9124 78.1819 20.6231V23.9112H64.6212C64.7568 26.7232 66.0544 27.9779 69.6282 27.9779C72.0462 27.9779 74.5956 27.5018 76.4754 26.7232L77.6541 30.9896C75.9538 31.857 72.4635 32.5045 69.3779 32.5045C61.2226 32.5025 58.1808 28.5689 58.1808 22.5173ZM64.6232 19.8344H72.4092V19.316C72.4092 17.0668 71.4704 15.2815 68.6539 15.2815C65.7436 15.2836 64.6232 17.0587 64.6232 19.8263V19.8344Z" fill="#949494"/>
<path d="M102.063 22.3801C102.063 28.1332 99.2011 32.4662 93.3011 32.4662C90.0799 32.4662 87.8434 30.9089 86.9484 28.9179V32.0325H80.8649V1.09449L87.3073 0.529667V14.2871C88.2461 12.4716 90.3052 10.999 93.3032 10.999C99.2094 10.999 102.066 15.3259 102.066 21.0851L102.063 22.3801ZM95.6211 20.9519C95.6211 18.0532 94.459 15.8907 91.3713 15.8907C88.7301 15.8907 87.2989 17.7062 87.2989 20.6493V22.8118C87.2989 25.7529 88.7301 27.5704 91.3713 27.5704C94.459 27.5704 95.6211 25.4079 95.6211 22.5092V20.9519Z" fill="#949494"/>
<path d="M104.219 22.249V21.2121C104.219 15.2836 107.709 11.001 114.823 11.001C121.937 11.001 125.43 15.2836 125.43 21.2121V22.249C125.43 28.1756 121.939 32.4601 114.825 32.4601C107.711 32.4601 104.219 28.1756 104.219 22.249ZM118.985 20.7784C118.985 18.0532 117.821 15.8907 114.813 15.8907C111.804 15.8907 110.651 18.0532 110.651 20.7784V22.6827C110.651 25.4079 111.815 27.5704 114.813 27.5704C117.811 27.5704 118.985 25.4079 118.985 22.6827V20.7784Z" fill="#949494"/>
<path d="M127.572 22.249V21.2121C127.572 15.2836 131.063 11.001 138.177 11.001C145.291 11.001 148.781 15.2836 148.781 21.2121V22.249C148.781 28.1756 145.291 32.4601 138.177 32.4601C131.063 32.4601 127.572 28.1756 127.572 22.249ZM142.339 20.7784C142.339 18.0532 141.175 15.8907 138.177 15.8907C135.179 15.8907 134.017 18.0532 134.017 20.7784V22.6827C134.017 25.4079 135.179 27.5704 138.177 27.5704C141.175 27.5704 142.339 25.4079 142.339 22.6827V20.7784Z" fill="#949494"/>
<path d="M157.64 21.2545L163.992 11.4347H170.837L164.172 21.6015L171.107 32.0264H164.262L157.64 21.9403V32.0264H151.195V1.09449L157.64 0.529667V21.2545Z" fill="#949494"/>
</svg>
