<svg width="172" height="32" viewBox="0 0 172 32" fill="none" xmlns="http://www.w3.org/2000/svg">
<path d="M13.4036 5.01285C11.3903 5.01285 10.8082 5.87622 10.8082 7.78047V10.9394H16.1783L15.64 16.043H10.8103V31.5311H4.36582V16.043H0.024292V10.9394H4.36582V7.8672C4.36582 2.71928 6.5126 7.99303e-05 12.5023 7.99303e-05C13.7574 -0.00274417 15.0117 0.0692687 16.2576 0.21592V5.0189L13.4036 5.01285Z" fill="url(#paint0_linear_71_2424)"/>
<path d="M16.6248 20.5857C16.6248 14.8326 19.4433 10.4997 25.3495 10.4997C28.5708 10.4997 30.5381 12.1013 31.479 14.0903V10.9394H37.6523V31.5311H31.479V28.4165C30.584 30.4075 28.5708 31.9648 25.3495 31.9648C19.4433 31.9648 16.6248 27.6379 16.6248 21.8788V20.5857ZM23.0672 21.9715C23.0672 25.0417 24.2292 27.0751 27.2272 27.0751C29.8684 27.0751 31.2099 25.2152 31.2099 22.2741V20.2065C31.2099 17.2654 29.8684 15.4055 27.2272 15.4055C24.2292 15.4055 23.0672 17.4389 23.0672 20.5091V21.9715Z" fill="url(#paint1_linear_71_2424)"/>
<path d="M51.0754 10.5057C53.5789 10.5057 55.951 11.0262 57.2487 11.8895L55.8175 16.3032C54.4752 15.6851 53.0085 15.3599 51.5218 15.3511C48.0315 15.3511 46.5148 17.2977 46.5148 20.6301V21.8404C46.5148 25.1729 48.0357 27.1195 51.5218 27.1195C53.0085 27.1104 54.4752 26.7854 55.8175 26.1673L57.2487 30.579C55.951 31.4444 53.581 31.9648 51.0754 31.9648C43.5126 31.9648 40.0682 28.0272 40.0682 21.7113V20.7592C40.0682 14.4433 43.5126 10.5057 51.0754 10.5057Z" fill="url(#paint2_linear_71_2424)"/>
<path d="M58.0978 22.022V20.2065C58.0978 14.3667 61.5422 10.5239 68.5688 10.5239C75.1906 10.5239 78.0989 14.4171 78.0989 20.1278V23.4159H64.5381C64.6737 26.2279 65.9714 27.4826 69.5451 27.4826C71.9631 27.4826 74.5126 27.0065 76.3923 26.2279L77.571 30.4943C75.8707 31.3617 72.3804 32.0092 69.2948 32.0092C61.1396 32.0072 58.0978 28.0736 58.0978 22.022ZM64.5402 19.3391H72.3261V18.8207C72.3261 16.5715 71.3873 14.7862 68.5709 14.7862C65.6605 14.7883 64.5402 16.5634 64.5402 19.331V19.3391Z" fill="url(#paint3_linear_71_2424)"/>
<path d="M101.98 21.8848C101.98 27.6379 99.118 31.9709 93.2181 31.9709C89.9969 31.9709 87.7604 30.4136 86.8654 28.4226V31.5372H80.7818V0.599187L87.2242 0.034367V13.7918C88.163 11.9763 90.2222 10.5037 93.2201 10.5037C99.1264 10.5037 101.982 14.8306 101.982 20.5898L101.98 21.8848ZM95.538 20.4566C95.538 17.5579 94.3759 15.3954 91.2883 15.3954C88.647 15.3954 87.2159 17.2109 87.2159 20.154V22.3165C87.2159 25.2576 88.647 27.0751 91.2883 27.0751C94.3759 27.0751 95.538 24.9126 95.538 22.0139V20.4566Z" fill="url(#paint4_linear_71_2424)"/>
<path d="M104.136 21.7537V20.7168C104.136 14.7883 107.626 10.5057 114.74 10.5057C121.854 10.5057 125.347 14.7883 125.347 20.7168V21.7537C125.347 27.6802 121.856 31.9648 114.742 31.9648C107.628 31.9648 104.136 27.6802 104.136 21.7537ZM118.902 20.2831C118.902 17.5579 117.738 15.3954 114.73 15.3954C111.721 15.3954 110.568 17.5579 110.568 20.2831V22.1874C110.568 24.9126 111.732 27.0751 114.73 27.0751C117.728 27.0751 118.902 24.9126 118.902 22.1874V20.2831Z" fill="url(#paint5_linear_71_2424)"/>
<path d="M127.489 21.7537V20.7168C127.489 14.7883 130.98 10.5057 138.094 10.5057C145.208 10.5057 148.698 14.7883 148.698 20.7168V21.7537C148.698 27.6802 145.208 31.9648 138.094 31.9648C130.98 31.9648 127.489 27.6802 127.489 21.7537ZM142.256 20.2831C142.256 17.5579 141.092 15.3954 138.094 15.3954C135.096 15.3954 133.934 17.5579 133.934 20.2831V22.1874C133.934 24.9126 135.096 27.0751 138.094 27.0751C141.092 27.0751 142.256 24.9126 142.256 22.1874V20.2831Z" fill="url(#paint6_linear_71_2424)"/>
<path d="M157.557 20.7592L163.909 10.9394H170.754L164.089 21.1062L171.023 31.5311H164.178L157.557 21.445V31.5311H151.112V0.599187L157.557 0.034367V20.7592Z" fill="url(#paint7_linear_71_2424)"/>
<defs>
<linearGradient id="paint0_linear_71_2424" x1="85.5239" y1="0" x2="85.5239" y2="32.0092" gradientUnits="userSpaceOnUse">
<stop stop-color="#949494"/>
<stop offset="1" stop-color="#ABABAB"/>
</linearGradient>
<linearGradient id="paint1_linear_71_2424" x1="85.5239" y1="0" x2="85.5239" y2="32.0092" gradientUnits="userSpaceOnUse">
<stop stop-color="#949494"/>
<stop offset="1" stop-color="#ABABAB"/>
</linearGradient>
<linearGradient id="paint2_linear_71_2424" x1="85.5239" y1="0" x2="85.5239" y2="32.0092" gradientUnits="userSpaceOnUse">
<stop stop-color="#949494"/>
<stop offset="1" stop-color="#ABABAB"/>
</linearGradient>
<linearGradient id="paint3_linear_71_2424" x1="85.5239" y1="0" x2="85.5239" y2="32.0092" gradientUnits="userSpaceOnUse">
<stop stop-color="#949494"/>
<stop offset="1" stop-color="#ABABAB"/>
</linearGradient>
<linearGradient id="paint4_linear_71_2424" x1="85.5239" y1="0" x2="85.5239" y2="32.0092" gradientUnits="userSpaceOnUse">
<stop stop-color="#949494"/>
<stop offset="1" stop-color="#ABABAB"/>
</linearGradient>
<linearGradient id="paint5_linear_71_2424" x1="85.5239" y1="0" x2="85.5239" y2="32.0092" gradientUnits="userSpaceOnUse">
<stop stop-color="#949494"/>
<stop offset="1" stop-color="#ABABAB"/>
</linearGradient>
<linearGradient id="paint6_linear_71_2424" x1="85.5239" y1="0" x2="85.5239" y2="32.0092" gradientUnits="userSpaceOnUse">
<stop stop-color="#949494"/>
<stop offset="1" stop-color="#ABABAB"/>
</linearGradient>
<linearGradient id="paint7_linear_71_2424" x1="85.5239" y1="0" x2="85.5239" y2="32.0092" gradientUnits="userSpaceOnUse">
<stop stop-color="#949494"/>
<stop offset="1" stop-color="#ABABAB"/>
</linearGradient>
</defs>
</svg>
