<svg width="158" height="46" viewBox="0 0 158 46" fill="none" xmlns="http://www.w3.org/2000/svg">
<path d="M8.33422 0.981039C5.10849 2.33812 1.56234 6.17204 0.442355 10.9844C-0.976023 17.0819 4.92651 19.6604 5.41064 18.8149C5.98045 17.8215 4.35298 17.4856 4.01797 14.3219C3.585 10.2358 5.47507 5.67 7.85379 3.66666C8.29595 3.29446 8.27492 3.8125 8.27492 4.77072C8.27492 6.48424 8.18071 21.8666 8.18071 25.0769C8.18071 29.4209 8.0022 30.7926 7.68158 32.1481C7.35673 33.5217 6.83447 34.4499 7.23021 34.8074C7.67235 35.2073 9.56013 34.256 10.653 32.723C11.9635 30.8844 12.4222 28.6763 12.5046 26.2784C12.6041 23.3877 12.5998 18.8009 12.6041 16.1846C12.6081 13.7851 12.6443 6.75868 12.5622 2.53468C12.5421 1.49862 9.68323 0.411639 8.33406 0.979779M122.88 21.3105C122.776 23.5688 122.278 25.334 121.661 26.579C120.466 28.9894 117.986 29.7379 116.933 26.2729C116.359 24.3841 116.333 21.2296 116.745 18.5938C117.165 15.9087 118.338 13.8809 120.279 14.0637C122.194 14.2445 123.09 16.7247 122.88 21.3105ZM90.5959 35.3216C90.5699 39.074 89.9823 42.364 88.7223 43.3196C86.9352 44.6745 84.5331 43.6581 85.0305 40.92C85.4706 38.497 87.5519 36.0226 90.601 32.9991C90.601 32.9991 90.6072 33.6886 90.5959 35.3216ZM90.1078 21.2886C89.9985 23.3455 89.468 25.4118 88.8891 26.5793C87.6944 28.9897 85.1966 29.7432 84.1615 26.2731C83.4537 23.9022 83.6232 20.8336 83.9734 18.9002C84.4278 16.3916 85.5292 14.0643 87.5073 14.0643C89.4306 14.0643 90.3789 16.1848 90.1078 21.2886ZM71.4058 21.2571C71.2886 23.4356 70.8658 25.2566 70.1872 26.5793C68.9595 28.9731 66.5307 29.7323 65.4595 26.2731C64.6873 23.7788 64.9502 20.3777 65.2714 18.5405C65.7481 15.8141 66.9418 13.8811 68.8054 14.0643C70.7196 14.2522 71.6502 16.7247 71.4058 21.2571ZM157.113 23.8017C156.645 23.8017 156.431 24.2864 156.254 25.1025C155.642 27.9398 154.998 28.5804 154.167 28.5804C153.239 28.5804 152.405 27.1755 152.191 24.3631C152.023 22.1517 152.05 18.0803 152.265 14.0304C152.309 13.1983 152.081 12.375 149.86 11.5643C148.905 11.2155 147.516 10.702 146.824 12.3798C144.87 17.12 144.106 20.8833 143.926 22.412C143.916 22.4912 143.82 22.5073 143.803 22.3225C143.688 21.098 143.432 18.873 143.4 14.1982C143.394 13.2861 143.202 12.5097 142.2 11.8741C141.55 11.4616 139.577 10.7322 138.866 11.6C138.25 12.3097 137.537 14.2197 136.796 16.4838C136.194 18.324 135.775 19.5689 135.775 19.5689C135.775 19.5689 135.783 14.6037 135.79 12.7203C135.793 12.0098 135.308 11.773 135.162 11.7301C134.504 11.5381 133.207 11.2174 132.657 11.2174C131.978 11.2174 131.811 11.5989 131.811 12.1548C131.811 12.2276 131.704 18.692 131.704 23.2121C131.704 23.4085 131.704 23.6227 131.706 23.8503C131.33 25.9278 130.112 28.748 128.788 28.748C127.461 28.748 126.835 27.5689 126.835 22.1802C126.835 19.0365 126.929 17.6696 126.975 15.3959C127.002 14.0863 127.054 13.0806 127.051 12.8524C127.041 12.1525 125.837 11.7998 125.277 11.6694C124.714 11.538 124.225 11.487 123.843 11.5089C123.302 11.5396 122.92 11.896 122.92 12.3863C122.92 12.6492 122.923 13.1491 122.923 13.1491C122.226 12.0493 121.106 11.2839 120.361 11.0621C118.354 10.463 116.26 10.9938 114.68 13.2155C113.425 14.9808 112.668 16.9801 112.37 19.8526C112.152 21.9527 112.223 24.0822 112.61 25.8832C112.143 27.9154 111.274 28.748 110.324 28.748C108.943 28.748 107.943 26.4837 108.059 22.5678C108.136 19.9922 108.648 18.1847 109.209 15.5697C109.448 14.455 109.254 13.8714 108.767 13.312C108.32 12.7991 107.368 12.537 106 12.8593C105.025 13.0891 103.632 13.3363 102.357 13.5261C102.357 13.5261 102.434 13.2176 102.497 12.6738C102.829 9.8215 99.7448 10.0529 98.7609 10.9639C98.1736 11.5078 97.7739 12.1493 97.6221 13.3027C97.3815 15.133 98.8668 15.9963 98.8668 15.9963C98.3795 18.2383 97.185 21.167 95.9517 23.2845C95.2912 24.419 94.7858 25.2596 94.1335 26.1533C94.1311 25.8205 94.1294 25.4878 94.1282 25.1566C94.1132 20.4431 94.1756 16.7334 94.2032 15.3963C94.23 14.0867 94.2823 13.1077 94.2794 12.8795C94.272 12.3676 93.9745 12.1743 93.3559 11.9295C92.809 11.7131 92.1622 11.5632 91.4913 11.511C90.6446 11.4446 90.1345 11.896 90.1477 12.4297C90.1503 12.5305 90.1503 13.1493 90.1503 13.1493C89.454 12.0495 88.334 11.2841 87.5888 11.0622C85.5818 10.4634 83.4875 10.9943 81.9078 13.2157C80.6525 14.981 79.8304 17.4581 79.5975 19.831C79.3805 22.0425 79.4206 23.9219 79.7164 25.5051C79.3972 27.0904 78.4797 28.7482 77.4422 28.7482C76.1158 28.7482 75.3611 27.5691 75.3611 22.1804C75.3611 19.0367 75.455 17.6698 75.5012 15.3963C75.528 14.0867 75.5797 13.0808 75.5768 12.8528C75.567 12.153 74.3629 11.8002 73.8027 11.6696C73.2164 11.5334 72.7103 11.4832 72.3216 11.512C71.8089 11.5504 71.4483 12.0119 71.4483 12.3561V13.1493C70.752 12.0495 69.632 11.2841 68.8869 11.0622C66.8798 10.4634 64.7972 11.0028 63.2058 13.2157C62.1681 14.6586 61.328 16.2583 60.8956 19.7995C60.7706 20.8228 60.7154 21.7811 60.7226 22.6768C60.3088 25.2204 58.481 28.152 56.986 28.152C56.1111 28.152 55.2779 26.4465 55.2779 22.8117C55.2779 17.97 55.5761 11.0764 55.6265 10.412C55.6265 10.412 57.5155 10.3797 57.8813 10.3754C58.8235 10.365 59.6769 10.3874 60.9319 10.3229C61.5614 10.2907 62.1678 8.02016 61.5182 7.73916C61.2237 7.61198 59.1426 7.50054 58.3177 7.48294C57.624 7.46714 55.6928 7.3235 55.6928 7.3235C55.6928 7.3235 55.866 2.74784 55.9063 2.26448C55.9405 1.86162 55.4219 1.6542 55.1246 1.52834C54.4014 1.22094 53.7544 1.07376 52.9875 0.914859C51.928 0.695179 51.4474 0.910059 51.3535 1.80882C51.2121 3.17284 51.1388 7.16806 51.1388 7.16806C50.3613 7.16806 47.7054 7.0153 46.9277 7.0153C46.2051 7.0153 45.4252 10.1387 46.4242 10.1771C47.5736 10.2219 49.5767 10.2605 50.9046 10.3008C50.9046 10.3008 50.8455 17.308 50.8455 19.4713C50.8455 19.7015 50.8475 19.9231 50.8479 20.1382C50.117 23.9668 47.5428 26.0349 47.5428 26.0349C48.0956 23.502 46.9664 21.6 44.9323 19.9899C44.1829 19.3966 42.7035 18.2734 41.0482 17.0425C41.0482 17.0425 42.0069 16.0928 42.8571 14.1822C43.4595 12.8289 43.4855 11.2801 42.0069 10.9386C39.5637 10.3739 37.5492 12.1773 36.9484 14.1025C36.4828 15.594 36.7311 16.7007 37.6431 17.8503C37.7097 17.9343 37.7819 18.0202 37.8564 18.1065C37.3049 19.1749 36.5473 20.6133 35.9056 21.7288C34.1246 24.8258 32.7791 27.2754 31.7623 27.2754C30.9495 27.2754 30.9604 24.7884 30.9604 22.4598C30.9604 20.4524 31.1079 17.4344 31.2257 14.3097C31.2647 13.2763 30.7506 12.6876 29.8887 12.1544C29.3651 11.8304 28.2474 11.1935 27.6002 11.1935C26.6314 11.1935 23.8362 11.326 21.1952 19.0042C20.8624 19.972 20.2085 21.7354 20.2085 21.7354L20.2648 12.502C20.2648 12.2855 20.15 12.0762 19.8874 11.9331C19.4423 11.6902 18.2537 11.1935 17.1967 11.1935C16.6931 11.1935 16.4418 11.4289 16.4418 11.8981L16.3496 26.3439C16.3496 27.4415 16.3781 28.722 16.4861 29.282C16.5937 29.8427 16.7679 30.2989 16.9838 30.5703C17.1993 30.8412 17.4486 31.0478 17.8597 31.1331C18.2423 31.2123 20.3372 31.4826 20.4461 30.678C20.5766 29.7137 20.5815 28.6707 21.6816 24.7807C23.3941 18.7246 25.627 15.7697 26.6767 14.7203C26.8602 14.5368 27.0698 14.5259 27.0597 14.8261C27.0149 16.1539 26.8573 19.4716 26.7512 22.2903C26.4668 29.8334 27.8322 31.2315 29.7833 31.2315C31.2759 31.2315 33.3801 29.7408 35.6357 25.9674C37.0419 23.6159 38.4072 21.3102 39.3882 19.6484C40.0718 20.2844 40.839 20.969 41.6056 21.7003C43.3872 23.3997 43.9721 25.0146 43.584 26.5465C43.2872 27.7177 42.1693 28.9246 40.1798 27.7515C39.5999 27.4093 39.3524 27.1449 38.7693 26.759C38.4561 26.5517 37.9778 26.4898 37.691 26.7069C36.9461 27.2714 36.5201 27.9894 36.2769 28.8783C36.0402 29.7432 36.9021 30.2004 37.7955 30.6004C38.5648 30.9446 40.2183 31.2565 41.2727 31.292C45.3813 31.4301 48.6725 29.2982 50.9636 23.799C51.3738 28.5482 53.1192 31.2357 56.1518 31.2357C58.1793 31.2357 60.2121 28.6018 61.101 26.0106C61.3562 27.0668 61.734 27.9853 62.2218 28.7621C64.5586 32.4832 69.0918 31.6823 71.3689 28.5224C72.0729 27.5461 72.1801 27.1952 72.1801 27.1952C72.5122 30.1789 74.9029 31.2214 76.2717 31.2214C77.8047 31.2214 79.3875 30.493 80.4969 27.9828C80.6269 28.2552 80.7688 28.5154 80.9238 28.762C83.2605 32.4831 87.7938 31.6822 90.0709 28.5224C90.1783 28.3741 90.2714 28.2397 90.3529 28.119L90.4197 30.0788C90.4197 30.0788 89.1207 31.2765 88.3232 32.0113C84.8137 35.2474 82.1451 37.7027 81.9488 40.5619C81.6968 44.2076 84.6386 45.5625 86.8643 45.7401C89.2278 45.9286 91.2519 44.6163 92.496 42.7798C93.5902 41.1634 94.3065 37.6843 94.2539 34.2482C94.233 32.8722 94.1985 31.1226 94.1714 29.2473C95.405 27.8075 96.7947 25.9879 98.0744 23.8579C99.4689 21.5367 100.963 18.4195 101.729 15.9935C101.729 15.9935 103.027 16.0047 104.413 15.9136C104.856 15.8845 104.984 15.9754 104.902 16.302C104.803 16.6966 103.151 23.1002 104.658 27.366C105.69 30.2863 108.017 31.2258 109.396 31.2258C111.01 31.2258 112.555 30.0004 113.382 28.1808C113.482 28.3837 113.586 28.58 113.7 28.7612C116.037 32.4823 120.554 31.6766 122.847 28.5216C123.365 27.8097 123.658 27.1943 123.658 27.1943C124.15 30.2823 126.54 31.2362 127.908 31.2362C129.334 31.2362 130.687 30.6488 131.784 28.0384C131.83 29.1878 131.902 30.1276 132.016 30.4239C132.086 30.6051 132.491 30.8326 132.786 30.9424C134.09 31.4285 135.42 31.1986 135.912 31.0987C136.253 31.0293 136.519 30.7545 136.555 30.0447C136.651 28.1811 136.592 25.0499 137.154 22.7229C138.098 18.8175 138.978 17.3026 139.395 16.5526C139.629 16.1324 139.893 16.0631 139.902 16.5078C139.922 17.4077 139.966 20.0501 140.332 23.6003C140.6 26.2114 140.959 27.7547 141.235 28.2432C142.021 29.64 142.993 29.7061 143.784 29.7061C144.287 29.7061 145.339 29.5664 145.245 28.6775C145.199 28.2442 145.28 25.5666 146.21 21.7191C146.817 19.2065 147.83 16.9363 148.195 16.1063C148.33 15.8002 148.393 16.0415 148.391 16.0885C148.314 17.8188 148.141 23.4786 148.842 26.574C149.793 30.7673 152.544 31.2365 153.502 31.2365C155.548 31.2365 157.221 29.6722 157.785 25.5563C157.921 24.5658 157.72 23.8009 157.117 23.8009" fill="url(#paint0_linear_71_2411)"/>
<defs>
<linearGradient id="paint0_linear_71_2411" x1="79.0242" y1="0.823486" x2="79.0242" y2="45.7581" gradientUnits="userSpaceOnUse">
<stop stop-color="#949494"/>
<stop offset="1" stop-color="#ABABAB"/>
</linearGradient>
</defs>
</svg>
