<svg width="159" height="46" viewBox="0 0 159 46" fill="none" xmlns="http://www.w3.org/2000/svg">
<path d="M8.72264 0.993368C5.49692 2.35045 1.95077 6.18437 0.830783 10.9968C-0.587595 17.0943 5.31494 19.6727 5.79907 18.8273C6.36888 17.8339 4.7414 17.4979 4.4064 14.3343C3.97343 10.2481 5.8635 5.68233 8.24222 3.67899C8.68438 3.30679 8.66335 3.82483 8.66335 4.78305C8.66335 6.49657 8.56914 21.879 8.56914 25.0893C8.56914 29.4332 8.39062 30.805 8.07001 32.1604C7.74515 33.534 7.2229 34.4622 7.61863 34.8197C8.06078 35.2196 9.94856 34.2684 11.0414 32.7353C12.3519 30.8967 12.8107 28.6886 12.893 26.2907C12.9925 23.4001 12.9883 18.8132 12.9925 16.1969C12.9965 13.7974 13.0327 6.77101 12.9507 2.54701C12.9305 1.51095 10.0717 0.423968 8.72248 0.992108M123.268 21.3228C123.164 23.5811 122.667 25.3463 122.049 26.5914C120.854 29.0018 118.374 29.7502 117.322 26.2852C116.748 24.3964 116.721 21.2419 117.134 18.6061C117.553 15.921 118.726 13.8932 120.667 14.0761C122.582 14.2568 123.479 16.737 123.268 21.3228ZM90.9843 35.334C90.9583 39.0863 90.3708 42.3763 89.1107 43.3319C87.3236 44.6868 84.9215 43.6705 85.4189 40.9324C85.859 38.5094 87.9403 36.0349 90.9894 33.0115C90.9894 33.0115 90.9957 33.7009 90.9843 35.334ZM90.4962 21.3009C90.387 23.3578 89.8564 25.4241 89.2776 26.5916C88.0828 29.002 85.585 29.7556 84.5499 26.2855C83.8422 23.9145 84.0117 20.846 84.3618 18.9125C84.8162 16.4039 85.9176 14.0766 87.8958 14.0766C89.819 14.0766 90.7673 16.1971 90.4962 21.3009ZM71.7943 21.2695C71.677 23.4479 71.2542 25.269 70.5756 26.5916C69.3479 28.9854 66.9191 29.7446 65.8479 26.2855C65.0757 23.7911 65.3386 20.3901 65.6599 18.5528C66.1366 15.8264 67.3303 13.8934 69.1938 14.0766C71.108 14.2646 72.0386 16.737 71.7943 21.2695ZM157.501 23.814C157.033 23.814 156.82 24.2988 156.643 25.1148C156.03 27.9521 155.386 28.5928 154.555 28.5928C153.628 28.5928 152.794 27.1879 152.579 24.3755C152.411 22.164 152.438 18.0927 152.654 14.0428C152.698 13.2107 152.469 12.3874 150.249 11.5766C149.293 11.2278 147.904 10.7143 147.212 12.3922C145.258 17.1323 144.494 20.8956 144.314 22.4244C144.305 22.5035 144.208 22.5196 144.191 22.3348C144.077 21.1103 143.82 18.8853 143.789 14.2105C143.782 13.2984 143.59 12.522 142.589 11.8864C141.939 11.4739 139.965 10.7445 139.254 11.6123C138.639 12.322 137.926 14.2321 137.185 16.4962C136.582 18.3363 136.163 19.5812 136.163 19.5812C136.163 19.5812 136.171 14.616 136.178 12.7326C136.181 12.0221 135.696 11.7853 135.55 11.7424C134.892 11.5504 133.596 11.2297 133.045 11.2297C132.366 11.2297 132.2 11.6112 132.2 12.1671C132.2 12.2399 132.092 18.7043 132.092 23.2245C132.092 23.4208 132.092 23.635 132.094 23.8626C131.719 25.9401 130.501 28.7603 129.176 28.7603C127.85 28.7603 127.224 27.5813 127.224 22.1925C127.224 19.0488 127.318 17.6819 127.364 15.4082C127.391 14.0986 127.442 13.0929 127.439 12.8647C127.43 12.1648 126.226 11.8121 125.665 11.6817C125.102 11.5503 124.613 11.4994 124.231 11.5212C123.691 11.5519 123.308 11.9084 123.308 12.3987C123.308 12.6615 123.311 13.1614 123.311 13.1614C122.615 12.0617 121.495 11.2962 120.75 11.0744C118.743 10.4753 116.648 11.0061 115.069 13.2278C113.813 14.9931 113.056 16.9924 112.758 19.865C112.541 21.965 112.612 24.0945 112.999 25.8955C112.531 27.9277 111.663 28.7603 110.712 28.7603C109.332 28.7603 108.331 26.4961 108.447 22.5802C108.524 20.0045 109.037 18.197 109.597 15.582C109.836 14.4673 109.642 13.8837 109.155 13.3243C108.708 12.8114 107.757 12.5493 106.388 12.8716C105.414 13.1015 104.02 13.3486 102.745 13.5384C102.745 13.5384 102.822 13.23 102.885 12.6861C103.217 9.83383 100.133 10.0652 99.1494 10.9763C98.5621 11.5202 98.1623 12.1616 98.0106 13.315C97.77 15.1453 99.2552 16.0086 99.2552 16.0086C98.7679 18.2506 97.5734 21.1794 96.3401 23.2968C95.6796 24.4313 95.1743 25.272 94.522 26.1656C94.5196 25.8328 94.5178 25.5001 94.5166 25.1689C94.5017 20.4554 94.5641 16.7457 94.5916 15.4087C94.6184 14.0991 94.6707 13.12 94.6678 12.8918C94.6604 12.3799 94.363 12.1866 93.7444 11.9419C93.1974 11.7254 92.5506 11.5755 91.8798 11.5233C91.033 11.4569 90.5229 11.9083 90.5362 12.442C90.5387 12.5428 90.5387 13.1616 90.5387 13.1616C89.8424 12.0618 88.7224 11.2964 87.9773 11.0746C85.9702 10.4757 83.8759 11.0066 82.2962 13.228C81.0409 14.9933 80.2188 17.4704 79.9859 19.8433C79.769 22.0548 79.809 23.9342 80.1048 25.5174C79.7857 27.1027 78.8681 28.7605 77.8306 28.7605C76.5042 28.7605 75.7495 27.5814 75.7495 22.1927C75.7495 19.049 75.8435 17.6821 75.8896 15.4087C75.9164 14.0991 75.9681 13.0931 75.9652 12.8652C75.9555 12.1653 74.7513 11.8126 74.1911 11.6819C73.6048 11.5457 73.0987 11.4956 72.7101 11.5243C72.1973 11.5627 71.8368 12.0243 71.8368 12.3685V13.1616C71.1404 12.0618 70.0205 11.2964 69.2753 11.0746C67.2683 10.4757 65.1856 11.0151 63.5943 13.228C62.5565 14.6709 61.7164 16.2706 61.284 19.8118C61.159 20.8352 61.1039 21.7934 61.111 22.6891C60.6972 25.2327 58.8695 28.1643 57.3744 28.1643C56.4995 28.1643 55.6663 26.4588 55.6663 22.824C55.6663 17.9823 55.9645 11.0887 56.0149 10.4243C56.0149 10.4243 57.9039 10.392 58.2697 10.3878C59.2119 10.3774 60.0653 10.3998 61.3203 10.3352C61.9498 10.303 62.5562 8.03249 61.9066 7.75149C61.6121 7.62431 59.5311 7.51287 58.7061 7.49527C58.0124 7.47947 56.0812 7.33583 56.0812 7.33583C56.0812 7.33583 56.2544 2.76017 56.2948 2.27681C56.329 1.87395 55.8104 1.66653 55.513 1.54067C54.7899 1.23327 54.1429 1.08609 53.376 0.927188C52.3165 0.707508 51.8358 0.922388 51.7419 1.82115C51.6005 3.18517 51.5273 7.18039 51.5273 7.18039C50.7498 7.18039 48.0939 7.02763 47.3161 7.02763C46.5935 7.02763 45.8136 10.151 46.8126 10.1894C47.962 10.2342 49.9651 10.2729 51.293 10.3131C51.293 10.3131 51.2339 17.3203 51.2339 19.4836C51.2339 19.7138 51.2359 19.9354 51.2363 20.1505C50.5054 23.9791 47.9313 26.0472 47.9313 26.0472C48.4841 23.5144 47.3548 21.6123 45.3207 20.0022C44.5713 19.4089 43.0919 18.2857 41.4366 17.0548C41.4366 17.0548 42.3953 16.1051 43.2455 14.1946C43.8479 12.8412 43.8739 11.2924 42.3953 10.9509C39.9521 10.3862 37.9377 12.1896 37.3368 14.1148C36.8713 15.6063 37.1196 16.713 38.0316 17.8626C38.0981 17.9466 38.1703 18.0325 38.2448 18.1189C37.6933 19.1872 36.9357 20.6256 36.294 21.7411C34.513 24.8381 33.1675 27.2878 32.1507 27.2878C31.3379 27.2878 31.3488 24.8007 31.3488 22.4722C31.3488 20.4647 31.4963 17.4467 31.6141 14.322C31.6531 13.2886 31.139 12.6999 30.2771 12.1667C29.7535 11.8427 28.6359 11.2058 27.9886 11.2058C27.0198 11.2058 24.2247 11.3383 21.5836 19.0166C21.2508 19.9843 20.5969 21.7478 20.5969 21.7478L20.6532 12.5143C20.6532 12.2979 20.5385 12.0886 20.2758 11.9454C19.8308 11.7025 18.6421 11.2058 17.5852 11.2058C17.0816 11.2058 16.8303 11.4412 16.8303 11.9105L16.7381 26.3562C16.7381 27.4538 16.7665 28.7343 16.8745 29.2943C16.9821 29.8551 17.1564 30.3112 17.3722 30.5826C17.5877 30.8535 17.8371 31.0602 18.2481 31.1454C18.6307 31.2246 20.7256 31.495 20.8345 30.6903C20.965 29.726 20.97 28.683 22.07 24.7931C23.7826 18.7369 26.0154 15.782 27.0651 14.7326C27.2486 14.5492 27.4582 14.5382 27.4481 14.8384C27.4033 16.1662 27.2457 19.4839 27.1396 22.3026C26.8553 29.8457 28.2206 31.2438 30.1717 31.2438C31.6644 31.2438 33.7685 29.7531 36.0241 25.9798C37.4303 23.6282 38.7957 21.3225 39.7766 19.6607C40.4603 20.2967 41.2274 20.9813 41.9941 21.7126C43.7756 23.4121 44.3606 25.0269 43.9725 26.5589C43.6756 27.73 42.5578 28.9369 40.5682 27.7638C39.9883 27.4216 39.7408 27.1572 39.1578 26.7713C38.8445 26.5641 38.3662 26.5021 38.0794 26.7192C37.3346 27.2837 36.9085 28.0017 36.6653 28.8906C36.4287 29.7555 37.2905 30.2128 38.184 30.6127C38.9532 30.9569 40.6067 31.2688 41.6611 31.3043C45.7697 31.4424 49.0609 29.3105 51.3521 23.8113C51.7622 28.5606 53.5077 31.248 56.5403 31.248C58.5677 31.248 60.6005 28.6141 61.4895 26.0229C61.7446 27.0792 62.1224 27.9977 62.6102 28.7744C64.947 32.4955 69.4802 31.6946 71.7573 28.5348C72.4614 27.5584 72.5685 27.2075 72.5685 27.2075C72.9007 30.1912 75.2913 31.2337 76.6601 31.2337C78.1931 31.2337 79.776 30.5053 80.8853 27.9951C81.0153 28.2675 81.1572 28.5277 81.3122 28.7743C83.649 32.4955 88.1822 31.6945 90.4593 28.5347C90.5667 28.3865 90.6598 28.252 90.7413 28.1313L90.8081 30.0911C90.8081 30.0911 89.5091 31.2888 88.7117 32.0236C85.2021 35.2598 82.5335 37.715 82.3372 40.5742C82.0852 44.2199 85.027 45.5748 87.2527 45.7524C89.6162 45.9409 91.6403 44.6287 92.8844 42.7922C93.9786 41.1757 94.6949 37.6966 94.6424 34.2605C94.6214 32.8845 94.5869 31.1349 94.5599 29.2596C95.7934 27.8199 97.1831 26.0002 98.4628 23.8702C99.8574 21.549 101.352 18.4318 102.117 16.0059C102.117 16.0059 103.416 16.0171 104.801 15.9259C105.245 15.8968 105.372 15.9877 105.29 16.3143C105.191 16.7089 103.539 23.1125 105.047 27.3783C106.079 30.2986 108.405 31.2381 109.784 31.2381C111.399 31.2381 112.943 30.0127 113.771 28.1931C113.87 28.396 113.975 28.5923 114.088 28.7735C116.425 32.4947 120.943 31.6889 123.236 28.5339C123.753 27.822 124.047 27.2066 124.047 27.2066C124.539 30.2946 126.928 31.2485 128.297 31.2485C129.722 31.2485 131.075 30.6611 132.173 28.0507C132.219 29.2001 132.291 30.1399 132.405 30.4362C132.474 30.6174 132.879 30.8449 133.174 30.9548C134.478 31.4408 135.808 31.211 136.3 31.111C136.641 31.0416 136.907 30.7668 136.943 30.057C137.039 28.1934 136.98 25.0622 137.542 22.7352C138.486 18.8298 139.366 17.3149 139.784 16.565C140.017 16.1448 140.281 16.0754 140.291 16.5202C140.31 17.42 140.355 20.0624 140.72 23.6127C140.989 26.2237 141.348 27.7671 141.623 28.2555C142.41 29.6523 143.381 29.7184 144.172 29.7184C144.675 29.7184 145.728 29.5787 145.634 28.6898C145.588 28.2565 145.668 25.5789 146.598 21.7314C147.206 19.2188 148.219 16.9486 148.584 16.1186C148.719 15.8125 148.781 16.0538 148.779 16.1008C148.702 17.8312 148.529 23.4909 149.231 26.5863C150.182 30.7796 152.932 31.2488 153.89 31.2488C155.936 31.2488 157.61 29.6846 158.173 25.5686C158.309 24.5781 158.108 23.8132 157.506 23.8132" fill="#949494"/>
</svg>
