<svg width="158" height="43" viewBox="0 0 158 43" fill="none" xmlns="http://www.w3.org/2000/svg">
<path fill-rule="evenodd" clip-rule="evenodd" d="M0 35.6133H17.2769V29.8651H6.25228V7.9338H0V35.6133Z" fill="url(#paint0_linear_71_2408)"/>
<path fill-rule="evenodd" clip-rule="evenodd" d="M26.0239 35.6133V16.5486H19.7711V35.6133H26.0239ZM22.8975 13.9455C25.078 13.9455 26.4352 12.4815 26.4352 10.6508C26.3945 8.78061 25.078 7.35779 22.9391 7.35779C20.7998 7.35779 19.4014 8.78061 19.4014 10.6508C19.4014 12.4815 20.7583 13.9455 22.8567 13.9455H22.8975Z" fill="url(#paint1_linear_71_2408)"/>
<path fill-rule="evenodd" clip-rule="evenodd" d="M28.9271 35.6133H35.18V24.9664C35.18 24.3966 35.2207 23.8274 35.3861 23.4201C35.8378 22.2822 36.8666 21.1031 38.594 21.1031C40.8569 21.1031 41.762 22.852 41.762 25.4133V35.6133H48.0143V24.6815C48.0143 18.8255 44.9292 16.1006 40.8153 16.1006C37.4423 16.1006 35.9612 18.0114 35.1384 19.313H35.1801V16.5486H28.9272C29.0094 18.3375 28.9271 35.6133 28.9271 35.6133Z" fill="url(#paint2_linear_71_2408)"/>
<path fill-rule="evenodd" clip-rule="evenodd" d="M56.8353 7.9338H50.5822V35.6133H56.8353V29.4324L58.398 27.4386L63.2934 35.6133H70.9855L62.7587 23.7789L69.9575 15.7271H62.4298C62.4298 15.7271 57.2879 22.9309 56.8353 23.7851V7.9338Z" fill="url(#paint3_linear_71_2408)"/>
<path fill-rule="evenodd" clip-rule="evenodd" d="M87.7073 27.6609C87.7894 27.1712 87.9131 26.2319 87.9131 25.1701C87.9131 20.2416 85.4444 15.2386 78.9453 15.2386C71.9931 15.2386 68.7846 20.8108 68.7846 25.8646C68.7846 32.1155 72.6925 36.0195 79.521 36.0195C82.2362 36.0195 84.7451 35.6133 86.8022 34.7592L85.9791 30.5742C84.2928 31.1412 82.5651 31.4244 80.4262 31.4244C77.5055 31.4244 74.9553 30.2098 74.7493 27.6203L87.7073 27.6598V27.6609ZM74.7086 23.3738C74.873 21.7468 75.9426 19.3468 78.6164 19.3468C81.4542 19.3468 82.1128 21.9098 82.1128 23.3738H74.7086Z" fill="url(#paint4_linear_71_2408)"/>
<path fill-rule="evenodd" clip-rule="evenodd" d="M103.347 7.9338V17.5155H103.265C102.36 16.1745 100.467 15.2798 97.9586 15.2798C93.1453 15.2798 88.9085 19.1838 88.9492 25.8527C88.9492 32.0348 92.7751 36.0607 97.5468 36.0607C100.138 36.0607 102.606 34.9217 103.84 32.7254H103.964L104.211 35.6133H109.765C109.682 34.2712 109.599 31.953 109.599 29.6761V7.9338H103.347ZM103.347 26.7887C103.347 27.2761 103.306 27.7647 103.223 28.1709C102.854 29.9198 101.372 31.1395 99.5628 31.1395C96.9711 31.1395 95.2845 29.025 95.2845 25.6903C95.2845 22.5592 96.7245 20.0379 99.6036 20.0379C101.537 20.0379 102.894 21.3795 103.265 23.0466C103.347 23.4133 103.347 23.8201 103.347 24.1856V26.7887Z" fill="url(#paint5_linear_71_2408)"/>
<path d="M138.151 19.2247V19.2904H138.109C138.122 19.2687 138.136 19.2468 138.151 19.2247Z" fill="url(#paint6_linear_71_2408)"/>
<path fill-rule="evenodd" clip-rule="evenodd" d="M115.888 3.27155C115.888 1.60163 117.258 0.24707 118.948 0.24707H154.228C155.917 0.24707 157.287 1.60163 157.287 3.27155V39.444C157.287 41.1145 155.917 42.4685 154.228 42.4685H118.948C117.258 42.4685 115.888 41.1145 115.888 39.444V3.27155ZM128.438 35.5908V16.5254H122.185V35.5908H128.438ZM125.311 13.9224C127.492 13.9224 128.849 12.4584 128.849 10.6288C128.808 8.75803 127.492 7.33465 125.352 7.33465C123.214 7.33465 121.815 8.75803 121.815 10.6288C121.815 12.4584 123.172 13.9224 125.27 13.9224H125.311ZM138.15 35.5908H131.898C131.898 35.5908 131.98 18.3144 131.898 16.5254H138.151V19.2247C138.981 17.9256 140.469 16.0781 143.786 16.0781C147.9 16.0781 150.984 18.803 150.984 24.659V35.5908H144.732V25.3913C144.732 22.8283 143.827 21.0799 141.564 21.0799C139.837 21.0799 138.808 22.259 138.356 23.3975C138.191 23.8048 138.15 24.3741 138.15 24.9439V35.5908Z" fill="url(#paint7_linear_71_2408)"/>
<defs>
<linearGradient id="paint0_linear_71_2408" x1="78.6435" y1="0.24707" x2="78.6435" y2="42.4685" gradientUnits="userSpaceOnUse">
<stop stop-color="#949494"/>
<stop offset="1" stop-color="#ABABAB"/>
</linearGradient>
<linearGradient id="paint1_linear_71_2408" x1="78.6435" y1="0.24707" x2="78.6435" y2="42.4685" gradientUnits="userSpaceOnUse">
<stop stop-color="#949494"/>
<stop offset="1" stop-color="#ABABAB"/>
</linearGradient>
<linearGradient id="paint2_linear_71_2408" x1="78.6435" y1="0.24707" x2="78.6435" y2="42.4685" gradientUnits="userSpaceOnUse">
<stop stop-color="#949494"/>
<stop offset="1" stop-color="#ABABAB"/>
</linearGradient>
<linearGradient id="paint3_linear_71_2408" x1="78.6435" y1="0.24707" x2="78.6435" y2="42.4685" gradientUnits="userSpaceOnUse">
<stop stop-color="#949494"/>
<stop offset="1" stop-color="#ABABAB"/>
</linearGradient>
<linearGradient id="paint4_linear_71_2408" x1="78.6435" y1="0.24707" x2="78.6435" y2="42.4685" gradientUnits="userSpaceOnUse">
<stop stop-color="#949494"/>
<stop offset="1" stop-color="#ABABAB"/>
</linearGradient>
<linearGradient id="paint5_linear_71_2408" x1="78.6435" y1="0.24707" x2="78.6435" y2="42.4685" gradientUnits="userSpaceOnUse">
<stop stop-color="#949494"/>
<stop offset="1" stop-color="#ABABAB"/>
</linearGradient>
<linearGradient id="paint6_linear_71_2408" x1="78.6435" y1="0.24707" x2="78.6435" y2="42.4685" gradientUnits="userSpaceOnUse">
<stop stop-color="#949494"/>
<stop offset="1" stop-color="#ABABAB"/>
</linearGradient>
<linearGradient id="paint7_linear_71_2408" x1="78.6435" y1="0.24707" x2="78.6435" y2="42.4685" gradientUnits="userSpaceOnUse">
<stop stop-color="#949494"/>
<stop offset="1" stop-color="#ABABAB"/>
</linearGradient>
</defs>
</svg>
