<svg width="158" height="43" viewBox="0 0 158 43" fill="none" xmlns="http://www.w3.org/2000/svg">
<path fill-rule="evenodd" clip-rule="evenodd" d="M0 35.5586H17.2769V29.8104H6.25228V7.87911H0V35.5586Z" fill="#949494"/>
<path fill-rule="evenodd" clip-rule="evenodd" d="M26.0239 35.5586V16.4939H19.7711V35.5586H26.0239ZM22.8975 13.8908C25.078 13.8908 26.4352 12.4268 26.4352 10.5961C26.3945 8.72592 25.078 7.3031 22.9391 7.3031C20.7999 7.3031 19.4014 8.72592 19.4014 10.5961C19.4014 12.4268 20.7583 13.8908 22.8567 13.8908H22.8975Z" fill="#949494"/>
<path fill-rule="evenodd" clip-rule="evenodd" d="M28.9271 35.5586H35.18V24.9118C35.18 24.342 35.2207 23.7727 35.3861 23.3654C35.8378 22.2275 36.8666 21.0484 38.594 21.0484C40.8569 21.0484 41.762 22.7973 41.762 25.3586V35.5586H48.0143V24.6269C48.0143 18.7708 44.9292 16.0459 40.8153 16.0459C37.4423 16.0459 35.9612 17.9568 35.1384 19.2583H35.1801V16.4939H28.9272C29.0094 18.2828 28.9271 35.5586 28.9271 35.5586Z" fill="#949494"/>
<path fill-rule="evenodd" clip-rule="evenodd" d="M56.8353 7.87911H50.5822V35.5586H56.8353V29.3777L58.398 27.3839L63.2934 35.5586H70.9855L62.7587 23.7242L69.9575 15.6725H62.4298C62.4298 15.6725 57.2879 22.8763 56.8353 23.7304V7.87911Z" fill="#949494"/>
<path fill-rule="evenodd" clip-rule="evenodd" d="M87.7073 27.6062C87.7894 27.1165 87.9131 26.1772 87.9131 25.1154C87.9131 20.1869 85.4445 15.1839 78.9453 15.1839C71.9931 15.1839 68.7846 20.7561 68.7846 25.8099C68.7846 32.0608 72.6925 35.9648 79.521 35.9648C82.2362 35.9648 84.7451 35.5586 86.8022 34.7045L85.9791 30.5195C84.2928 31.0865 82.5651 31.3697 80.4262 31.3697C77.5055 31.3697 74.9553 30.1551 74.7493 27.5656L87.7073 27.6051V27.6062ZM74.7086 23.3191C74.873 21.6921 75.9426 19.2921 78.6164 19.2921C81.4542 19.2921 82.1128 21.8551 82.1128 23.3191H74.7086Z" fill="#949494"/>
<path fill-rule="evenodd" clip-rule="evenodd" d="M103.347 7.87911V17.4609H103.265C102.36 16.1198 100.467 15.2251 97.9586 15.2251C93.1453 15.2251 88.9085 19.1291 88.9492 25.7981C88.9492 31.9802 92.7751 36.006 97.5468 36.006C100.138 36.006 102.606 34.867 103.84 32.6707H103.964L104.211 35.5586H109.765C109.682 34.2165 109.599 31.8984 109.599 29.6214V7.87911H103.347ZM103.347 26.734C103.347 27.2214 103.306 27.71 103.223 28.1162C102.854 29.8651 101.372 31.0848 99.5628 31.0848C96.9711 31.0848 95.2845 28.9703 95.2845 25.6356C95.2845 22.5045 96.7245 19.9832 99.6036 19.9832C101.537 19.9832 102.894 21.3248 103.265 22.9919C103.347 23.3586 103.347 23.7654 103.347 24.131V26.734Z" fill="#949494"/>
<path d="M138.151 19.17V19.2357H138.109C138.122 19.214 138.136 19.1921 138.151 19.17Z" fill="#949494"/>
<path fill-rule="evenodd" clip-rule="evenodd" d="M115.888 3.21686C115.888 1.54694 117.258 0.192383 118.948 0.192383H154.228C155.917 0.192383 157.287 1.54694 157.287 3.21686V39.3893C157.287 41.0598 155.917 42.4138 154.228 42.4138H118.948C117.258 42.4138 115.888 41.0598 115.888 39.3893V3.21686ZM128.438 35.5361V16.4707H122.185V35.5361H128.438ZM125.311 13.8677C127.492 13.8677 128.849 12.4037 128.849 10.5741C128.808 8.70335 127.492 7.27996 125.352 7.27996C123.214 7.27996 121.815 8.70335 121.815 10.5741C121.815 12.4037 123.172 13.8677 125.27 13.8677H125.311ZM138.15 35.5361H131.898C131.898 35.5361 131.98 18.2597 131.898 16.4707H138.151V19.17C138.981 17.8709 140.469 16.0234 143.786 16.0234C147.9 16.0234 150.984 18.7483 150.984 24.6043V35.5361H144.732V25.3366C144.732 22.7736 143.827 21.0252 141.564 21.0252C139.837 21.0252 138.808 22.2043 138.356 23.3428C138.191 23.7501 138.15 24.3194 138.15 24.8892V35.5361Z" fill="#949494"/>
</svg>
