<svg width="199" height="32" viewBox="0 0 199 32" fill="none" xmlns="http://www.w3.org/2000/svg">
<path d="M29.7098 16.3809C29.7098 24.8259 23.0645 31.6722 14.8669 31.6722C6.66921 31.6722 0.0244141 24.8279 0.0244141 16.3809C0.0244141 7.93384 6.66972 1.09008 14.8669 1.09008C23.064 1.09008 29.7098 7.9359 29.7098 16.3809ZM45.9927 16.3809C45.9927 24.3308 42.6698 30.7749 38.5712 30.7749C34.4726 30.7749 31.1497 24.3287 31.1497 16.3809C31.1497 8.43303 34.4726 1.98687 38.5712 1.98687C42.6698 1.98687 45.9927 8.43303 45.9927 16.3809ZM52.6526 16.3809C52.6526 23.5036 51.4838 29.2773 50.0424 29.2773C48.6009 29.2773 47.4321 23.5016 47.4321 16.3809C47.4321 9.2602 48.6009 3.48444 50.0429 3.48444C51.4848 3.48444 52.6526 9.25865 52.6526 16.3809ZM93.6166 2.41593L93.6579 2.40664V2.07918H85.2169L77.3791 20.9277L69.5413 2.07918H60.445V2.40664L60.4858 2.41593C62.0266 2.77175 62.8088 3.3024 62.8088 5.21614V27.6204C62.8088 29.5341 62.0236 30.0648 60.4828 30.4206L60.442 30.4299V30.7584H66.6135V30.4309L66.5727 30.4216C65.032 30.0658 64.2498 29.5352 64.2498 27.6214V6.51568L74.3183 30.7584H74.8893L85.2511 5.83961V28.1748C85.1191 29.6863 84.3439 30.153 82.9488 30.4753L82.9075 30.4851V30.81H93.6579V30.4851L93.6166 30.4753C92.22 30.153 91.4262 29.6863 91.2942 28.1748L91.2871 5.21614H91.2942C91.2942 3.3024 92.0764 2.77175 93.6166 2.41593ZM98.5271 17.2576C98.703 13.2321 100.116 10.3266 102.487 10.2766C103.218 10.289 103.831 10.5345 104.308 11.0068C105.321 12.013 105.797 14.1154 105.724 17.2576H98.5271ZM98.4208 18.3921H111.021V18.3379C110.985 15.2598 110.114 12.8654 108.433 11.2214C106.981 9.80064 104.83 9.01885 102.571 9.01885H102.521C101.349 9.01885 99.9106 9.3097 98.8875 9.83674C97.7227 10.3885 96.6956 11.2136 95.8408 12.2966C94.4648 14.0412 93.6312 16.3989 93.4286 19.0486C93.422 19.128 93.4165 19.2074 93.411 19.2868C93.4054 19.3662 93.4019 19.4374 93.3984 19.5132C93.3805 19.8857 93.3744 20.2588 93.3803 20.6317C93.5168 26.6328 96.685 31.4288 102.312 31.4288C107.251 31.4288 110.128 27.7344 110.845 22.7755L110.483 22.645C109.223 25.3101 106.96 26.9252 104.384 26.7283C100.868 26.4591 98.1748 22.8116 98.4193 18.3931M125.267 26.5246C124.854 27.5276 123.991 28.0794 122.836 28.0794C121.68 28.0794 120.624 27.2677 119.873 25.7928C119.067 24.2096 118.642 21.9715 118.642 19.3203C118.642 13.8024 120.32 10.2333 122.916 10.2333C124.003 10.2333 124.859 10.7851 125.267 11.7479V26.5246ZM133.626 30.4583C132.085 30.0854 131.303 29.53 131.303 27.5188V0.759521L121.942 3.58139V3.9269L121.999 3.92226C123.29 3.81552 124.166 3.99807 124.675 4.4787C125.073 4.85515 125.267 5.43273 125.267 6.24546V9.9141C124.344 9.31125 123.247 9.01782 121.914 9.01782C119.213 9.01782 116.744 10.1817 114.963 12.2956C113.107 14.4986 112.126 17.5092 112.126 21.001C112.125 27.2372 115.126 31.4288 119.591 31.4288C122.203 31.4288 124.305 29.9642 125.267 27.4941V30.81H133.666V30.4665L133.626 30.4583ZM141.654 4.39876C141.654 2.45151 140.219 0.982816 138.315 0.982816C136.421 0.982816 134.938 2.48348 134.938 4.39876C134.938 6.31405 136.422 7.81471 138.315 7.81471C140.219 7.81471 141.654 6.34602 141.654 4.39876ZM143.863 30.4583C142.323 30.0854 141.54 29.53 141.54 27.5188H141.534V9.08125L133.134 11.5488V11.884L133.185 11.8887C135.002 12.0542 135.499 12.6947 135.499 14.8678V30.81H143.906V30.4665L143.863 30.4583ZM165.387 30.4583C163.846 30.0854 163.064 29.53 163.064 27.5188V9.08125L155.066 11.4674V11.8036L155.114 11.8087C156.6 11.9686 157.029 12.6457 157.029 14.8286V26.4833C156.534 27.4863 155.604 28.0819 154.478 28.1222C152.652 28.1222 151.647 26.8603 151.647 24.569V9.08177L143.247 11.5494V11.884L143.297 11.8887C145.115 12.0537 145.613 12.6942 145.613 14.8678V24.7315C145.608 25.4201 145.667 26.1075 145.788 26.785L145.939 27.458C146.65 30.0653 148.513 31.4288 151.433 31.4288C153.905 31.4288 156.072 29.8626 157.027 27.4121V30.8156H165.427V30.4722L165.387 30.4583ZM198.018 30.81V30.466L197.977 30.4562C196.305 30.0617 195.654 29.3181 195.654 27.804V15.2623C195.654 11.3518 193.507 9.01782 189.912 9.01782C187.291 9.01782 185.081 10.5675 184.23 12.9814C183.554 10.4236 181.609 9.01782 178.733 9.01782C176.207 9.01782 174.228 10.3818 173.378 12.6859V9.0828L164.979 11.4493V11.7866L165.029 11.7912C166.825 11.9542 167.344 12.6132 167.344 14.7307V30.81H175.181V30.4665L175.14 30.4562C173.806 30.1354 173.376 29.5506 173.376 28.05V13.6745C173.729 12.8314 174.44 11.8325 175.846 11.8325C177.591 11.8325 178.476 13.0701 178.476 15.5083V30.81H186.316V30.4665L186.274 30.4562C184.941 30.1354 184.51 29.5506 184.51 28.05V15.2608C184.514 14.7826 184.477 14.305 184.399 13.8334C184.773 12.917 185.525 11.8325 186.989 11.8325C188.759 11.8325 189.619 13.0346 189.619 15.5083V30.81H198.018Z" fill="url(#paint0_linear_71_2410)"/>
<defs>
<linearGradient id="paint0_linear_71_2410" x1="99.021" y1="0.759521" x2="99.021" y2="31.6722" gradientUnits="userSpaceOnUse">
<stop stop-color="#949494"/>
<stop offset="1" stop-color="#ABABAB"/>
</linearGradient>
</defs>
</svg>
