<svg width="199" height="32" viewBox="0 0 199 32" fill="none" xmlns="http://www.w3.org/2000/svg">
<path d="M30.3035 16.4681C30.3035 24.9131 23.6582 31.7594 15.4605 31.7594C7.26287 31.7594 0.618073 24.9151 0.618073 16.4681C0.618073 8.02106 7.26338 1.1773 15.4605 1.1773C23.6576 1.1773 30.3035 8.02312 30.3035 16.4681ZM46.5863 16.4681C46.5863 24.418 43.2634 30.8621 39.1649 30.8621C35.0663 30.8621 31.7434 24.416 31.7434 16.4681C31.7434 8.52025 35.0663 2.07409 39.1649 2.07409C43.2634 2.07409 46.5863 8.52025 46.5863 16.4681ZM53.2463 16.4681C53.2463 23.5908 52.0775 29.3645 50.636 29.3645C49.1946 29.3645 48.0258 23.5888 48.0258 16.4681C48.0258 9.34742 49.1946 3.57166 50.6365 3.57166C52.0785 3.57166 53.2463 9.34587 53.2463 16.4681ZM94.2103 2.50315L94.2516 2.49386V2.1664H85.8105L77.9727 21.015L70.135 2.1664H61.0387V2.49386L61.0795 2.50315C62.6202 2.85897 63.4025 3.38962 63.4025 5.30336V27.7076C63.4025 29.6214 62.6172 30.152 61.0765 30.5078L61.0357 30.5171V30.8456H67.2072V30.5181L67.1664 30.5089C65.6256 30.153 64.8434 29.6224 64.8434 27.7087V6.6029L74.9119 30.8456H75.483L85.8448 5.92683V28.262C85.7127 29.7735 84.9376 30.2402 83.5425 30.5625L83.5012 30.5723V30.8972H94.2516V30.5723L94.2103 30.5625C92.8137 30.2402 92.0199 29.7735 91.8878 28.262L91.8808 5.30336H91.8878C91.8878 3.38962 92.67 2.85897 94.2103 2.50315ZM99.1208 17.3448C99.2967 13.3193 100.709 10.4139 103.08 10.3638C103.812 10.3762 104.425 10.6217 104.902 11.0941C105.915 12.1002 106.391 14.2027 106.317 17.3448H99.1208ZM99.0144 18.4793H111.615V18.4252C111.579 15.347 110.707 12.9526 109.027 11.3086C107.574 9.88786 105.424 9.10607 103.165 9.10607H103.115C101.942 9.10607 100.504 9.39692 99.4812 9.92396C98.3164 10.4758 97.2892 11.3009 96.4344 12.3838C95.0585 14.1284 94.2249 16.4861 94.0223 19.1358C94.0157 19.2152 94.0102 19.2946 94.0047 19.374C93.9991 19.4534 93.9956 19.5246 93.9921 19.6004C93.9741 19.973 93.9681 20.346 93.9739 20.719C94.1105 26.7201 97.2786 31.516 102.906 31.516C107.845 31.516 110.721 27.8216 111.439 22.8627L111.076 22.7322C109.816 25.3973 107.553 27.0125 104.978 26.8155C101.462 26.5463 98.7685 22.8988 99.0129 18.4803M125.861 26.6118C125.447 27.6148 124.585 28.1666 123.429 28.1666C122.274 28.1666 121.217 27.3549 120.467 25.88C119.66 24.2968 119.236 22.0587 119.236 19.4075C119.236 13.8896 120.913 10.3205 123.51 10.3205C124.597 10.3205 125.453 10.8723 125.861 11.8351V26.6118ZM134.219 30.5455C132.678 30.1726 131.896 29.6172 131.896 27.606V0.846741L122.535 3.66861V4.01412L122.593 4.00948C123.884 3.90273 124.76 4.08529 125.269 4.56592C125.667 4.94237 125.861 5.51995 125.861 6.33268V10.0013C124.938 9.39847 123.84 9.10504 122.508 9.10504C119.807 9.10504 117.338 10.269 115.557 12.3828C113.701 14.5858 112.719 17.5964 112.719 21.0882C112.719 27.3245 115.719 31.516 120.185 31.516C122.797 31.516 124.899 30.0514 125.861 27.5813V30.8972H134.26V30.5537L134.219 30.5455ZM142.247 4.48598C142.247 2.53873 140.813 1.07004 138.909 1.07004C137.014 1.07004 135.532 2.5707 135.532 4.48598C135.532 6.40127 137.016 7.90193 138.909 7.90193C140.813 7.90193 142.247 6.43324 142.247 4.48598ZM144.457 30.5455C142.916 30.1726 142.134 29.6172 142.134 27.606H142.128V9.16847L133.728 11.6361V11.9713L133.778 11.9759C135.596 12.1414 136.093 12.7819 136.093 14.9551V30.8972H144.5V30.5537L144.457 30.5455ZM165.981 30.5455C164.44 30.1726 163.658 29.6172 163.658 27.606V9.16847L155.66 11.5546V11.8908L155.707 11.896C157.193 12.0558 157.623 12.7329 157.623 14.9159V26.5705C157.127 27.5735 156.198 28.1692 155.072 28.2094C153.246 28.2094 152.24 26.9475 152.24 24.6563V9.16899L143.841 11.6366V11.9713L143.891 11.9759C145.708 12.1409 146.206 12.7814 146.206 14.9551V24.8187C146.202 25.5073 146.261 26.1948 146.381 26.8722L146.533 27.5452C147.244 30.1525 149.107 31.516 152.026 31.516C154.499 31.516 156.666 29.9499 157.621 27.4993V30.9028H166.02V30.5594L165.981 30.5455ZM198.611 30.8972V30.5532L198.571 30.5434C196.899 30.1489 196.248 29.4053 196.248 27.8912V15.3496C196.248 11.4391 194.101 9.10504 190.505 9.10504C187.885 9.10504 185.675 10.6547 184.824 13.0687C184.148 10.5108 182.203 9.10504 179.327 9.10504C176.801 9.10504 174.821 10.469 173.972 12.7732V9.17002L165.572 11.5365V11.8738L165.623 11.8784C167.419 12.0414 167.938 12.7004 167.938 14.8179V30.8972H175.775V30.5537L175.734 30.5434C174.4 30.2226 173.97 29.6379 173.97 28.1372V13.7617C174.322 12.9186 175.033 11.9197 176.439 11.9197C178.185 11.9197 179.07 13.1574 179.07 15.5955V30.8972H186.909V30.5537L186.868 30.5434C185.534 30.2226 185.104 29.6379 185.104 28.1372V15.348C185.107 14.8698 185.07 14.3922 184.993 13.9206C185.367 13.0042 186.119 11.9197 187.582 11.9197C189.353 11.9197 190.213 13.1218 190.213 15.5955V30.8972H198.611Z" fill="#949494"/>
</svg>
