<svg width="178" height="59" viewBox="0 0 178 59" fill="none" xmlns="http://www.w3.org/2000/svg">
<path d="M22.2593 29.3031C20.6787 29.3031 19.3899 30.6215 19.3899 32.2385C19.3899 33.8556 20.6715 35.1594 22.2593 35.174C23.8399 35.174 25.1287 33.8556 25.1287 32.2385C25.1287 30.6215 23.8399 29.3031 22.2593 29.3031Z" fill="#949494"/>
<path d="M28.9521 42.5526C31.5011 42.6619 33.9931 41.8606 36.0294 40.2946V40.4111C36.3427 40.0979 36.3498 39.5735 36.0436 39.253C35.7375 38.9325 35.2248 38.9252 34.9115 39.2384C33.1671 40.5131 31.0596 41.1395 28.9236 41.023C26.7876 41.1249 24.6872 40.4694 22.9642 39.1801C22.6723 38.9398 22.2664 38.9398 21.9816 39.1801C21.6541 39.4569 21.6043 39.9595 21.8748 40.2946C23.9111 41.8606 26.4031 42.6619 28.9521 42.5526Z" fill="#949494"/>
<path d="M32.6474 32.3405C32.6474 33.9575 33.9361 35.2759 35.5167 35.2759L35.4954 35.3852H35.6378C37.2184 35.3196 38.4502 33.9575 38.3861 32.3405C38.3861 30.7235 37.0974 29.4051 35.5167 29.4051C33.9361 29.4051 32.6474 30.7235 32.6474 32.3405Z" fill="#949494"/>
<path fill-rule="evenodd" clip-rule="evenodd" d="M57.5745 29.3031C57.5745 45.4869 44.7503 58.6064 28.9307 58.6064C13.1112 58.6064 0.286972 45.4869 0.286972 29.3031C0.286972 13.1193 13.1112 -0.000244141 28.9307 -0.000244141C44.7503 -0.000244141 57.5745 13.1193 57.5745 29.3031ZM43.6976 25.1804C46.0116 25.1002 47.9483 26.9431 48.0337 29.3031C48.0622 30.9493 47.1579 32.4643 45.7197 33.2C45.7482 33.6298 45.7482 34.0595 45.7197 34.4893C45.7197 41.0594 38.2437 46.3912 29.0233 46.3912C19.8029 46.3912 12.3269 41.0521 12.3269 34.4893C12.2984 34.0595 12.2984 33.6298 12.3269 33.2C11.9068 33.0106 11.5295 32.7411 11.2019 32.4279C9.5145 30.8109 9.43618 28.1012 11.0168 26.3822C12.5975 24.6559 15.2461 24.5758 16.9264 26.1928C20.2301 23.9057 24.1105 22.6528 28.0977 22.5873L30.2123 12.4189V12.4043C30.3191 11.909 30.7962 11.6031 31.2732 11.7123L38.2935 13.1473C38.7421 12.3461 39.5538 11.807 40.458 11.7123C42.0315 11.5375 43.4413 12.703 43.6122 14.3127C43.7831 15.9225 42.6439 17.3647 41.0703 17.5395C39.4968 17.7143 38.0871 16.5489 37.9162 14.9391L31.7859 13.6207L29.9275 22.7621C33.8649 22.8495 37.6955 24.0951 40.9564 26.3677C41.6969 25.6465 42.6723 25.2168 43.6976 25.1804Z" fill="#949494"/>
<path d="M160.095 20.3657C162.25 20.3657 163.997 18.5786 163.997 16.3741C163.997 14.1696 162.25 12.3825 160.095 12.3825C157.94 12.3825 156.194 14.1696 156.194 16.3741C156.194 18.5786 157.94 20.3657 160.095 20.3657Z" fill="#949494"/>
<path d="M104.801 33.3602C106.311 33.4695 107.621 32.3041 107.735 30.7526C107.742 30.6652 107.742 30.5632 107.742 30.4685C107.721 29.9295 107.657 29.3832 107.55 28.8515C106.624 23.7964 102.402 20.0743 97.3824 19.8704C91.665 19.8704 86.8875 25.2459 86.8875 31.8452C86.8875 38.4444 91.5867 43.8273 97.3753 43.8273C100.444 43.9511 103.42 42.6837 105.485 40.3601C106.332 39.4132 106.261 37.9491 105.335 37.0823C105.264 37.0168 105.2 36.9585 105.129 36.9075C104.203 36.3175 103 36.4414 102.217 37.2135C100.928 38.5246 99.198 39.2748 97.3753 39.3331C94.2282 39.0781 91.7078 36.5579 91.3945 33.3311H104.716L104.801 33.3602ZM97.3539 24.3791C100.124 24.5685 102.452 26.5935 103.071 29.3686H91.6508C92.2631 26.5862 94.5771 24.5612 97.3539 24.3791Z" fill="#949494"/>
<path d="M87.1154 22.194C87.1154 21.0722 86.3037 20.118 85.2143 19.9796C82.2738 19.477 79.2834 20.5915 77.3539 22.9223V22.631C77.3539 21.3854 76.3713 20.3803 75.1538 20.3803C73.9363 20.3803 72.9537 21.3854 72.9537 22.631V41.0594C72.9252 42.2685 73.8295 43.2956 75.0114 43.3975C76.2147 43.4849 77.2684 42.5526 77.3467 41.3216C77.3539 41.2342 77.3539 41.1468 77.3467 41.0594V31.6048C77.1545 27.8317 79.9811 24.6195 83.6693 24.4156C83.9968 24.3937 84.3315 24.401 84.659 24.4374H85.1004C86.2396 24.3354 87.1154 23.3667 87.1154 22.194Z" fill="#949494"/>
<path d="M162.288 24.6122C162.288 23.3667 161.306 22.3615 160.088 22.3615C158.871 22.3615 157.888 23.3667 157.888 24.6122V41.0521C157.888 42.2977 158.871 43.3028 160.088 43.3028C161.306 43.3028 162.288 42.2977 162.288 41.0521V24.6122Z" fill="#949494"/>
<path d="M129.821 12.1202C129.821 10.882 128.839 9.87679 127.628 9.87679C126.418 9.87679 125.435 10.882 125.435 12.1202V22.1721C123.954 20.6425 121.918 19.8121 119.818 19.8704C114.1 19.8704 109.323 25.2459 109.323 31.8452C109.323 38.4444 114.029 43.8273 119.818 43.8273C121.954 43.8928 124.018 43.0552 125.535 41.5037C125.877 42.691 127.094 43.3684 128.255 43.0188C129.13 42.7565 129.757 41.9699 129.814 41.0302L129.821 12.1202ZM119.803 39.3914C116.436 39.3914 113.694 36.0407 113.694 31.8962C113.694 27.7516 116.414 24.401 119.803 24.401C123.192 24.401 125.912 27.7516 125.912 31.8962C125.912 36.0407 123.192 39.3549 119.818 39.3549L119.803 39.3914Z" fill="#949494"/>
<path d="M152.762 12.1202C152.762 10.882 151.779 9.87679 150.569 9.87679C149.358 9.87679 148.376 10.882 148.376 12.1202V22.1721C146.895 20.6425 144.859 19.8121 142.758 19.8704C137.041 19.8704 132.263 25.2459 132.263 31.8452C132.263 38.4444 136.97 43.8273 142.758 43.8273C144.894 43.8928 146.959 43.0552 148.476 41.5037C148.817 42.691 150.035 43.3684 151.195 43.0188C152.071 42.7565 152.698 41.9699 152.755 41.0302L152.762 12.1202ZM142.751 39.3914C139.383 39.3914 136.642 36.0407 136.642 31.8962C136.642 27.7516 139.362 24.401 142.751 24.401C146.14 24.401 148.86 27.7516 148.86 31.8962C148.86 36.0407 146.14 39.3549 142.765 39.3549L142.751 39.3914Z" fill="#949494"/>
<path d="M173.687 41.0448V24.3791H175.588C176.642 24.4447 177.539 23.6216 177.603 22.5509C177.603 22.5144 177.611 22.4707 177.611 22.427C177.703 21.3563 176.927 20.4094 175.888 20.3147C175.831 20.3074 175.766 20.3074 175.71 20.3074H173.695V17.2117C173.709 16.0099 172.812 14.9974 171.637 14.8882C170.434 14.8007 169.387 15.7331 169.302 16.9641C169.294 17.0151 169.294 17.0733 169.294 17.1243V20.3584H167.386C166.332 20.2928 165.435 21.1159 165.371 22.1867C165.371 22.2231 165.364 22.2668 165.364 22.3105C165.272 23.3812 166.048 24.3281 167.087 24.4228C167.144 24.4301 167.208 24.4301 167.265 24.4301H169.166V41.0521C169.166 42.2904 170.149 43.2956 171.359 43.2956C172.57 43.3757 173.602 42.4288 173.68 41.1905C173.687 41.1468 173.687 41.0958 173.687 41.0448Z" fill="#949494"/>
</svg>
