<svg width="178" height="59" viewBox="0 0 178 59" fill="none" xmlns="http://www.w3.org/2000/svg">
<path d="M22.3029 29.3033C20.7222 29.3033 19.4335 30.6217 19.4335 32.2388C19.4335 33.8558 20.7151 35.1596 22.3029 35.1742C23.8835 35.1742 25.1723 33.8558 25.1723 32.2388C25.1723 30.6217 23.8835 29.3033 22.3029 29.3033Z" fill="url(#paint0_linear_71_2409)"/>
<path d="M28.9957 42.5528C31.5446 42.6621 34.0366 41.8609 36.073 40.2948V40.4114C36.3862 40.0981 36.3934 39.5737 36.0872 39.2532C35.781 38.9327 35.2684 38.9254 34.9551 39.2386C33.2107 40.5133 31.1032 41.1398 28.9672 41.0232C26.8312 41.1252 24.7308 40.4696 23.0078 39.1804C22.7159 38.94 22.31 38.94 22.0252 39.1804C21.6977 39.4572 21.6479 39.9598 21.9184 40.2948C23.9547 41.8609 26.4467 42.6621 28.9957 42.5528Z" fill="url(#paint1_linear_71_2409)"/>
<path d="M32.691 32.3407C32.691 33.9578 33.9797 35.2762 35.5603 35.2762L35.539 35.3854H35.6814C37.262 35.3199 38.4938 33.9578 38.4297 32.3407C38.4297 30.7237 37.141 29.4053 35.5603 29.4053C33.9797 29.4053 32.691 30.7237 32.691 32.3407Z" fill="url(#paint2_linear_71_2409)"/>
<path fill-rule="evenodd" clip-rule="evenodd" d="M57.6181 29.3033C57.6181 45.4871 44.7938 58.6067 28.9743 58.6067C13.1548 58.6067 0.330566 45.4871 0.330566 29.3033C0.330566 13.1196 13.1548 0 28.9743 0C44.7938 0 57.6181 13.1196 57.6181 29.3033ZM43.7412 25.1806C46.0552 25.1005 47.9918 26.9433 48.0773 29.3033C48.1058 30.9495 47.2015 32.4646 45.7633 33.2002C45.7918 33.63 45.7918 34.0597 45.7633 34.4895C45.7633 41.0596 38.2873 46.3915 29.0669 46.3915C19.8465 46.3915 12.3705 41.0523 12.3705 34.4895C12.342 34.0597 12.342 33.63 12.3705 33.2002C11.9504 33.0109 11.5731 32.7414 11.2455 32.4281C9.55809 30.8111 9.47977 28.1015 11.0604 26.3825C12.641 24.6562 15.2897 24.576 16.97 26.1931C20.2737 23.9059 24.1541 22.6531 28.1413 22.5875L30.2559 12.4191V12.4046C30.3627 11.9093 30.8398 11.6033 31.3168 11.7126L38.3371 13.1475C38.7857 12.3463 39.5974 11.8073 40.5016 11.7126C42.0751 11.5378 43.4849 12.7032 43.6558 14.313C43.8266 15.9227 42.6874 17.3649 41.1139 17.5398C39.5404 17.7146 38.1306 16.5491 37.9598 14.9394L31.8295 13.621L29.9711 22.7623C33.9085 22.8498 37.739 24.0953 41 26.3679C41.7405 25.6468 42.7159 25.217 43.7412 25.1806Z" fill="url(#paint3_linear_71_2409)"/>
<path d="M160.139 20.3659C162.294 20.3659 164.041 18.5788 164.041 16.3743C164.041 14.1698 162.294 12.3827 160.139 12.3827C157.984 12.3827 156.237 14.1698 156.237 16.3743C156.237 18.5788 157.984 20.3659 160.139 20.3659Z" fill="url(#paint4_linear_71_2409)"/>
<path d="M104.845 33.3605C106.354 33.4698 107.665 32.3043 107.778 30.7528C107.786 30.6654 107.786 30.5635 107.786 30.4688C107.764 29.9298 107.7 29.3835 107.593 28.8517C106.668 23.7967 102.446 20.0746 97.426 19.8706C91.7086 19.8706 86.9311 25.2462 86.9311 31.8454C86.9311 38.4447 91.6303 43.8275 97.4189 43.8275C100.488 43.9514 103.464 42.684 105.529 40.3604C106.376 39.4135 106.305 37.9494 105.379 37.0826C105.308 37.017 105.244 36.9588 105.173 36.9078C104.247 36.3178 103.044 36.4416 102.26 37.2137C100.972 38.5248 99.2416 39.2751 97.4189 39.3333C94.2718 39.0784 91.7514 36.5581 91.4381 33.3314H104.76L104.845 33.3605ZM97.3975 24.3794C100.167 24.5688 102.495 26.5937 103.115 29.3689H91.6944C92.3067 26.5864 94.6207 24.5615 97.3975 24.3794Z" fill="url(#paint5_linear_71_2409)"/>
<path d="M87.159 22.1942C87.159 21.0725 86.3473 20.1183 85.2579 19.9799C82.3174 19.4773 79.327 20.5917 77.3974 22.9226V22.6312C77.3974 21.3857 76.4149 20.3805 75.1974 20.3805C73.9799 20.3805 72.9973 21.3857 72.9973 22.6312V41.0596C72.9688 42.2688 73.873 43.2958 75.055 43.3978C76.2582 43.4852 77.312 42.5528 77.3903 41.3218C77.3974 41.2344 77.3974 41.147 77.3903 41.0596V31.6051C77.1981 27.832 80.0247 24.6198 83.7129 24.4158C84.0404 24.394 84.375 24.4012 84.7026 24.4377H85.144C86.2832 24.3357 87.159 23.3669 87.159 22.1942Z" fill="url(#paint6_linear_71_2409)"/>
<path d="M162.332 24.6125C162.332 23.3669 161.349 22.3617 160.132 22.3617C158.914 22.3617 157.932 23.3669 157.932 24.6125V41.0523C157.932 42.2979 158.914 43.3031 160.132 43.3031C161.349 43.3031 162.332 42.2979 162.332 41.0523V24.6125Z" fill="url(#paint7_linear_71_2409)"/>
<path d="M129.865 12.1205C129.865 10.8822 128.882 9.87704 127.672 9.87704C126.461 9.87704 125.479 10.8822 125.479 12.1205V22.1723C123.998 20.6427 121.962 19.8123 119.861 19.8706C114.144 19.8706 109.366 25.2462 109.366 31.8454C109.366 38.4447 114.073 43.8275 119.861 43.8275C121.997 43.8931 124.062 43.0554 125.578 41.5039C125.92 42.6912 127.138 43.3686 128.298 43.019C129.174 42.7568 129.801 41.9701 129.858 41.0305L129.865 12.1205ZM119.847 39.3916C116.479 39.3916 113.738 36.041 113.738 31.8964C113.738 27.7519 116.458 24.4012 119.847 24.4012C123.236 24.4012 125.956 27.7519 125.956 31.8964C125.956 36.041 123.236 39.3552 119.861 39.3552L119.847 39.3916Z" fill="url(#paint8_linear_71_2409)"/>
<path d="M152.805 12.1205C152.805 10.8822 151.823 9.87704 150.612 9.87704C149.402 9.87704 148.419 10.8822 148.419 12.1205V22.1723C146.938 20.6427 144.902 19.8123 142.802 19.8706C137.084 19.8706 132.307 25.2462 132.307 31.8454C132.307 38.4447 137.013 43.8275 142.802 43.8275C144.938 43.8931 147.003 43.0554 148.519 41.5039C148.861 42.6912 150.078 43.3686 151.239 43.019C152.115 42.7568 152.741 41.9701 152.798 41.0305L152.805 12.1205ZM142.795 39.3916C139.427 39.3916 136.686 36.041 136.686 31.8964C136.686 27.7519 139.406 24.4012 142.795 24.4012C146.184 24.4012 148.904 27.7519 148.904 31.8964C148.904 36.041 146.184 39.3552 142.809 39.3552L142.795 39.3916Z" fill="url(#paint9_linear_71_2409)"/>
<path d="M173.731 41.0451V24.3794H175.632C176.686 24.4449 177.583 23.6219 177.647 22.5511C177.647 22.5147 177.654 22.471 177.654 22.4273C177.747 21.3565 176.971 20.4096 175.931 20.3149C175.874 20.3077 175.81 20.3077 175.753 20.3077H173.738V17.212C173.752 16.0101 172.855 14.9977 171.68 14.8884C170.477 14.801 169.431 15.7333 169.345 16.9643C169.338 17.0153 169.338 17.0736 169.338 17.1246V20.3586H167.43C166.376 20.2931 165.479 21.1162 165.415 22.1869C165.415 22.2233 165.408 22.267 165.408 22.3107C165.315 23.3815 166.091 24.3284 167.131 24.4231C167.188 24.4304 167.252 24.4304 167.309 24.4304H169.21V41.0523C169.21 42.2906 170.192 43.2958 171.403 43.2958C172.613 43.3759 173.646 42.429 173.724 41.1907C173.731 41.147 173.731 41.096 173.731 41.0451Z" fill="url(#paint10_linear_71_2409)"/>
<defs>
<linearGradient id="paint0_linear_71_2409" x1="88.9961" y1="0" x2="88.9961" y2="58.6067" gradientUnits="userSpaceOnUse">
<stop stop-color="#949494"/>
<stop offset="1" stop-color="#ABABAB"/>
</linearGradient>
<linearGradient id="paint1_linear_71_2409" x1="88.9961" y1="0" x2="88.9961" y2="58.6067" gradientUnits="userSpaceOnUse">
<stop stop-color="#949494"/>
<stop offset="1" stop-color="#ABABAB"/>
</linearGradient>
<linearGradient id="paint2_linear_71_2409" x1="88.9961" y1="0" x2="88.9961" y2="58.6067" gradientUnits="userSpaceOnUse">
<stop stop-color="#949494"/>
<stop offset="1" stop-color="#ABABAB"/>
</linearGradient>
<linearGradient id="paint3_linear_71_2409" x1="88.9961" y1="0" x2="88.9961" y2="58.6067" gradientUnits="userSpaceOnUse">
<stop stop-color="#949494"/>
<stop offset="1" stop-color="#ABABAB"/>
</linearGradient>
<linearGradient id="paint4_linear_71_2409" x1="88.9961" y1="0" x2="88.9961" y2="58.6067" gradientUnits="userSpaceOnUse">
<stop stop-color="#949494"/>
<stop offset="1" stop-color="#ABABAB"/>
</linearGradient>
<linearGradient id="paint5_linear_71_2409" x1="88.9961" y1="0" x2="88.9961" y2="58.6067" gradientUnits="userSpaceOnUse">
<stop stop-color="#949494"/>
<stop offset="1" stop-color="#ABABAB"/>
</linearGradient>
<linearGradient id="paint6_linear_71_2409" x1="88.9961" y1="0" x2="88.9961" y2="58.6067" gradientUnits="userSpaceOnUse">
<stop stop-color="#949494"/>
<stop offset="1" stop-color="#ABABAB"/>
</linearGradient>
<linearGradient id="paint7_linear_71_2409" x1="88.9961" y1="0" x2="88.9961" y2="58.6067" gradientUnits="userSpaceOnUse">
<stop stop-color="#949494"/>
<stop offset="1" stop-color="#ABABAB"/>
</linearGradient>
<linearGradient id="paint8_linear_71_2409" x1="88.9961" y1="0" x2="88.9961" y2="58.6067" gradientUnits="userSpaceOnUse">
<stop stop-color="#949494"/>
<stop offset="1" stop-color="#ABABAB"/>
</linearGradient>
<linearGradient id="paint9_linear_71_2409" x1="88.9961" y1="0" x2="88.9961" y2="58.6067" gradientUnits="userSpaceOnUse">
<stop stop-color="#949494"/>
<stop offset="1" stop-color="#ABABAB"/>
</linearGradient>
<linearGradient id="paint10_linear_71_2409" x1="88.9961" y1="0" x2="88.9961" y2="58.6067" gradientUnits="userSpaceOnUse">
<stop stop-color="#949494"/>
<stop offset="1" stop-color="#ABABAB"/>
</linearGradient>
</defs>
</svg>
