<svg width="188" height="43" viewBox="0 0 188 43" fill="none" xmlns="http://www.w3.org/2000/svg">
<path fill-rule="evenodd" clip-rule="evenodd" d="M53.2224 1.28427C55.7898 1.99217 57.8076 4.07037 58.4948 6.71489C59.7367 11.5033 59.7418 21.4999 59.7418 21.4999C59.7418 21.4999 59.7417 31.4965 58.4948 36.285C57.8076 38.9295 55.7898 41.0077 53.2224 41.7154C48.5737 42.9998 29.9241 42.9999 29.9241 42.9999C29.9241 42.9999 11.2747 42.9998 6.62577 41.7154C4.05836 41.0077 2.04073 38.9295 1.35347 36.285C0.106567 31.4965 0.106567 21.4999 0.106567 21.4999C0.106567 21.4999 0.106567 11.5033 1.35347 6.71489C2.04073 4.07037 4.05836 1.99217 6.62577 1.28427C11.2747 -6.10352e-05 29.9241 -6.10352e-05 29.9241 -6.10352e-05C29.9241 -6.10352e-05 48.5737 -6.10352e-05 53.2224 1.28427ZM39.4481 21.5006L23.9551 30.7133V12.2877L39.4481 21.5006Z" fill="#949494"/>
<path d="M72.3333 27.9575L65.6373 3.04948H71.4791L73.8257 14.3405C74.4246 17.1215 74.8615 19.493 75.1462 21.4549H75.318C75.5144 20.0492 75.9563 17.6929 76.6386 14.3809L79.0685 3.04948H84.9103L78.1308 27.9575V39.9059H72.3285V27.9575H72.3333Z" fill="#949494"/>
<path d="M86.6676 39.1162C85.4895 38.297 84.65 37.0227 84.1492 35.2935C83.6535 33.5642 83.4032 31.2687 83.4032 28.3965V24.4878C83.4032 21.5905 83.6879 19.2596 84.2574 17.505C84.8268 15.7504 85.7154 14.4661 86.9229 13.6621C88.1306 12.8581 89.7161 12.4536 91.6799 12.4536C93.614 12.4536 95.1603 12.8632 96.3286 13.6823C97.4921 14.5014 98.3462 15.7858 98.8862 17.5252C99.4262 19.2697 99.6963 21.5905 99.6963 24.4878V28.3965C99.6963 31.2687 99.4312 33.5743 98.906 35.3137C98.3806 37.0582 97.5265 38.3325 96.3482 39.1364C95.1701 39.9405 93.5698 40.3449 91.5522 40.3449C89.4707 40.3498 87.8459 39.9353 86.6676 39.1162ZM93.2752 34.8992C93.5992 34.0194 93.7662 32.5883 93.7662 30.5962V22.2075C93.7662 20.2759 93.6042 18.8601 93.2752 17.9702C92.9463 17.0752 92.3721 16.6302 91.5471 16.6302C90.7521 16.6302 90.1875 17.0752 89.8635 17.9702C89.5345 18.8652 89.3726 20.2759 89.3726 22.2075V30.5962C89.3726 32.5883 89.5295 34.0243 89.8439 34.8992C90.158 35.7789 90.7224 36.2188 91.5471 36.2188C92.3721 36.2188 92.9463 35.7789 93.2752 34.8992Z" fill="#949494"/>
<path d="M118.699 39.911H114.094L113.584 36.6142H113.456C112.204 39.102 110.329 40.3458 107.826 40.3458C106.093 40.3458 104.811 39.7592 103.987 38.5914C103.162 37.4181 102.75 35.5878 102.75 33.1001V12.9804H108.636V32.7459C108.636 33.9495 108.763 34.8039 109.019 35.3148C109.274 35.8254 109.701 36.0832 110.3 36.0832C110.81 36.0832 111.301 35.9215 111.773 35.5979C112.244 35.2741 112.587 34.8646 112.818 34.3692V12.9754H118.699V39.911Z" fill="#949494"/>
<path d="M134.688 7.92807H128.846V39.9099H123.088V7.92807H117.246V3.05367H134.688V7.92807Z" fill="#949494"/>
<path d="M148.885 39.911H144.28L143.77 36.6142H143.642C142.39 39.102 140.515 40.3458 138.011 40.3458C136.278 40.3458 134.997 39.7592 134.172 38.5914C133.348 37.4181 132.935 35.5878 132.935 33.1001V12.9804H138.821V32.7459C138.821 33.9495 138.949 34.8039 139.204 35.3148C139.459 35.8254 139.887 36.0832 140.486 36.0832C140.996 36.0832 141.487 35.9215 141.958 35.5979C142.43 35.2741 142.773 34.8646 143.004 34.3692V12.9754H148.885V39.911Z" fill="#949494"/>
<path d="M168.364 17.283C168.006 15.584 167.431 14.3553 166.636 13.5918C165.841 12.8283 164.746 12.449 163.352 12.449C162.272 12.449 161.261 12.7625 160.323 13.3946C159.386 14.0266 158.659 14.8508 158.148 15.8773H158.104V1.68893H152.434V39.9054H157.294L157.893 37.357H158.021C158.477 38.2671 159.16 38.9801 160.068 39.5111C160.976 40.037 161.987 40.3 163.097 40.3C165.085 40.3 166.553 39.3544 167.49 37.4682C168.428 35.5771 168.899 32.6292 168.899 28.6145V24.3519C168.899 21.3433 168.718 18.9819 168.364 17.283ZM162.969 28.2705C162.969 30.2324 162.891 31.7696 162.733 32.882C162.576 33.9944 162.316 34.7884 161.943 35.2535C161.575 35.7237 161.074 35.9563 160.451 35.9563C159.965 35.9563 159.518 35.84 159.106 35.6024C158.693 35.3698 158.36 35.0159 158.104 34.5507V19.2651C158.301 18.5319 158.644 17.9353 159.13 17.465C159.611 16.9948 160.142 16.7621 160.706 16.7621C161.305 16.7621 161.766 17.0049 162.09 17.4852C162.419 17.9706 162.645 18.7797 162.773 19.9224C162.9 21.0652 162.964 22.6883 162.964 24.7968V28.2705H162.969Z" fill="#949494"/>
<path d="M177.249 29.8228C177.249 31.5521 177.298 32.8466 177.397 33.7113C177.495 34.5758 177.701 35.203 178.015 35.6024C178.329 35.9967 178.81 36.1939 179.463 36.1939C180.342 36.1939 180.951 35.84 181.275 35.1372C181.604 34.4343 181.78 33.2613 181.81 31.623L186.886 31.9313C186.915 32.1639 186.93 32.4875 186.93 32.8971C186.93 35.3848 186.267 37.2457 184.947 38.4744C183.626 39.7031 181.756 40.32 179.341 40.32C176.439 40.32 174.407 39.3845 173.244 37.5086C172.075 35.6327 171.496 32.7354 171.496 28.8115V24.109C171.496 20.069 172.1 17.116 173.307 15.2553C174.515 13.3945 176.582 12.4641 179.512 12.4641C181.53 12.4641 183.081 12.8433 184.161 13.6069C185.241 14.3704 186.002 15.5536 186.444 17.1666C186.886 18.7796 187.107 21.0044 187.107 23.846V28.4576H177.249V29.8228ZM177.996 17.1312C177.696 17.5104 177.5 18.1324 177.397 18.997C177.298 19.8617 177.249 21.1713 177.249 22.931V24.8626H181.555V22.931C181.555 21.2016 181.496 19.892 181.383 18.997C181.27 18.102 181.064 17.475 180.764 17.1059C180.465 16.7419 180.003 16.5548 179.38 16.5548C178.752 16.5598 178.29 16.752 177.996 17.1312Z" fill="#949494"/>
</svg>
