<svg width="188" height="43" viewBox="0 0 188 43" fill="none" xmlns="http://www.w3.org/2000/svg">
<path fill-rule="evenodd" clip-rule="evenodd" d="M53.1399 1.28458C55.7073 1.99248 57.7251 4.07068 58.4123 6.7152C59.6542 11.5036 59.6592 21.5002 59.6592 21.5002C59.6592 21.5002 59.6592 31.4968 58.4123 36.2853C57.7251 38.9298 55.7073 41.008 53.1399 41.7157C48.4912 43.0002 29.8415 43.0002 29.8415 43.0002C29.8415 43.0002 11.1921 43.0002 6.54325 41.7157C3.97584 41.008 1.95821 38.9298 1.27095 36.2853C0.0240479 31.4968 0.0240479 21.5002 0.0240479 21.5002C0.0240479 21.5002 0.0240479 11.5036 1.27095 6.7152C1.95821 4.07068 3.97584 1.99248 6.54325 1.28458C11.1921 0.000244141 29.8415 0.000244141 29.8415 0.000244141C29.8415 0.000244141 48.4912 0.000244141 53.1399 1.28458ZM39.3656 21.5009L23.8726 30.7136V12.288L39.3656 21.5009Z" fill="url(#paint0_linear_71_2412)"/>
<path d="M72.2508 27.9578L65.5548 3.04978H71.3966L73.7432 14.3408C74.3421 17.1218 74.7789 19.4933 75.0637 21.4552H75.2354C75.4319 20.0495 75.8737 17.6932 76.5561 14.3812L78.986 3.04978H84.8278L78.0483 27.9578V39.9062H72.246V27.9578H72.2508Z" fill="url(#paint1_linear_71_2412)"/>
<path d="M86.5851 39.1165C85.407 38.2973 84.5675 37.023 84.0667 35.2938C83.571 33.5645 83.3207 31.269 83.3207 28.3968V24.4881C83.3207 21.5908 83.6054 19.2599 84.1748 17.5053C84.7443 15.7507 85.6328 14.4664 86.8404 13.6624C88.0481 12.8584 89.6336 12.4539 91.5974 12.4539C93.5315 12.4539 95.0778 12.8635 96.2461 13.6826C97.4095 14.5018 98.2637 15.7861 98.8037 17.5255C99.3437 19.27 99.6138 21.5908 99.6138 24.4881V28.3968C99.6138 31.269 99.3487 33.5746 98.8235 35.314C98.2981 37.0585 97.444 38.3328 96.2657 39.1367C95.0876 39.9408 93.4872 40.3452 91.4696 40.3452C89.3882 40.3501 87.7634 39.9356 86.5851 39.1165ZM93.1927 34.8995C93.5167 34.0197 93.6837 32.5887 93.6837 30.5965V22.2078C93.6837 20.2762 93.5217 18.8604 93.1927 17.9705C92.8638 17.0755 92.2895 16.6305 91.4646 16.6305C90.6696 16.6305 90.1049 17.0755 89.781 17.9705C89.452 18.8655 89.29 20.2762 89.29 22.2078V30.5965C89.29 32.5887 89.447 34.0246 89.7614 34.8995C90.0755 35.7792 90.6399 36.2191 91.4646 36.2191C92.2895 36.2191 92.8638 35.7792 93.1927 34.8995Z" fill="url(#paint2_linear_71_2412)"/>
<path d="M118.617 39.9113H114.012L113.501 36.6145H113.374C112.122 39.1023 110.247 40.3461 107.743 40.3461C106.01 40.3461 104.729 39.7595 103.904 38.5917C103.08 37.4184 102.667 35.5881 102.667 33.1004V12.9807H108.553V32.7463C108.553 33.9498 108.681 34.8042 108.936 35.3151C109.191 35.8257 109.618 36.0835 110.217 36.0835C110.728 36.0835 111.219 35.9218 111.69 35.5982C112.161 35.2744 112.505 34.8649 112.736 34.3695V12.9757H118.617V39.9113Z" fill="url(#paint3_linear_71_2412)"/>
<path d="M134.606 7.92838H128.764V39.9103H123.006V7.92838H117.164V3.05397H134.606V7.92838Z" fill="url(#paint4_linear_71_2412)"/>
<path d="M148.802 39.9113H144.198L143.687 36.6145H143.56C142.308 39.1023 140.433 40.3461 137.929 40.3461C136.196 40.3461 134.915 39.7595 134.09 38.5917C133.265 37.4184 132.853 35.5881 132.853 33.1004V12.9807H138.739V32.7463C138.739 33.9498 138.866 34.8042 139.122 35.3151C139.377 35.8257 139.804 36.0835 140.403 36.0835C140.913 36.0835 141.404 35.9218 141.876 35.5982C142.347 35.2744 142.691 34.8649 142.921 34.3695V12.9757H148.802V39.9113Z" fill="url(#paint5_linear_71_2412)"/>
<path d="M168.282 17.2833C167.923 15.5843 167.349 14.3556 166.554 13.5921C165.758 12.8286 164.664 12.4493 163.27 12.4493C162.19 12.4493 161.178 12.7628 160.241 13.3949C159.303 14.0269 158.576 14.8511 158.066 15.8776H158.022V1.68923H152.352V39.9057H157.212L157.811 37.3573H157.938C158.395 38.2674 159.077 38.9804 159.985 39.5114C160.894 40.0373 161.905 40.3003 163.014 40.3003C165.002 40.3003 166.47 39.3547 167.408 37.4685C168.346 35.5774 168.817 32.6295 168.817 28.6148V24.3522C168.817 21.3436 168.635 18.9822 168.282 17.2833ZM162.887 28.2708C162.887 30.2327 162.808 31.7699 162.651 32.8823C162.494 33.9948 162.234 34.7888 161.861 35.2538C161.492 35.724 160.992 35.9566 160.368 35.9566C159.882 35.9566 159.436 35.8403 159.023 35.6027C158.611 35.3701 158.277 35.0162 158.022 34.551V19.2654C158.218 18.5322 158.562 17.9356 159.048 17.4653C159.529 16.9951 160.059 16.7625 160.623 16.7625C161.223 16.7625 161.684 17.0052 162.008 17.4855C162.337 17.9709 162.563 18.78 162.69 19.9227C162.818 21.0655 162.882 22.6886 162.882 24.7971V28.2708H162.887Z" fill="url(#paint6_linear_71_2412)"/>
<path d="M177.167 29.8231C177.167 31.5524 177.216 32.8469 177.314 33.7116C177.412 34.5761 177.618 35.2033 177.933 35.6027C178.247 35.997 178.728 36.1942 179.381 36.1942C180.26 36.1942 180.868 35.8403 181.192 35.1375C181.521 34.4346 181.698 33.2616 181.727 31.6233L186.803 31.9316C186.833 32.1642 186.847 32.4878 186.847 32.8974C186.847 35.3852 186.185 37.246 184.864 38.4747C183.544 39.7034 181.673 40.3203 179.258 40.3203C176.357 40.3203 174.324 39.3848 173.161 37.5089C171.993 35.6331 171.413 32.7357 171.413 28.8118V24.1093C171.413 20.0693 172.017 17.1163 173.225 15.2556C174.433 13.3948 176.499 12.4644 179.43 12.4644C181.447 12.4644 182.999 12.8436 184.079 13.6072C185.159 14.3707 185.92 15.5539 186.361 17.1669C186.803 18.7799 187.024 21.0047 187.024 23.8463V28.4579H177.167V29.8231ZM177.913 17.1315C177.613 17.5107 177.417 18.1327 177.314 18.9973C177.216 19.862 177.167 21.1716 177.167 22.9313V24.8629H181.472V22.9313C181.472 21.2019 181.413 19.8923 181.3 18.9973C181.187 18.1023 180.981 17.4753 180.682 17.1062C180.382 16.7422 179.921 16.5551 179.297 16.5551C178.669 16.5601 178.208 16.7523 177.913 17.1315Z" fill="url(#paint7_linear_71_2412)"/>
<defs>
<linearGradient id="paint0_linear_71_2412" x1="93.5241" y1="0.000244141" x2="93.5241" y2="43.0002" gradientUnits="userSpaceOnUse">
<stop stop-color="#949494"/>
<stop offset="1" stop-color="#ABABAB"/>
</linearGradient>
<linearGradient id="paint1_linear_71_2412" x1="93.5241" y1="0.000244141" x2="93.5241" y2="43.0002" gradientUnits="userSpaceOnUse">
<stop stop-color="#949494"/>
<stop offset="1" stop-color="#ABABAB"/>
</linearGradient>
<linearGradient id="paint2_linear_71_2412" x1="93.5241" y1="0.000244141" x2="93.5241" y2="43.0002" gradientUnits="userSpaceOnUse">
<stop stop-color="#949494"/>
<stop offset="1" stop-color="#ABABAB"/>
</linearGradient>
<linearGradient id="paint3_linear_71_2412" x1="93.5241" y1="0.000244141" x2="93.5241" y2="43.0002" gradientUnits="userSpaceOnUse">
<stop stop-color="#949494"/>
<stop offset="1" stop-color="#ABABAB"/>
</linearGradient>
<linearGradient id="paint4_linear_71_2412" x1="93.5241" y1="0.000244141" x2="93.5241" y2="43.0002" gradientUnits="userSpaceOnUse">
<stop stop-color="#949494"/>
<stop offset="1" stop-color="#ABABAB"/>
</linearGradient>
<linearGradient id="paint5_linear_71_2412" x1="93.5241" y1="0.000244141" x2="93.5241" y2="43.0002" gradientUnits="userSpaceOnUse">
<stop stop-color="#949494"/>
<stop offset="1" stop-color="#ABABAB"/>
</linearGradient>
<linearGradient id="paint6_linear_71_2412" x1="93.5241" y1="0.000244141" x2="93.5241" y2="43.0002" gradientUnits="userSpaceOnUse">
<stop stop-color="#949494"/>
<stop offset="1" stop-color="#ABABAB"/>
</linearGradient>
<linearGradient id="paint7_linear_71_2412" x1="93.5241" y1="0.000244141" x2="93.5241" y2="43.0002" gradientUnits="userSpaceOnUse">
<stop stop-color="#949494"/>
<stop offset="1" stop-color="#ABABAB"/>
</linearGradient>
</defs>
</svg>
