<svg width="34" height="34" viewBox="0 0 34 34" fill="none" xmlns="http://www.w3.org/2000/svg">
<path fill-rule="evenodd" clip-rule="evenodd" d="M17 8.92054C21.4536 8.92054 23.6969 14.3299 20.5455 17.4812C17.3941 20.6325 11.9849 18.3877 11.9849 13.9356C11.9849 11.1653 14.2313 8.92054 17 8.92054ZM17 0.325195C7.79117 0.325195 0.324844 7.79152 0.324844 17.0003C0.324844 26.2092 7.78969 33.6755 17 33.6755C26.2088 33.6755 33.6752 26.2092 33.6752 17.0003C33.6752 7.79152 26.2088 0.325195 17 0.325195ZM27.55 6.45037C21.7234 0.623804 12.2766 0.623804 6.45002 6.45037C0.278649 12.6217 0.702909 22.7356 7.35083 28.3789C8.73094 20.6801 18.263 17.5721 23.9003 23.1543C25.3021 24.5431 26.2881 26.3519 26.6504 28.3789C33.2967 22.7356 33.7215 12.6217 27.55 6.45037ZM8.96343 29.5726C13.8517 32.7038 20.1502 32.7038 25.038 29.5726C24.5775 22.7257 16.2247 19.5526 11.3353 24.3957C9.97974 25.7368 9.09914 27.5529 8.96343 29.5726ZM19.3053 11.6298C17.2568 9.58133 13.7401 11.0394 13.7401 13.9353C13.7401 16.8312 17.2567 18.2877 19.3053 16.2407C20.5772 14.966 20.5772 12.9018 19.3053 11.6298Z" fill="#949494"/>
</svg>
