<svg width="19" height="21" viewBox="0 0 19 21" fill="none" xmlns="http://www.w3.org/2000/svg">
<path d="M6.5 18.5C6.5 19.6 5.6 20.5 4.5 20.5C3.4 20.5 2.51 19.6 2.51 18.5C2.51 17.4 3.4 16.5 4.5 16.5C5.6 16.5 6.5 17.4 6.5 18.5ZM14.5 16.5C13.4 16.5 12.51 17.4 12.51 18.5C12.51 19.6 13.4 20.5 14.5 20.5C15.6 20.5 16.5 19.6 16.5 18.5C16.5 17.4 15.6 16.5 14.5 16.5ZM14.896 11.5C15.351 11.4999 15.7923 11.3447 16.1472 11.06C16.5021 10.7753 16.7493 10.3781 16.848 9.934L18.5 3.5H4.5V2.5C4.5 1.96957 4.28929 1.46086 3.91421 1.08579C3.53914 0.710714 3.03043 0.5 2.5 0.5H0.5V2.5H2.5V13.5C2.5 14.0304 2.71071 14.5391 3.08579 14.9142C3.46086 15.2893 3.96957 15.5 4.5 15.5H16.5C16.5 14.9696 16.2893 14.4609 15.9142 14.0858C15.5391 13.7107 15.0304 13.5 14.5 13.5H4.5V11.5H14.896Z" fill="white"/>
</svg>
