<svg width="26" height="16" viewBox="0 0 26 16" fill="none" xmlns="http://www.w3.org/2000/svg">
<path fill-rule="evenodd" clip-rule="evenodd" d="M0 1.2C0 0.88174 0.126428 0.576515 0.351472 0.351472C0.576515 0.126428 0.88174 0 1.2 0H24.4C24.7183 0 25.0235 0.126428 25.2485 0.351472C25.4736 0.576515 25.6 0.88174 25.6 1.2C25.6 1.51826 25.4736 1.82348 25.2485 2.04853C25.0235 2.27357 24.7183 2.4 24.4 2.4H1.2C0.88174 2.4 0.576515 2.27357 0.351472 2.04853C0.126428 1.82348 0 1.51826 0 1.2ZM0 8C0 7.68174 0.126428 7.37652 0.351472 7.15147C0.576515 6.92643 0.88174 6.8 1.2 6.8H24.4C24.7183 6.8 25.0235 6.92643 25.2485 7.15147C25.4736 7.37652 25.6 7.68174 25.6 8C25.6 8.31826 25.4736 8.62348 25.2485 8.84853C25.0235 9.07357 24.7183 9.2 24.4 9.2H1.2C0.88174 9.2 0.576515 9.07357 0.351472 8.84853C0.126428 8.62348 0 8.31826 0 8ZM1.2 13.6C0.88174 13.6 0.576515 13.7264 0.351472 13.9515C0.126428 14.1765 0 14.4817 0 14.8C0 15.1183 0.126428 15.4235 0.351472 15.6485C0.576515 15.8736 0.88174 16 1.2 16H16.4C16.7183 16 17.0235 15.8736 17.2485 15.6485C17.4736 15.4235 17.6 15.1183 17.6 14.8C17.6 14.4817 17.4736 14.1765 17.2485 13.9515C17.0235 13.7264 16.7183 13.6 16.4 13.6H1.2Z" fill="url(#paint0_linear_707_3680)"/>
<defs>
<linearGradient id="paint0_linear_707_3680" x1="1.71646" y1="12" x2="6.82535" y2="-2.15622" gradientUnits="userSpaceOnUse">
<stop stop-color="#75030B"/>
<stop offset="0.333333" stop-color="#930210"/>
<stop offset="0.666667" stop-color="#B4001E"/>
<stop offset="1" stop-color="#DA291C"/>
</linearGradient>
</defs>
</svg>
