<svg width="20" height="16" viewBox="0 0 20 16" fill="none" xmlns="http://www.w3.org/2000/svg">
<g clip-path="url(#clip0_1113_1210)">
<path d="M9 1H19M9 5H14" stroke="url(#paint0_linear_1113_1210)" stroke-width="2" stroke-linecap="round" stroke-linejoin="round"/>
<path d="M4 1H2C1.44772 1 1 1.44772 1 2V4C1 4.55228 1.44772 5 2 5H4C4.55228 5 5 4.55228 5 4V2C5 1.44772 4.55228 1 4 1Z" fill="url(#paint1_linear_1113_1210)" stroke="url(#paint2_linear_1113_1210)" stroke-width="2" stroke-linecap="round" stroke-linejoin="round"/>
<path d="M9 11H19M9 15H14" stroke="url(#paint3_linear_1113_1210)" stroke-width="2" stroke-linecap="round" stroke-linejoin="round"/>
<path d="M4 11H2C1.44772 11 1 11.4477 1 12V14C1 14.5523 1.44772 15 2 15H4C4.55228 15 5 14.5523 5 14V12C5 11.4477 4.55228 11 4 11Z" fill="url(#paint4_linear_1113_1210)" stroke="url(#paint5_linear_1113_1210)" stroke-width="2" stroke-linecap="round" stroke-linejoin="round"/>
</g>
<defs>
<linearGradient id="paint0_linear_1113_1210" x1="9.67049" y1="4" x2="10.5476" y2="0.202588" gradientUnits="userSpaceOnUse">
<stop stop-color="#75030B"/>
<stop offset="0.333333" stop-color="#930210"/>
<stop offset="0.666667" stop-color="#B4001E"/>
<stop offset="1" stop-color="#DA291C"/>
</linearGradient>
<linearGradient id="paint1_linear_1113_1210" x1="1.2682" y1="4" x2="3.00037" y2="1.00021" gradientUnits="userSpaceOnUse">
<stop stop-color="#75030B"/>
<stop offset="0.333333" stop-color="#930210"/>
<stop offset="0.666667" stop-color="#B4001E"/>
<stop offset="1" stop-color="#DA291C"/>
</linearGradient>
<linearGradient id="paint2_linear_1113_1210" x1="1.2682" y1="4" x2="3.00037" y2="1.00021" gradientUnits="userSpaceOnUse">
<stop stop-color="#75030B"/>
<stop offset="0.333333" stop-color="#930210"/>
<stop offset="0.666667" stop-color="#B4001E"/>
<stop offset="1" stop-color="#DA291C"/>
</linearGradient>
<linearGradient id="paint3_linear_1113_1210" x1="9.67049" y1="14" x2="10.5476" y2="10.2026" gradientUnits="userSpaceOnUse">
<stop stop-color="#75030B"/>
<stop offset="0.333333" stop-color="#930210"/>
<stop offset="0.666667" stop-color="#B4001E"/>
<stop offset="1" stop-color="#DA291C"/>
</linearGradient>
<linearGradient id="paint4_linear_1113_1210" x1="1.2682" y1="14" x2="3.00037" y2="11.0002" gradientUnits="userSpaceOnUse">
<stop stop-color="#75030B"/>
<stop offset="0.333333" stop-color="#930210"/>
<stop offset="0.666667" stop-color="#B4001E"/>
<stop offset="1" stop-color="#DA291C"/>
</linearGradient>
<linearGradient id="paint5_linear_1113_1210" x1="1.2682" y1="14" x2="3.00037" y2="11.0002" gradientUnits="userSpaceOnUse">
<stop stop-color="#75030B"/>
<stop offset="0.333333" stop-color="#930210"/>
<stop offset="0.666667" stop-color="#B4001E"/>
<stop offset="1" stop-color="#DA291C"/>
</linearGradient>
<clipPath id="clip0_1113_1210">
<rect width="20" height="16" fill="white"/>
</clipPath>
</defs>
</svg>
