<svg width="22" height="26" viewBox="0 0 22 26" fill="none" xmlns="http://www.w3.org/2000/svg">
<g clip-path="url(#clip0_343_3716)">
<path d="M21.1441 12.6817L15.7927 7.33066C15.4446 6.98223 14.8797 6.98223 14.5316 7.33066C14.1832 7.6788 14.1832 8.24366 14.5316 8.5918L18.3602 12.4207H6.24324C5.75062 12.4207 5.35135 12.82 5.35135 13.3126C5.35135 13.8052 5.75062 14.2045 6.24324 14.2045H18.3602L14.5316 18.0334C14.1832 18.3815 14.1832 18.9464 14.5316 19.2945C14.7055 19.4687 14.9338 19.5558 15.1622 19.5558C15.3905 19.5558 15.6188 19.4687 15.7927 19.2945L21.1441 13.9434L21.1444 13.9431L21.7749 13.3126L21.1444 12.682L21.1441 12.6817Z" fill="#949494"/>
<path d="M13.3784 21.3397C12.8858 21.3397 12.4865 21.739 12.4865 22.2316V23.1235C12.4865 23.6152 12.0863 24.0154 11.5946 24.0154H2.67568C2.18395 24.0154 1.78378 23.6152 1.78378 23.1235V3.50185C1.78378 3.01012 2.18395 2.60996 2.67568 2.60996H11.5946C12.0863 2.60996 12.4865 3.01012 12.4865 3.50185V4.39374C12.4865 4.88636 12.8858 5.28563 13.3784 5.28563C13.871 5.28563 14.2703 4.88636 14.2703 4.39374V3.50185C14.2703 2.02636 13.0698 0.826172 11.5946 0.826172H2.67568C1.20049 0.826172 0 2.02636 0 3.50185V23.1235C0 24.599 1.20049 25.7991 2.67568 25.7991H11.5946C13.0698 25.7991 14.2703 24.599 14.2703 23.1235V22.2316C14.2703 21.739 13.871 21.3397 13.3784 21.3397Z" fill="#949494"/>
</g>
<defs>
<clipPath id="clip0_343_3716">
<rect width="22" height="24.973" fill="white" transform="translate(0 0.826172)"/>
</clipPath>
</defs>
</svg>
