<svg width="22" height="18" viewBox="0 0 22 18" fill="none" xmlns="http://www.w3.org/2000/svg">
<g clip-path="url(#clip0_343_3698)">
<path d="M1.07986 9.80491C0.971218 9.55044 0.915213 9.27661 0.915213 8.99991C0.915213 8.72322 0.971218 8.44939 1.07986 8.19491C1.96481 6.09206 3.37986 4.32325 5.14976 3.10534C6.92076 1.88744 8.96995 1.27301 11.0476 1.33763C13.1253 1.27301 15.1745 1.88744 16.9455 3.10534C18.7143 4.32325 20.1304 6.09206 21.0143 8.19491C21.1229 8.44939 21.1789 8.72322 21.1789 8.99991C21.1789 9.27661 21.1229 9.55044 21.0143 9.80491C20.1293 11.9078 18.7143 13.6766 16.9444 14.8945C15.1734 16.1124 13.1242 16.7268 11.0465 16.6622C8.96886 16.7268 6.91967 16.1124 5.14867 14.8945C3.38095 13.6766 1.96481 11.9078 1.08095 9.80491" stroke="#949494" stroke-width="1.5" stroke-linecap="round" stroke-linejoin="round"/>
<path d="M11.0476 12.8337C11.551 12.8337 12.0495 12.7345 12.5146 12.5419C12.9797 12.3492 13.4022 12.0669 13.7582 11.7109C14.1142 11.3549 14.3965 10.9324 14.5892 10.4673C14.7818 10.0022 14.881 9.50373 14.881 9.00033C14.881 8.49692 14.7818 7.99845 14.5892 7.53337C14.3965 7.06829 14.1142 6.64571 13.7582 6.28975C13.4022 5.93379 12.9797 5.65143 12.5146 5.45879C12.0495 5.26614 11.551 5.16699 11.0476 5.16699C10.031 5.16699 9.05593 5.57086 8.33704 6.28975C7.61815 7.00864 7.21428 7.98366 7.21428 9.00033C7.21428 10.017 7.61815 10.992 8.33704 11.7109C9.05593 12.4298 10.031 12.8337 11.0476 12.8337Z" stroke="#949494" stroke-width="1.5" stroke-linecap="round" stroke-linejoin="round"/>
</g>
<defs>
<clipPath id="clip0_343_3698">
<rect width="22" height="18" fill="white"/>
</clipPath>
</defs>
</svg>
