<svg width="22" height="15" viewBox="0 0 22 15" fill="none" xmlns="http://www.w3.org/2000/svg">
<g clip-path="url(#clip0_343_3704)">
<path d="M21.7656 1.10253C21.6433 1.01659 21.4882 0.995111 21.3472 1.04742L17.6239 2.40095C17.1625 2.56815 16.7944 2.90817 16.5889 3.35281C16.5506 3.43687 16.5245 3.52281 16.5002 3.61061C15.8613 3.42846 14.6731 3.04827 13.4924 2.44112C11.7083 1.52291 10.3455 1.97501 9.17587 2.86706C8.5827 2.8792 7.76725 2.94833 6.96391 3.02025C6.45203 3.06602 5.96908 3.10619 5.5749 3.13048C5.56556 2.89135 5.50764 2.65688 5.40769 2.43925C5.20219 1.99181 4.83416 1.65461 4.37271 1.48739L0.653038 0.133861C0.511989 0.0834189 0.356923 0.103035 0.23456 0.188974C0.112192 0.274912 0.0383987 0.414093 0.0383987 0.561682V9.69623C0.0383987 9.9475 0.242033 10.153 0.495186 10.153H1.82908C2.39608 10.153 2.92384 9.88492 3.26666 9.45243C3.44881 9.59068 3.66366 9.75134 3.88878 9.92134C4.42216 10.323 5.00598 10.7611 5.26098 10.9731C6.96106 12.3958 9.00577 13.9333 9.41205 14.2014C9.79222 14.4499 10.4788 14.718 10.9972 14.718C11.2009 14.718 11.7146 14.718 12.0761 14.4144C12.4469 14.5601 12.8486 14.5526 13.2213 14.3882C13.5922 14.2257 13.8929 13.9146 14.0676 13.5419C14.4235 13.6157 14.8355 13.5606 15.2063 13.3747C15.5556 13.2 15.8116 12.9376 15.948 12.6284C16.2777 12.6592 16.6299 12.5518 16.9456 12.3108C17.3949 11.9661 17.6032 11.457 17.5434 10.9545L18.7008 10.3137C19.0408 10.7732 19.5788 11.0647 20.1664 11.0647H21.5003C21.7516 11.0647 21.9571 10.861 21.9571 10.6079V1.47334C21.9617 1.32762 21.888 1.18661 21.7656 1.10253ZM2.68567 8.64734C2.5521 9.00137 2.21021 9.2405 1.83004 9.2405H0.951977V1.21481L4.06354 2.34601C4.2952 2.43008 4.47736 2.59915 4.58011 2.82147C4.68286 3.04379 4.6922 3.29507 4.60627 3.52485L2.68567 8.64734ZM16.3926 11.586C16.2376 11.7056 16.0218 11.77 15.9237 11.6748C15.919 11.6701 15.9116 11.6701 15.9069 11.6654C15.8976 11.6579 15.8948 11.6467 15.8854 11.6393C15.5575 11.3814 14.0966 9.88408 13.1923 8.94162C13.0177 8.75947 12.7281 8.75293 12.5469 8.92761C12.3647 9.10229 12.3582 9.39186 12.5329 9.57307C12.7458 9.79539 14.4487 11.5702 15.1296 12.1894C15.0791 12.3902 14.8933 12.5145 14.797 12.5602C14.5056 12.706 14.1992 12.6826 14.0843 12.5771C14.0815 12.5743 14.075 12.5743 14.0722 12.5696C14.0675 12.5649 14.0647 12.5574 14.0582 12.5528C13.5108 12.1156 12.1358 10.6537 11.8247 10.3165C11.6547 10.1297 11.3651 10.1185 11.1793 10.2904C10.9924 10.4604 10.9812 10.7499 11.1531 10.9358C11.1671 10.9526 12.5141 12.4042 13.2717 13.0786C13.1979 13.2916 13.0465 13.4682 12.8504 13.5541C12.7065 13.6186 12.4823 13.6494 12.2264 13.4607C11.5716 12.904 10.2536 11.5047 9.99577 11.2273C9.82389 11.0432 9.53432 11.0339 9.35031 11.2058C9.16629 11.3777 9.15695 11.6672 9.32882 11.8512C9.6352 12.1791 10.5432 13.1403 11.2325 13.7932C11.1541 13.8026 11.0775 13.8073 10.9981 13.8073C10.6963 13.8073 10.1751 13.6139 9.91262 13.4411C9.59223 13.2309 7.5811 11.7317 5.84453 10.2755C5.58111 10.055 4.98142 9.60387 4.43405 9.19194C4.1398 8.97149 3.86984 8.7688 3.66902 8.61279L5.37842 4.05258C5.82306 4.03389 6.4134 3.98065 7.04019 3.92554C7.39422 3.89471 7.74823 3.86295 8.08731 3.8368C7.56608 4.37204 6.79077 5.32857 6.89446 6.22531C6.9421 6.63443 7.16441 6.97352 7.54272 7.21079C8.28907 7.6769 9.6706 7.28738 10.3358 6.46723C10.7664 6.40465 11.056 6.29536 11.3707 6.13936C11.906 6.64192 12.6234 7.23413 13.3772 7.85625C14.6896 8.937 16.1776 10.1635 16.5701 10.8502C16.7942 11.235 16.4907 11.5094 16.3926 11.586ZM17.1763 10.1157C16.5692 9.30308 15.2493 8.21205 13.9622 7.15268C13.1065 6.44743 12.2957 5.78047 11.7792 5.26111C11.6353 5.12006 11.4177 5.08643 11.2411 5.18264C10.775 5.43112 10.5667 5.53388 10.0408 5.58711C9.89977 5.60112 9.77553 5.67772 9.7008 5.79728C9.34211 6.36615 8.34728 6.63704 8.03155 6.43808C7.85221 6.32599 7.81671 6.21109 7.80643 6.12515C7.76346 5.7375 8.15578 5.06308 8.80873 4.41013C10.4257 2.79321 11.5802 2.47842 13.0748 3.2481C14.4956 3.97951 15.8968 4.39332 16.4853 4.55117C16.5021 4.6203 16.5142 4.68942 16.5404 4.75668L18.3152 9.48692L17.1763 10.1157ZM21.0481 10.154H20.17C19.7927 10.154 19.448 9.91491 19.3144 9.56088L17.3939 4.43823C17.308 4.20844 17.3173 3.95717 17.42 3.73485C17.5228 3.51253 17.7068 3.34253 17.9366 3.25938L21.0482 2.12818L21.0481 10.154Z" fill="#949494" stroke="#949494" stroke-width="0.5"/>
</g>
<defs>
<clipPath id="clip0_343_3704">
<rect width="22" height="14.8261" fill="white"/>
</clipPath>
</defs>
</svg>
