<svg width="22" height="23" viewBox="0 0 22 23" fill="none" xmlns="http://www.w3.org/2000/svg">
<path d="M21.3715 9.42781H20.4701C19.8606 9.42981 19.31 9.06407 19.0771 8.50048V8.4715C18.8393 7.90692 18.9682 7.25539 19.4019 6.8247L20.0384 6.18816V6.18716C20.1384 6.08723 20.1953 5.95233 20.1953 5.81042C20.1953 5.66852 20.1384 5.53363 20.0384 5.43369L17.3954 2.79752C17.2954 2.6976 17.1595 2.64164 17.0186 2.64164C16.8767 2.64164 16.7408 2.69759 16.6409 2.79752L16.0044 3.43706C15.5727 3.86974 14.9211 3.99865 14.3576 3.76281H14.3306C13.761 3.52898 13.3913 2.97137 13.3983 2.35583V1.4545C13.3983 1.3136 13.3423 1.17771 13.2424 1.07776C13.1424 0.977816 13.0065 0.921875 12.8656 0.921875H9.13434C8.84056 0.921875 8.60173 1.1607 8.60173 1.45448V2.35581C8.60373 2.96537 8.23599 3.51698 7.67141 3.7488H7.64443H7.64543C7.08085 3.98563 6.43032 3.85672 5.99863 3.42404L5.36209 2.78451H5.36109C5.26116 2.68458 5.12626 2.62862 4.98435 2.62862C4.84244 2.62862 4.70756 2.68458 4.60761 2.78451L1.97145 5.43065C1.87152 5.53057 1.81556 5.66648 1.81556 5.80738C1.81556 5.94928 1.87152 6.08517 1.97145 6.18512L2.60799 6.82166H2.60899C3.04068 7.24936 3.17158 7.89587 2.93876 8.45746L2.92277 8.49444V8.49544C2.69194 9.06102 2.14034 9.42974 1.52979 9.42775H0.628455C0.334678 9.42775 0.09585 9.66658 0.09585 9.96035V13.6917C0.09585 13.8326 0.151809 13.9684 0.251738 14.0684C0.351666 14.1683 0.487568 14.2243 0.628475 14.2243H1.52981C2.13936 14.2223 2.68998 14.588 2.92279 15.1516V15.1806C3.15962 15.7452 3.03072 16.3957 2.59804 16.8274L1.9615 17.4639V17.4649C1.86157 17.5649 1.80461 17.6998 1.80461 17.8417C1.80461 17.9836 1.86157 18.1185 1.9615 18.2184L4.60457 20.8546C4.70449 20.9545 4.8404 21.0105 4.9813 21.0105C5.1232 21.0105 5.25909 20.9545 5.35904 20.8546L5.99558 20.218V20.217C6.42327 19.7873 7.0668 19.6564 7.62939 19.8843L7.66936 19.9032C8.23494 20.1341 8.60367 20.6857 8.60167 21.2962V22.1976C8.60167 22.3385 8.65763 22.4744 8.75756 22.5743C8.85749 22.6742 8.99339 22.7302 9.1343 22.7302H12.8656C13.0065 22.7302 13.1424 22.6742 13.2423 22.5743C13.3423 22.4744 13.3982 22.3385 13.3982 22.1976V21.2962C13.3962 20.6867 13.762 20.1361 14.3256 19.9032H14.3545C14.9191 19.6654 15.5706 19.7943 16.0013 20.228L16.6379 20.8645H16.6389C16.7388 20.9645 16.8737 21.0214 17.0156 21.0214C17.1575 21.0214 17.2924 20.9645 17.3923 20.8645L20.0285 18.2215C20.1284 18.1216 20.1844 17.9856 20.1844 17.8447C20.1844 17.7028 20.1284 17.567 20.0285 17.467L19.392 16.8305H19.391C18.9613 16.4028 18.8304 15.7582 19.0612 15.1967L19.0772 15.1567C19.308 14.5911 19.8596 14.2224 20.4702 14.2244H21.3715C21.5124 14.2244 21.6483 14.1684 21.7482 14.0685C21.8482 13.9686 21.9041 13.8327 21.9041 13.6917V9.96044C21.9041 9.81955 21.8482 9.68365 21.7482 9.58371C21.6483 9.48376 21.5124 9.42781 21.3715 9.42781ZM20.8389 13.1581H20.4701C19.4259 13.1651 18.4856 13.7966 18.0859 14.7619C17.6862 15.7272 17.903 16.8384 18.6375 17.5817L18.9043 17.8486L17.0226 19.7302L16.7558 19.4634C16.0134 18.7259 14.9002 18.5071 13.9339 18.9078C12.9677 19.3085 12.3361 20.2498 12.3321 21.296V21.6638H9.66805V21.296C9.66006 20.2528 9.02952 19.3145 8.06523 18.9148C7.10093 18.5151 5.99073 18.7309 5.24718 19.4634L4.98037 19.7302L3.09873 17.8485L3.36554 17.5817C4.10001 16.8373 4.31686 15.7261 3.91613 14.7609C3.51542 13.7946 2.5751 13.164 1.52987 13.158H1.16214V10.494H1.52987C2.5741 10.487 3.51442 9.85545 3.91413 8.89016C4.31384 7.92488 4.097 6.81367 3.36255 6.07033L3.09573 5.80351L4.97737 3.92187L5.24419 4.18869C5.98663 4.92615 7.09983 5.145 8.06607 4.74429C9.0323 4.34358 9.66391 3.40226 9.6679 2.35604V1.9883H12.3319V2.35604C12.3399 3.39927 12.9705 4.3376 13.9348 4.73731C14.8991 5.13702 16.0093 4.92117 16.7528 4.18871L17.0196 3.9219L18.9013 5.80354L18.6345 6.07035C17.9 6.81482 17.6831 7.926 18.0839 8.89121C18.4846 9.8575 19.4249 10.4881 20.4701 10.494H20.8379L20.8389 13.1581ZM11 6.61079C9.61702 6.61079 8.29093 7.16038 7.3127 8.13869C6.33441 9.11697 5.7848 10.443 5.7848 11.826C5.7848 13.209 6.33439 14.5351 7.3127 15.5133C8.29098 16.4916 9.61702 17.0412 11 17.0412C12.383 17.0412 13.7091 16.4916 14.6873 15.5133C15.6656 14.535 16.2152 13.209 16.2152 11.826C16.2132 10.443 15.6636 9.11794 14.6863 8.13971C13.708 7.16242 12.383 6.61278 11 6.61079ZM11 15.9749C9.8998 15.9749 8.84456 15.5382 8.06607 14.7597C7.28758 13.9813 6.85095 12.9261 6.85095 11.8258C6.85095 10.7256 7.28763 9.67037 8.06607 8.89188C8.84451 8.11339 9.89974 7.67676 11 7.67676C12.1003 7.67676 13.1554 8.11344 13.9339 8.89188C14.7124 9.67032 15.149 10.7256 15.149 11.8258C15.148 12.926 14.7114 13.9812 13.9329 14.7587C13.1555 15.5372 12.1002 15.9739 11 15.9749Z" fill="#949494" stroke="#949494" stroke-width="0.5"/>
</svg>
