<svg width="22" height="23" viewBox="0 0 22 23" fill="none" xmlns="http://www.w3.org/2000/svg">
<path fill-rule="evenodd" clip-rule="evenodd" d="M18.6714 20.8832C18.7163 20.8078 18.764 20.7343 18.8146 20.6617C18.9454 20.4745 19.0982 20.2931 19.2749 20.1203C19.4487 19.9503 19.6329 19.8014 19.8249 19.6734C19.8984 19.6247 19.9729 19.5789 20.0483 19.5359L20.7539 21.6318L18.6724 20.8823L18.6714 20.8832ZM15.673 16.4441L15.3971 18.8236H15.3961C15.3723 19.0318 15.2061 19.2017 14.9903 19.2218L14.2513 19.2915L17.8091 20.572C17.8874 20.4278 17.9762 20.2846 18.0746 20.1442C18.2388 19.9083 18.4279 19.684 18.6408 19.4758C18.8557 19.2657 19.0839 19.0814 19.3216 18.9229C19.4639 18.8274 19.6091 18.7425 19.7551 18.6661L18.5501 15.0854L18.4651 15.8197C18.4393 16.046 18.2503 16.2141 18.0287 16.2208L15.6741 16.4442L15.673 16.4441ZM7.99602 3.31768L2.50751 8.69252L1.58798 7.7539C1.17167 7.32899 0.967316 6.77041 0.973061 6.21466C0.978788 5.65989 1.19555 5.10704 1.6214 4.68974L4.01334 2.34748C4.43826 1.93116 4.99684 1.72681 5.55258 1.73255C6.10735 1.73828 6.66021 1.95504 7.0775 2.38089L7.99512 3.31856L7.99602 3.31768ZM8.25288 8.22172L10.6744 5.85081L17.8589 13.1871L17.6077 15.3537L15.4383 15.5599L8.25286 8.22266L8.25288 8.22172ZM5.18584 11.2247L7.60736 8.85381L14.7918 16.1901L14.5407 18.3567L12.3713 18.5629L5.18582 11.2257L5.18584 11.2247ZM4.51838 11.8788L4.54035 11.8578L11.8776 19.3495C11.933 19.4059 11.9989 19.4441 12.0695 19.466L21.3269 22.7985C21.5618 22.8826 21.8196 22.7603 21.9036 22.5264C21.9389 22.4271 21.938 22.324 21.9065 22.2304H21.9074L18.7658 12.8948C18.7448 12.827 18.7085 12.7631 18.6551 12.7086L11.2672 5.16433C11.2978 5.0211 11.2577 4.86545 11.1469 4.75374L9.20187 2.76763C9.05387 2.61676 8.82565 2.59193 8.65092 2.69411L7.72183 1.74593C7.13172 1.14245 6.34683 0.835936 5.55906 0.82831C4.77224 0.819716 3.98259 1.11094 3.37911 1.702L0.987171 4.04427C0.383686 4.63438 0.0771751 5.41927 0.0695496 6.20704C0.060955 6.99386 0.352177 7.78351 0.943243 8.387L1.87042 9.33422C1.76348 9.50705 1.78448 9.73621 1.93344 9.88803L3.87849 11.8741C4.05322 12.0517 4.33968 12.0546 4.51729 11.8799L4.51838 11.8788ZM10.1866 5.06296L8.87363 3.72233L2.89623 9.57653L4.20916 10.9172L7.29821 7.89216L10.1866 5.06296Z" fill="#949494" stroke="#949494" stroke-width="0.5"/>
</svg>
