<svg width="22" height="22" viewBox="0 0 22 22" fill="none" xmlns="http://www.w3.org/2000/svg">
<g clip-path="url(#clip0_343_3694)">
<path d="M10.9923 11.6303C11.6424 11.6303 12.286 11.5023 12.8866 11.2535C13.4872 11.0047 14.0329 10.6401 14.4925 10.1805C14.9522 9.72083 15.3168 9.17515 15.5655 8.57458C15.8143 7.97402 15.9423 7.33034 15.9423 6.6803C15.9423 6.03026 15.8143 5.38658 15.5655 4.78602C15.3168 4.18546 14.9522 3.63977 14.4925 3.18012C14.0329 2.72047 13.4872 2.35586 12.8866 2.1071C12.286 1.85834 11.6424 1.7303 10.9923 1.7303C9.6795 1.7303 8.42045 2.25182 7.49215 3.18012C6.56384 4.10843 6.04233 5.36748 6.04233 6.6803C6.04233 7.99312 6.56384 9.25217 7.49215 10.1805C8.42045 11.1088 9.6795 11.6303 10.9923 11.6303ZM11 3.50402e-07C12.4489 -0.000471627 13.8578 0.47587 15.0091 1.35553C16.1604 2.23519 16.9903 3.46927 17.3707 4.86738C17.7511 6.26549 17.6608 7.74991 17.1138 9.09162C16.5668 10.4333 15.5935 11.5577 14.344 12.2914C18.4008 13.5124 21.4478 16.9312 21.9945 21.1772C22.0462 21.5809 21.7459 21.9472 21.3235 21.9967C20.9022 22.0462 20.5172 21.7602 20.4655 21.3565C19.8715 16.7475 15.8796 13.277 11.0385 13.277C6.17103 13.277 2.12743 16.7541 1.53453 21.3565C1.48283 21.7602 1.09783 22.0462 0.676526 21.9967C0.254126 21.9472 -0.0461736 21.5809 0.00552636 21.1772C0.551126 16.9488 3.61463 13.5344 7.67803 12.3024C6.42478 11.5721 5.44703 10.4492 4.89595 9.10748C4.34487 7.76573 4.25115 6.2798 4.62929 4.87944C5.00742 3.47908 5.83635 2.24229 6.98791 1.36029C8.13947 0.4783 9.54951 0.000230188 11 3.50402e-07Z" fill="#949494"/>
</g>
<defs>
<clipPath id="clip0_343_3694">
<rect width="22" height="22" fill="white"/>
</clipPath>
</defs>
</svg>
