<svg width="183" height="35" viewBox="0 0 183 35" fill="none" xmlns="http://www.w3.org/2000/svg">
<path d="M38.5588 2.93124C35.6141 1.56187 32.4656 0.566675 29.1738 0C28.7696 0.726458 28.2973 1.70356 27.9716 2.48084C24.4724 1.9578 21.0054 1.9578 17.5705 2.48084C17.245 1.70356 16.7619 0.726458 16.3541 0C13.0588 0.566675 9.90657 1.56553 6.96191 2.93849C1.0225 11.8592 -0.587572 20.5584 0.217467 29.134C4.15679 32.0579 7.97448 33.8341 11.7277 34.9964C12.6544 33.7287 13.4809 32.3812 14.1929 30.961C12.8369 30.4489 11.5381 29.8169 10.3109 29.0832C10.6365 28.8434 10.9549 28.5928 11.2626 28.3349C18.7477 31.8146 26.8804 31.8146 34.276 28.3349C34.5873 28.5928 34.9057 28.8434 35.2277 29.0832C33.9969 29.8205 32.6945 30.4525 31.3385 30.9647C32.0505 32.3812 32.8735 33.7324 33.8037 35C37.5606 33.8377 41.3818 32.0616 45.3211 29.134C46.2657 19.1926 43.7075 10.5734 38.5588 2.93124ZM15.2127 23.8601C12.9657 23.8601 11.123 21.7751 11.123 19.2362C11.123 16.6973 12.9264 14.6088 15.2127 14.6088C17.499 14.6088 19.3416 16.6937 19.3023 19.2362C19.3058 21.7751 17.499 23.8601 15.2127 23.8601ZM30.3259 23.8601C28.079 23.8601 26.2363 21.7751 26.2363 19.2362C26.2363 16.6973 28.0396 14.6088 30.3259 14.6088C32.6122 14.6088 34.4549 16.6937 34.4156 19.2362C34.4156 21.7751 32.6122 23.8601 30.3259 23.8601Z" fill="url(#paint0_linear_71_2449)"/>
<path d="M61.1532 8.92878H70.9208C73.2754 8.92878 75.2646 9.30289 76.8965 10.0475C78.5241 10.7921 79.7444 11.8309 80.5532 13.1603C81.3613 14.4897 81.7691 16.0116 81.7691 17.726C81.7691 19.4041 81.347 20.926 80.5027 22.288C79.6583 23.6537 78.3738 24.7325 76.6458 25.528C74.9179 26.3234 72.7778 26.7229 70.2199 26.7229H61.1532V8.92878ZM70.1195 22.2009C71.7046 22.2009 72.9249 21.7977 73.7761 20.9949C74.6279 20.1886 75.0538 19.0917 75.0538 17.7006C75.0538 16.4111 74.6741 15.3832 73.9158 14.6131C73.1575 13.8431 72.0089 13.4545 70.4737 13.4545H67.4181V22.2009H70.1195Z" fill="url(#paint1_linear_71_2449)"/>
<path d="M96.3927 26.7012C95.0402 26.3453 93.8198 25.8295 92.736 25.1503V20.9297C93.5554 21.5725 94.6535 22.1029 96.031 22.5206C97.4085 22.9346 98.7398 23.1417 100.028 23.1417C100.629 23.1417 101.083 23.0618 101.391 22.9019C101.699 22.7421 101.853 22.5496 101.853 22.3281C101.853 22.0738 101.77 21.8631 101.602 21.6924C101.434 21.5217 101.108 21.38 100.626 21.2602L97.6199 20.5737C95.8988 20.1669 94.6785 19.6039 93.9526 18.8811C93.2262 18.1619 92.8645 17.2175 92.8645 16.048C92.8645 15.0636 93.1794 14.2101 93.8167 13.48C94.4496 12.7499 95.3513 12.1869 96.5211 11.791C97.6916 11.3915 99.0579 11.1917 100.629 11.1917C102.031 11.1917 103.316 11.3442 104.486 11.6494C105.656 11.9545 106.622 12.3431 107.391 12.8189V16.8107C106.604 16.3349 105.702 15.9608 104.672 15.6774C103.645 15.3978 102.59 15.2598 101.502 15.2598C99.9309 15.2598 99.1477 15.5322 99.1477 16.0734C99.1477 16.3277 99.2693 16.5165 99.5125 16.6436C99.7557 16.7708 100.203 16.9015 100.851 17.0396L103.355 17.4972C104.991 17.7842 106.21 18.2891 107.012 19.0082C107.814 19.7274 108.214 20.7917 108.214 22.2009C108.214 23.7446 107.552 24.9687 106.225 25.8767C104.897 26.7848 103.015 27.2388 100.575 27.2388C99.1402 27.2352 97.7452 27.0572 96.3927 26.7012Z" fill="url(#paint2_linear_71_2449)"/>
<path d="M114.125 26.1672C112.691 25.4552 111.607 24.4891 110.884 23.2687C110.161 22.0482 109.797 20.6753 109.797 19.1497C109.797 17.6242 110.172 16.2585 110.923 15.0562C111.675 13.854 112.777 12.9096 114.23 12.2231C115.682 11.5366 117.417 11.1952 119.439 11.1952C121.943 11.1952 124.022 11.7291 125.675 12.797V17.4499C125.092 17.043 124.412 16.7125 123.636 16.4583C122.859 16.204 122.029 16.0768 121.142 16.0768C119.589 16.0768 118.376 16.3638 117.5 16.9413C116.623 17.5188 116.183 18.2707 116.183 19.2042C116.183 20.1195 116.608 20.8678 117.46 21.4562C118.312 22.041 119.546 22.3352 121.167 22.3352C122.001 22.3352 122.824 22.2117 123.636 21.9683C124.444 21.7213 125.142 21.4199 125.725 21.0639V25.5642C123.89 26.6829 121.761 27.2423 119.338 27.2423C117.299 27.235 115.56 26.8791 114.125 26.1672Z" fill="url(#paint3_linear_71_2449)"/>
<path d="M131.922 26.1673C130.477 25.4554 129.375 24.482 128.616 23.2434C127.858 22.0048 127.475 20.6246 127.475 19.099C127.475 17.5735 127.854 16.2114 128.616 15.0164C129.378 13.8214 130.473 12.8843 131.912 12.2051C133.346 11.5258 135.06 11.188 137.046 11.188C139.032 11.188 140.745 11.5258 142.18 12.2051C143.615 12.8843 144.71 13.8142 145.461 15.0019C146.213 16.1896 146.588 17.5517 146.588 19.0954C146.588 20.6209 146.213 22.0012 145.461 23.2397C144.71 24.4783 143.611 25.4517 142.166 26.1636C140.72 26.8756 139.014 27.2315 137.042 27.2315C135.071 27.2315 133.364 26.8792 131.922 26.1673ZM139.532 21.6561C140.141 21.0386 140.448 20.2214 140.448 19.2044C140.448 18.1874 140.144 17.3773 139.532 16.778C138.924 16.1751 138.094 15.8736 137.042 15.8736C135.972 15.8736 135.135 16.1751 134.523 16.778C133.915 17.381 133.611 18.1874 133.611 19.2044C133.611 20.2214 133.915 21.0386 134.523 21.6561C135.132 22.2736 135.972 22.5859 137.042 22.5859C138.094 22.5823 138.924 22.2736 139.532 21.6561Z" fill="url(#paint4_linear_71_2449)"/>
<path d="M161.637 12.1324V17.6243C161 17.1993 160.177 16.9886 159.158 16.9886C157.823 16.9886 156.792 17.3991 156.077 18.2199C155.358 19.0409 155 20.3194 155 22.0483V26.7266H148.864V11.8527H154.875V16.5818C155.207 14.8529 155.748 13.578 156.492 12.7534C157.233 11.9326 158.191 11.5222 159.358 11.5222C160.241 11.5222 161 11.7256 161.637 12.1324Z" fill="url(#paint5_linear_71_2449)"/>
<path d="M182.024 8.4203V26.7267H175.888V23.396C175.369 24.649 174.582 25.6043 173.523 26.2581C172.464 26.9083 171.154 27.2352 169.601 27.2352C168.213 27.2352 167.004 26.8937 165.97 26.2073C164.936 25.5208 164.138 24.5801 163.576 23.385C163.018 22.19 162.735 20.8389 162.735 19.3279C162.718 17.7697 163.015 16.3712 163.626 15.1326C164.235 13.8941 165.097 12.9279 166.206 12.2341C167.315 11.5404 168.582 11.1917 170.002 11.1917C172.926 11.1917 174.886 12.4811 175.888 15.0564V8.4203H182.024ZM174.972 21.5544C175.598 20.9369 175.91 20.1342 175.91 19.1535C175.91 18.2055 175.605 17.4318 174.997 16.8398C174.389 16.2478 173.555 15.9499 172.507 15.9499C171.473 15.9499 170.647 16.2514 170.027 16.8543C169.408 17.4573 169.101 18.2382 169.101 19.2044C169.101 20.1706 169.408 20.9587 170.027 21.5689C170.647 22.1791 171.462 22.4842 172.482 22.4842C173.516 22.4806 174.346 22.1719 174.972 21.5544Z" fill="url(#paint6_linear_71_2449)"/>
<path d="M86.9399 13.4362C88.6291 13.4362 89.9991 12.1873 89.9991 10.6467C89.9991 9.10604 88.6291 7.85716 86.9399 7.85716C85.25 7.85716 83.8806 9.10604 83.8806 10.6467C83.8806 12.1873 85.25 13.4362 86.9399 13.4362Z" fill="url(#paint7_linear_71_2449)"/>
<path d="M83.8781 15.3578C85.7526 16.1786 88.0785 16.2149 89.996 15.3578V26.8065H83.8781V15.3578Z" />
<defs>
<linearGradient id="paint0_linear_71_2449" x1="12.2273" y1="26.25" x2="16.0665" y2="-8.32365" gradientUnits="userSpaceOnUse">
<stop stop-color="#75030B"/>
<stop offset="0.333333" />
<stop offset="0.666667"/>
<stop offset="1" stop-color="#DA291C"/>
</linearGradient>
<linearGradient id="paint1_linear_71_2449" x1="12.2273" y1="26.25" x2="16.0665" y2="-8.32365" gradientUnits="userSpaceOnUse">
<stop stop-color="#75030B"/>
<stop offset="0.333333" stop-color="#930210"/>
<stop offset="0.666667" stop-color="#B4001E"/>
<stop offset="1" stop-color="#DA291C"/>
</linearGradient>
<linearGradient id="paint2_linear_71_2449" x1="12.2273" y1="26.25" x2="16.0665" y2="-8.32365" gradientUnits="userSpaceOnUse">
<stop stop-color="#75030B"/>
<stop offset="0.333333" stop-color="#930210"/>
<stop offset="0.666667" stop-color="#B4001E"/>
<stop offset="1" stop-color="#DA291C"/>
</linearGradient>
<linearGradient id="paint3_linear_71_2449" x1="12.2273" y1="26.25" x2="16.0665" y2="-8.32365" gradientUnits="userSpaceOnUse">
<stop stop-color="#75030B"/>
<stop offset="0.333333" stop-color="#930210"/>
<stop offset="0.666667" stop-color="#B4001E"/>
<stop offset="1" stop-color="#DA291C"/>
</linearGradient>
<linearGradient id="paint4_linear_71_2449" x1="12.2273" y1="26.25" x2="16.0665" y2="-8.32365" gradientUnits="userSpaceOnUse">
<stop stop-color="#75030B"/>
<stop offset="0.333333" stop-color="#930210"/>
<stop offset="0.666667" stop-color="#B4001E"/>
<stop offset="1" stop-color="#DA291C"/>
</linearGradient>
<linearGradient id="paint5_linear_71_2449" x1="12.2273" y1="26.25" x2="16.0665" y2="-8.32365" gradientUnits="userSpaceOnUse">
<stop stop-color="#75030B"/>
<stop offset="0.333333" stop-color="#930210"/>
<stop offset="0.666667" stop-color="#B4001E"/>
<stop offset="1" stop-color="#DA291C"/>
</linearGradient>
<linearGradient id="paint6_linear_71_2449" x1="12.2273" y1="26.25" x2="16.0665" y2="-8.32365" gradientUnits="userSpaceOnUse">
<stop stop-color="#75030B"/>
<stop offset="0.333333" stop-color="#930210"/>
<stop offset="0.666667" stop-color="#B4001E"/>
<stop offset="1" stop-color="#DA291C"/>
</linearGradient>
<linearGradient id="paint7_linear_71_2449" x1="12.2273" y1="26.25" x2="16.0665" y2="-8.32365" gradientUnits="userSpaceOnUse">
<stop stop-color="#75030B"/>
<stop offset="0.333333" stop-color="#930210"/>
<stop offset="0.666667" stop-color="#B4001E"/>
<stop offset="1" stop-color="#DA291C"/>
</linearGradient>
<linearGradient id="paint8_linear_71_2449" x1="12.2273" y1="26.25" x2="16.0665" y2="-8.32365" gradientUnits="userSpaceOnUse">
<stop stop-color="#75030B"/>
<stop offset="0.333333" stop-color="#930210"/>
<stop offset="0.666667" stop-color="#B4001E"/>
<stop offset="1" stop-color="#DA291C"/>
</linearGradient>
</defs>
</svg>
