<svg width="172" height="33" viewBox="0 0 172 33" fill="none" xmlns="http://www.w3.org/2000/svg">
<path d="M13.4036 5.02204C11.3903 5.02204 10.8082 5.8854 10.8082 7.78965V10.9486H16.1783L15.64 16.0522H10.8103V31.5403H4.36582V16.0522H0.024292V10.9486H4.36582V7.87639C4.36582 2.72846 6.5126 0.00926572 12.5023 0.00926572C13.7574 0.00644162 15.0117 0.0784545 16.2576 0.225106V5.02809L13.4036 5.02204Z" fill="url(#paint0_linear_71_2452)"/>
<path d="M16.6248 20.5949C16.6248 14.8418 19.4433 10.5088 25.3495 10.5088C28.5708 10.5088 30.5381 12.1105 31.479 14.0995V10.9486H37.6523V31.5403H31.479V28.4257C30.584 30.4167 28.5708 31.974 25.3495 31.974C19.4433 31.974 16.6248 27.6471 16.6248 21.8879V20.5949ZM23.0672 21.9807C23.0672 25.0509 24.2292 27.0843 27.2272 27.0843C29.8684 27.0843 31.2099 25.2244 31.2099 22.2833V20.2157C31.2099 17.2746 29.8684 15.4147 27.2272 15.4147C24.2292 15.4147 23.0672 17.4481 23.0672 20.5183V21.9807Z" fill="url(#paint1_linear_71_2452)"/>
<path d="M51.0754 10.5149C53.5789 10.5149 55.951 11.0353 57.2487 11.8987L55.8175 16.3124C54.4752 15.6943 53.0085 15.3691 51.5218 15.3602C48.0315 15.3602 46.5148 17.3069 46.5148 20.6393V21.8496C46.5148 25.182 48.0357 27.1287 51.5218 27.1287C53.0085 27.1196 54.4752 26.7946 55.8175 26.1765L57.2487 30.5882C55.951 31.4536 53.581 31.974 51.0754 31.974C43.5126 31.974 40.0682 28.0364 40.0682 21.7205V20.7684C40.0682 14.4525 43.5126 10.5149 51.0754 10.5149Z" fill="url(#paint2_linear_71_2452)"/>
<path d="M58.0978 22.0312V20.2157C58.0978 14.3758 61.5422 10.5331 68.5688 10.5331C75.1906 10.5331 78.0989 14.4263 78.0989 20.137V23.4251H64.5381C64.6737 26.237 65.9714 27.4918 69.5451 27.4918C71.9631 27.4918 74.5126 27.0157 76.3923 26.2371L77.571 30.5035C75.8707 31.3709 72.3804 32.0184 69.2948 32.0184C61.1396 32.0164 58.0978 28.0828 58.0978 22.0312ZM64.5402 19.3483H72.3261V18.8298C72.3261 16.5807 71.3873 14.7954 68.5709 14.7954C65.6605 14.7974 64.5402 16.5726 64.5402 19.3402V19.3483Z" fill="url(#paint3_linear_71_2452)"/>
<path d="M101.98 21.894C101.98 27.6471 99.118 31.9801 93.2181 31.9801C89.9968 31.9801 87.7604 30.4228 86.8654 28.4318V31.5463H80.7818V0.608373L87.2242 0.0435528V13.8009C88.163 11.9854 90.2222 10.5129 93.2201 10.5129C99.1264 10.5129 101.982 14.8398 101.982 20.5989L101.98 21.894ZM95.538 20.4658C95.538 17.5671 94.3759 15.4046 91.2883 15.4046C88.647 15.4046 87.2159 17.2201 87.2159 20.1632V22.3257C87.2159 25.2668 88.647 27.0843 91.2883 27.0843C94.3759 27.0843 95.538 24.9218 95.538 22.0231V20.4658Z" fill="url(#paint4_linear_71_2452)"/>
<path d="M104.136 21.7629V20.726C104.136 14.7974 107.626 10.5149 114.74 10.5149C121.854 10.5149 125.347 14.7974 125.347 20.726V21.7629C125.347 27.6894 121.856 31.974 114.742 31.974C107.628 31.974 104.136 27.6894 104.136 21.7629ZM118.902 20.2923C118.902 17.5671 117.738 15.4046 114.73 15.4046C111.721 15.4046 110.568 17.5671 110.568 20.2923V22.1966C110.568 24.9218 111.732 27.0843 114.73 27.0843C117.728 27.0843 118.902 24.9218 118.902 22.1966V20.2923Z" fill="url(#paint5_linear_71_2452)"/>
<path d="M127.489 21.7629V20.726C127.489 14.7974 130.98 10.5149 138.094 10.5149C145.208 10.5149 148.698 14.7974 148.698 20.726V21.7629C148.698 27.6894 145.208 31.974 138.094 31.974C130.98 31.974 127.489 27.6894 127.489 21.7629ZM142.256 20.2923C142.256 17.5671 141.092 15.4046 138.094 15.4046C135.096 15.4046 133.934 17.5671 133.934 20.2923V22.1966C133.934 24.9218 135.096 27.0843 138.094 27.0843C141.092 27.0843 142.256 24.9218 142.256 22.1966V20.2923Z" fill="url(#paint6_linear_71_2452)"/>
<path d="M157.557 20.7684L163.909 10.9486H170.754L164.089 21.1153L171.023 31.5403H164.178L157.557 21.4542V31.5403H151.112V0.608373L157.557 0.0435528V20.7684Z" fill="url(#paint7_linear_71_2452)"/>
<defs>
<linearGradient id="paint0_linear_71_2452" x1="11.4897" y1="24.0161" x2="14.9095" y2="-7.62344" gradientUnits="userSpaceOnUse">
<stop stop-color="#75030B"/>
<stop offset="0.333333" stop-color="#930210"/>
<stop offset="0.666667" stop-color="#B4001E"/>
<stop offset="1" stop-color="#DA291C"/>
</linearGradient>
<linearGradient id="paint1_linear_71_2452" x1="11.4897" y1="24.0161" x2="14.9095" y2="-7.62344" gradientUnits="userSpaceOnUse">
<stop stop-color="#75030B"/>
<stop offset="0.333333" stop-color="#930210"/>
<stop offset="0.666667" stop-color="#B4001E"/>
<stop offset="1" stop-color="#DA291C"/>
</linearGradient>
<linearGradient id="paint2_linear_71_2452" x1="11.4897" y1="24.0161" x2="14.9095" y2="-7.62344" gradientUnits="userSpaceOnUse">
<stop stop-color="#75030B"/>
<stop offset="0.333333" stop-color="#930210"/>
<stop offset="0.666667" stop-color="#B4001E"/>
<stop offset="1" stop-color="#DA291C"/>
</linearGradient>
<linearGradient id="paint3_linear_71_2452" x1="11.4897" y1="24.0161" x2="14.9095" y2="-7.62344" gradientUnits="userSpaceOnUse">
<stop stop-color="#75030B"/>
<stop offset="0.333333" stop-color="#930210"/>
<stop offset="0.666667" stop-color="#B4001E"/>
<stop offset="1" stop-color="#DA291C"/>
</linearGradient>
<linearGradient id="paint4_linear_71_2452" x1="11.4897" y1="24.0161" x2="14.9095" y2="-7.62344" gradientUnits="userSpaceOnUse">
<stop stop-color="#75030B"/>
<stop offset="0.333333" stop-color="#930210"/>
<stop offset="0.666667" stop-color="#B4001E"/>
<stop offset="1" stop-color="#DA291C"/>
</linearGradient>
<linearGradient id="paint5_linear_71_2452" x1="11.4897" y1="24.0161" x2="14.9095" y2="-7.62344" gradientUnits="userSpaceOnUse">
<stop stop-color="#75030B"/>
<stop offset="0.333333" stop-color="#930210"/>
<stop offset="0.666667" stop-color="#B4001E"/>
<stop offset="1" stop-color="#DA291C"/>
</linearGradient>
<linearGradient id="paint6_linear_71_2452" x1="11.4897" y1="24.0161" x2="14.9095" y2="-7.62344" gradientUnits="userSpaceOnUse">
<stop stop-color="#75030B"/>
<stop offset="0.333333" stop-color="#930210"/>
<stop offset="0.666667" stop-color="#B4001E"/>
<stop offset="1" stop-color="#DA291C"/>
</linearGradient>
<linearGradient id="paint7_linear_71_2452" x1="11.4897" y1="24.0161" x2="14.9095" y2="-7.62344" gradientUnits="userSpaceOnUse">
<stop stop-color="#75030B"/>
<stop offset="0.333333" stop-color="#930210"/>
<stop offset="0.666667" stop-color="#B4001E"/>
<stop offset="1" stop-color="#DA291C"/>
</linearGradient>
</defs>
</svg>
