<svg width="158" height="46" viewBox="0 0 158 46" fill="none" xmlns="http://www.w3.org/2000/svg">
<path d="M8.33422 0.91564C5.10849 2.27272 1.56234 6.10664 0.442355 10.919C-0.976023 17.0165 4.92651 19.595 5.41064 18.7495C5.98045 17.7561 4.35298 17.4202 4.01797 14.2565C3.585 10.1704 5.47507 5.6046 7.85379 3.60126C8.29595 3.22906 8.27492 3.7471 8.27492 4.70532C8.27492 6.41884 8.18071 21.8012 8.18071 25.0115C8.18071 29.3555 8.0022 30.7272 7.68158 32.0827C7.35673 33.4563 6.83447 34.3845 7.23021 34.742C7.67235 35.1419 9.56013 34.1906 10.653 32.6576C11.9635 30.819 12.4222 28.6109 12.5046 26.213C12.6041 23.3223 12.5998 18.7355 12.6041 16.1192C12.6081 13.7197 12.6443 6.69328 12.5622 2.46928C12.5421 1.43322 9.68323 0.34624 8.33406 0.91438M122.88 21.2451C122.776 23.5034 122.278 25.2686 121.661 26.5136C120.466 28.924 117.986 29.6725 116.933 26.2075C116.359 24.3187 116.333 21.1642 116.745 18.5284C117.165 15.8433 118.338 13.8155 120.279 13.9983C122.194 14.1791 123.09 16.6593 122.88 21.2451ZM90.5959 35.2562C90.5699 39.0086 89.9823 42.2986 88.7223 43.2542C86.9352 44.6091 84.5331 43.5927 85.0305 40.8546C85.4706 38.4316 87.5519 35.9572 90.601 32.9337C90.601 32.9337 90.6072 33.6232 90.5959 35.2562ZM90.1078 21.2232C89.9985 23.2801 89.468 25.3464 88.8891 26.5139C87.6944 28.9243 85.1966 29.6778 84.1615 26.2077C83.4537 23.8368 83.6232 20.7682 83.9734 18.8348C84.4278 16.3262 85.5292 13.9989 87.5073 13.9989C89.4306 13.9989 90.3789 16.1194 90.1078 21.2232ZM71.4058 21.1917C71.2886 23.3702 70.8658 25.1912 70.1872 26.5139C68.9595 28.9077 66.5307 29.6669 65.4595 26.2077C64.6873 23.7134 64.9502 20.3123 65.2714 18.4751C65.7481 15.7487 66.9418 13.8157 68.8054 13.9989C70.7196 14.1868 71.6502 16.6593 71.4058 21.1917ZM157.113 23.7363C156.645 23.7363 156.431 24.221 156.254 25.0371C155.642 27.8744 154.998 28.515 154.167 28.515C153.239 28.515 152.405 27.1101 152.191 24.2977C152.023 22.0863 152.05 18.0149 152.265 13.965C152.309 13.1329 152.081 12.3096 149.86 11.4989C148.905 11.1501 147.516 10.6366 146.824 12.3144C144.87 17.0546 144.106 20.8179 143.926 22.3466C143.916 22.4258 143.82 22.4419 143.803 22.2571C143.688 21.0326 143.432 18.8076 143.4 14.1328C143.394 13.2207 143.202 12.4443 142.2 11.8087C141.55 11.3962 139.577 10.6668 138.866 11.5346C138.25 12.2443 137.537 14.1543 136.796 16.4184C136.194 18.2586 135.775 19.5035 135.775 19.5035C135.775 19.5035 135.783 14.5383 135.79 12.6549C135.793 11.9444 135.308 11.7076 135.162 11.6647C134.504 11.4727 133.207 11.152 132.657 11.152C131.978 11.152 131.811 11.5335 131.811 12.0894C131.811 12.1622 131.704 18.6266 131.704 23.1467C131.704 23.3431 131.704 23.5573 131.706 23.7849C131.33 25.8624 130.112 28.6826 128.788 28.6826C127.461 28.6826 126.835 27.5035 126.835 22.1148C126.835 18.9711 126.929 17.6042 126.975 15.3305C127.002 14.0209 127.054 13.0152 127.051 12.787C127.041 12.0871 125.837 11.7344 125.277 11.604C124.714 11.4726 124.225 11.4216 123.843 11.4435C123.302 11.4742 122.92 11.8306 122.92 12.3209C122.92 12.5838 122.923 13.0837 122.923 13.0837C122.226 11.9839 121.106 11.2185 120.361 10.9967C118.354 10.3976 116.26 10.9284 114.68 13.1501C113.425 14.9154 112.668 16.9147 112.37 19.7872C112.152 21.8873 112.223 24.0168 112.61 25.8178C112.143 27.85 111.274 28.6826 110.324 28.6826C108.943 28.6826 107.943 26.4183 108.059 22.5024C108.136 19.9268 108.648 18.1193 109.209 15.5043C109.448 14.3896 109.254 13.806 108.767 13.2466C108.32 12.7337 107.368 12.4716 106 12.7939C105.025 13.0237 103.632 13.2709 102.357 13.4607C102.357 13.4607 102.434 13.1522 102.497 12.6084C102.829 9.7561 99.7448 9.98752 98.7609 10.8985C98.1736 11.4424 97.7739 12.0839 97.6221 13.2373C97.3815 15.0676 98.8668 15.9309 98.8668 15.9309C98.3795 18.1729 97.185 21.1016 95.9517 23.2191C95.2912 24.3536 94.7859 25.1942 94.1335 26.0879C94.1311 25.7551 94.1293 25.4224 94.1282 25.0912C94.1132 20.3777 94.1756 16.668 94.2032 15.3309C94.23 14.0213 94.2823 13.0423 94.2794 12.8141C94.272 12.3022 93.9745 12.1089 93.3559 11.8641C92.809 11.6477 92.1622 11.4978 91.4913 11.4456C90.6446 11.3792 90.1345 11.8306 90.1477 12.3643C90.1503 12.4651 90.1503 13.0839 90.1503 13.0839C89.454 11.9841 88.334 11.2187 87.5888 10.9968C85.5818 10.398 83.4875 10.9289 81.9078 13.1503C80.6525 14.9156 79.8304 17.3927 79.5975 19.7656C79.3805 21.9771 79.4206 23.8565 79.7164 25.4397C79.3972 27.025 78.4797 28.6828 77.4422 28.6828C76.1158 28.6828 75.3611 27.5037 75.3611 22.115C75.3611 18.9713 75.455 17.6044 75.5012 15.3309C75.528 14.0213 75.5797 13.0154 75.5768 12.7874C75.567 12.0876 74.3629 11.7348 73.8027 11.6042C73.2164 11.468 72.7103 11.4178 72.3216 11.4466C71.8089 11.485 71.4483 11.9465 71.4483 12.2907V13.0839C70.752 11.9841 69.632 11.2187 68.8869 10.9968C66.8798 10.398 64.7972 10.9374 63.2058 13.1503C62.1681 14.5932 61.328 16.1929 60.8956 19.7341C60.7706 20.7574 60.7154 21.7157 60.7226 22.6114C60.3088 25.155 58.481 28.0866 56.986 28.0866C56.1111 28.0866 55.2779 26.3811 55.2779 22.7463C55.2779 17.9046 55.5761 11.011 55.6265 10.3466C55.6265 10.3466 57.5155 10.3143 57.8813 10.31C58.8235 10.2996 59.6769 10.322 60.9319 10.2575C61.5614 10.2253 62.1678 7.95476 61.5182 7.67376C61.2237 7.54658 59.1426 7.43514 58.3177 7.41754C57.624 7.40174 55.6928 7.2581 55.6928 7.2581C55.6928 7.2581 55.866 2.68244 55.9063 2.19908C55.9405 1.79622 55.4219 1.5888 55.1246 1.46294C54.4014 1.15554 53.7544 1.00836 52.9875 0.849459C51.928 0.629779 51.4474 0.84466 51.3535 1.74342C51.2121 3.10744 51.1388 7.10266 51.1388 7.10266C50.3613 7.10266 47.7054 6.9499 46.9277 6.9499C46.2051 6.9499 45.4252 10.0733 46.4242 10.1117C47.5736 10.1565 49.5767 10.1951 50.9046 10.2354C50.9046 10.2354 50.8455 17.2426 50.8455 19.4059C50.8455 19.6361 50.8475 19.8577 50.8479 20.0728C50.117 23.9014 47.5428 25.9695 47.5428 25.9695C48.0956 23.4366 46.9664 21.5346 44.9323 19.9245C44.1829 19.3312 42.7035 18.208 41.0482 16.9771C41.0482 16.9771 42.0069 16.0274 42.8571 14.1168C43.4595 12.7635 43.4855 11.2147 42.0069 10.8732C39.5637 10.3085 37.5492 12.1119 36.9484 14.0371C36.4828 15.5286 36.7311 16.6353 37.6431 17.7849C37.7097 17.8689 37.7819 17.9548 37.8564 18.0411C37.3049 19.1095 36.5473 20.5479 35.9056 21.6634C34.1246 24.7604 32.7791 27.21 31.7623 27.21C30.9495 27.21 30.9604 24.723 30.9604 22.3944C30.9604 20.387 31.1079 17.369 31.2257 14.2443C31.2647 13.2109 30.7506 12.6222 29.8887 12.089C29.365 11.765 28.2474 11.1281 27.6002 11.1281C26.6314 11.1281 23.8362 11.2606 21.1952 18.9388C20.8624 19.9066 20.2085 21.67 20.2085 21.67L20.2648 12.4366C20.2648 12.2201 20.15 12.0108 19.8874 11.8677C19.4423 11.6248 18.2537 11.1281 17.1967 11.1281C16.6931 11.1281 16.4418 11.3635 16.4418 11.8327L16.3496 26.2785C16.3496 27.3761 16.3781 28.6566 16.4861 29.2166C16.5937 29.7773 16.7679 30.2335 16.9838 30.5049C17.1993 30.7758 17.4486 30.9824 17.8597 31.0677C18.2423 31.1469 20.3372 31.4172 20.4461 30.6126C20.5765 29.6483 20.5815 28.6053 21.6816 24.7153C23.3941 18.6592 25.627 15.7043 26.6767 14.6549C26.8602 14.4714 27.0698 14.4605 27.0597 14.7607C27.0149 16.0885 26.8573 19.4062 26.7512 22.2249C26.4668 29.768 27.8322 31.1661 29.7833 31.1661C31.2759 31.1661 33.3801 29.6754 35.6357 25.902C37.0419 23.5505 38.4072 21.2448 39.3882 19.583C40.0718 20.219 40.839 20.9036 41.6056 21.6349C43.3872 23.3343 43.9721 24.9492 43.584 26.4811C43.2872 27.6523 42.1693 28.8592 40.1798 27.6861C39.5999 27.3439 39.3524 27.0795 38.7693 26.6936C38.4561 26.4863 37.9778 26.4244 37.691 26.6415C36.9461 27.206 36.5201 27.924 36.2769 28.8129C36.0402 29.6778 36.9021 30.135 37.7955 30.535C38.5648 30.8792 40.2183 31.1911 41.2727 31.2266C45.3813 31.3647 48.6725 29.2328 50.9636 23.7336C51.3738 28.4828 53.1192 31.1703 56.1518 31.1703C58.1793 31.1703 60.2121 28.5364 61.101 25.9452C61.3562 27.0014 61.734 27.9199 62.2218 28.6967C64.5586 32.4178 69.0918 31.6169 71.3689 28.457C72.0729 27.4807 72.1801 27.1298 72.1801 27.1298C72.5122 30.1135 74.9029 31.156 76.2717 31.156C77.8047 31.156 79.3876 30.4276 80.4969 27.9174C80.6269 28.1898 80.7688 28.45 80.9238 28.6966C83.2605 32.4177 87.7938 31.6168 90.0709 28.457C90.1783 28.3087 90.2714 28.1743 90.3529 28.0536L90.4197 30.0134C90.4197 30.0134 89.1207 31.2111 88.3232 31.9459C84.8137 35.182 82.1451 37.6373 81.9488 40.4965C81.6968 44.1422 84.6386 45.4971 86.8643 45.6747C89.2278 45.8632 91.2519 44.5509 92.496 42.7144C93.5902 41.098 94.3065 37.6189 94.2539 34.1828C94.233 32.8068 94.1985 31.0572 94.1714 29.1819C95.405 27.7421 96.7947 25.9225 98.0744 23.7925C99.4689 21.4713 100.963 18.3541 101.729 15.9281C101.729 15.9281 103.027 15.9393 104.413 15.8482C104.856 15.8191 104.984 15.91 104.902 16.2366C104.803 16.6312 103.151 23.0348 104.658 27.3006C105.69 30.2209 108.017 31.1604 109.396 31.1604C111.01 31.1604 112.555 29.935 113.382 28.1154C113.482 28.3183 113.586 28.5146 113.7 28.6958C116.037 32.4169 120.554 31.6112 122.847 28.4562C123.365 27.7443 123.658 27.1289 123.658 27.1289C124.15 30.2169 126.54 31.1708 127.908 31.1708C129.334 31.1708 130.687 30.5834 131.784 27.973C131.83 29.1224 131.902 30.0622 132.016 30.3585C132.086 30.5397 132.491 30.7672 132.786 30.877C134.09 31.3631 135.42 31.1332 135.912 31.0333C136.253 30.9639 136.519 30.6891 136.555 29.9793C136.651 28.1157 136.592 24.9845 137.154 22.6575C138.098 18.7521 138.978 17.2372 139.395 16.4872C139.629 16.067 139.893 15.9977 139.902 16.4424C139.922 17.3423 139.966 19.9847 140.332 23.5349C140.6 26.146 140.959 27.6893 141.235 28.1778C142.021 29.5746 142.993 29.6407 143.784 29.6407C144.287 29.6407 145.339 29.501 145.245 28.6121C145.199 28.1788 145.28 25.5012 146.21 21.6537C146.817 19.1411 147.83 16.8709 148.195 16.0409C148.33 15.7348 148.393 15.9761 148.391 16.0231C148.314 17.7534 148.141 23.4132 148.842 26.5086C149.793 30.7019 152.544 31.1711 153.502 31.1711C155.548 31.1711 157.221 29.6068 157.785 25.4909C157.921 24.5004 157.72 23.7355 157.117 23.7355" fill="url(#paint0_linear_71_2467)"/>
<defs>
<linearGradient id="paint0_linear_71_2467" x1="10.79" y1="34.4591" x2="17.9925" y2="-9.28976" gradientUnits="userSpaceOnUse">
<stop stop-color="#75030B"/>
<stop offset="0.333333" stop-color="#930210"/>
<stop offset="0.666667" stop-color="#B4001E"/>
<stop offset="1" stop-color="#DA291C"/>
</linearGradient>
</defs>
</svg>
