<svg width="199" height="32" viewBox="0 0 199 32" fill="none" xmlns="http://www.w3.org/2000/svg">
<path d="M29.7098 16.2936C29.7098 24.7385 23.0645 31.5849 14.8669 31.5849C6.66921 31.5849 0.0244141 24.7406 0.0244141 16.2936C0.0244141 7.84651 6.66972 1.00275 14.8669 1.00275C23.064 1.00275 29.7098 7.84857 29.7098 16.2936ZM45.9927 16.2936C45.9927 24.2435 42.6698 30.6876 38.5712 30.6876C34.4726 30.6876 31.1497 24.2414 31.1497 16.2936C31.1497 8.3457 34.4726 1.89954 38.5712 1.89954C42.6698 1.89954 45.9927 8.3457 45.9927 16.2936ZM52.6526 16.2936C52.6526 23.4163 51.4838 29.19 50.0424 29.19C48.6009 29.19 47.4321 23.4142 47.4321 16.2936C47.4321 9.17287 48.6009 3.39711 50.0429 3.39711C51.4848 3.39711 52.6526 9.17132 52.6526 16.2936ZM93.6166 2.3286L93.6579 2.31932V1.99185H85.2169L77.3791 20.8404L69.5413 1.99185H60.445V2.31932L60.4858 2.3286C62.0266 2.68443 62.8088 3.21508 62.8088 5.12881V27.5331C62.8088 29.4468 62.0236 29.9775 60.4828 30.3333L60.442 30.3426V30.6711H66.6135V30.3436L66.5727 30.3343C65.032 29.9785 64.2498 29.4478 64.2498 27.5341V6.42836L74.3183 30.6711H74.8893L85.2511 5.75228V28.0874C85.1191 29.5989 84.3439 30.0656 82.9488 30.3879L82.9075 30.3977V30.7226H93.6579V30.3977L93.6166 30.3879C92.22 30.0656 91.4262 29.5989 91.2942 28.0874L91.2871 5.12881H91.2942C91.2942 3.21508 92.0764 2.68443 93.6166 2.3286ZM98.5271 17.1702C98.703 13.1447 100.116 10.2393 102.487 10.1893C103.218 10.2017 103.831 10.4471 104.308 10.9195C105.321 11.9256 105.797 14.0281 105.724 17.1702H98.5271ZM98.4208 18.3048H111.021V18.2506C110.985 15.1724 110.114 12.7781 108.433 11.134C106.981 9.71332 104.83 8.93153 102.571 8.93153H102.521C101.349 8.93153 99.9106 9.22238 98.8875 9.74942C97.7227 10.3012 96.6956 11.1263 95.8408 12.2093C94.4649 13.9539 93.6312 16.3116 93.4286 18.9612C93.422 19.0406 93.4165 19.1201 93.411 19.1995C93.4054 19.2789 93.4019 19.3501 93.3984 19.4259C93.3805 19.7984 93.3744 20.1715 93.3803 20.5444C93.5168 26.5455 96.685 31.3415 102.312 31.3415C107.251 31.3415 110.128 27.647 110.845 22.6881L110.483 22.5577C109.223 25.2228 106.96 26.8379 104.384 26.6409C100.868 26.3717 98.1748 22.7242 98.4193 18.3058M125.267 26.4372C124.854 27.4402 123.991 27.992 122.836 27.992C121.68 27.992 120.624 27.1803 119.873 25.7055C119.067 24.1223 118.642 21.8842 118.642 19.233C118.642 13.7151 120.32 10.146 122.916 10.146C124.003 10.146 124.859 10.6978 125.267 11.6606V26.4372ZM133.626 30.3709C132.085 29.9981 131.303 29.4427 131.303 27.4315V0.672195L121.942 3.49407V3.83958L121.999 3.83494C123.29 3.72819 124.166 3.91074 124.675 4.39137C125.073 4.76783 125.267 5.3454 125.267 6.15813V9.82677C124.344 9.22393 123.247 8.9305 121.914 8.9305C119.213 8.9305 116.744 10.0944 114.963 12.2082C113.107 14.4113 112.126 17.4219 112.126 20.9136C112.125 27.1499 115.126 31.3415 119.591 31.3415C122.203 31.3415 124.305 29.8769 125.267 27.4067V30.7226H133.666V30.3792L133.626 30.3709ZM141.654 4.31144C141.654 2.36418 140.219 0.89549 138.315 0.89549C136.421 0.89549 134.938 2.39616 134.938 4.31144C134.938 6.22672 136.422 7.72739 138.315 7.72739C140.219 7.72739 141.654 6.25869 141.654 4.31144ZM143.863 30.3709C142.323 29.9981 141.54 29.4427 141.54 27.4315H141.534V8.99393L133.134 11.4615V11.7967L133.185 11.8014C135.002 11.9669 135.499 12.6074 135.499 14.7805V30.7226H143.906V30.3792L143.863 30.3709ZM165.387 30.3709C163.846 29.9981 163.064 29.4427 163.064 27.4315V8.99393L155.066 11.38V11.7163L155.114 11.7214C156.6 11.8813 157.029 12.5584 157.029 14.7413V26.396C156.534 27.399 155.604 27.9946 154.478 28.0348C152.652 28.0348 151.647 26.7729 151.647 24.4817V8.99444L143.247 11.462V11.7967L143.297 11.8014C145.115 11.9664 145.613 12.6069 145.613 14.7805V24.6442C145.608 25.3327 145.667 26.0202 145.788 26.6977L145.939 27.3706C146.65 29.978 148.513 31.3415 151.433 31.3415C153.905 31.3415 156.072 29.7753 157.027 27.3247V30.7283H165.427V30.3849L165.387 30.3709ZM198.018 30.7226V30.3787L197.977 30.3689C196.305 29.9744 195.654 29.2307 195.654 27.7167V15.175C195.654 11.2645 193.507 8.9305 189.912 8.9305C187.291 8.9305 185.081 10.4802 184.23 12.8941C183.554 10.3363 181.609 8.9305 178.733 8.9305C176.207 8.9305 174.228 10.2945 173.378 12.5986V8.99547L164.979 11.362V11.6992L165.029 11.7039C166.825 11.8668 167.344 12.5259 167.344 14.6433V30.7226H175.181V30.3792L175.14 30.3689C173.806 30.0481 173.376 29.4633 173.376 27.9626V13.5872C173.729 12.744 174.44 11.7451 175.846 11.7451C177.591 11.7451 178.476 12.9828 178.476 15.421V30.7226H186.316V30.3792L186.274 30.3689C184.941 30.0481 184.51 29.4633 184.51 27.9626V15.1735C184.514 14.6953 184.477 14.2177 184.399 13.746C184.773 12.8296 185.525 11.7451 186.989 11.7451C188.759 11.7451 189.619 12.9472 189.619 15.421V30.7226H198.018Z" fill="url(#paint0_linear_71_2464)"/>
<defs>
<linearGradient id="paint0_linear_71_2464" x1="13.2997" y1="23.8567" x2="16.0641" y2="-6.80672" gradientUnits="userSpaceOnUse">
<stop stop-color="#75030B"/>
<stop offset="0.333333" stop-color="#930210"/>
<stop offset="0.666667" stop-color="#B4001E"/>
<stop offset="1" stop-color="#DA291C"/>
</linearGradient>
</defs>
</svg>
