<svg width="178" height="60" viewBox="0 0 178 60" fill="none" xmlns="http://www.w3.org/2000/svg">
<path d="M22.3029 29.91C20.7222 29.91 19.4335 31.2284 19.4335 32.8454C19.4335 34.4625 20.7151 35.7663 22.3029 35.7809C23.8835 35.7809 25.1723 34.4625 25.1723 32.8454C25.1723 31.2284 23.8835 29.91 22.3029 29.91Z" fill="url(#paint0_linear_71_2461)"/>
<path d="M28.9957 43.1595C31.5446 43.2688 34.0366 42.4675 36.073 40.9015V41.018C36.3862 40.7048 36.3934 40.1804 36.0872 39.8599C35.781 39.5394 35.2684 39.5321 34.9551 39.8453C33.2107 41.12 31.1032 41.7464 28.9672 41.6299C26.8312 41.7319 24.7308 41.0763 23.0078 39.787C22.7159 39.5467 22.31 39.5467 22.0252 39.787C21.6977 40.0638 21.6479 40.5664 21.9184 40.9015C23.9547 42.4675 26.4467 43.2688 28.9957 43.1595Z" fill="url(#paint1_linear_71_2461)"/>
<path d="M32.691 32.9474C32.691 34.5644 33.9797 35.8828 35.5603 35.8828L35.539 35.9921H35.6814C37.262 35.9266 38.4938 34.5644 38.4297 32.9474C38.4297 31.3304 37.141 30.012 35.5603 30.012C33.9797 30.012 32.691 31.3304 32.691 32.9474Z" fill="url(#paint2_linear_71_2461)"/>
<path fill-rule="evenodd" clip-rule="evenodd" d="M57.6181 29.91C57.6181 46.0938 44.7938 59.2133 28.9743 59.2133C13.1548 59.2133 0.330566 46.0938 0.330566 29.91C0.330566 13.7262 13.1548 0.606674 28.9743 0.606674C44.7938 0.606674 57.6181 13.7262 57.6181 29.91ZM43.7412 25.7873C46.0552 25.7072 47.9918 27.55 48.0773 29.91C48.1058 31.5562 47.2015 33.0712 45.7633 33.8069C45.7918 34.2367 45.7918 34.6664 45.7633 35.0962C45.7633 41.6663 38.2873 46.9982 29.0669 46.9982C19.8465 46.9982 12.3705 41.659 12.3705 35.0962C12.342 34.6664 12.342 34.2367 12.3705 33.8069C11.9504 33.6175 11.5731 33.348 11.2455 33.0348C9.55809 31.4178 9.47977 28.7082 11.0604 26.9891C12.641 25.2628 15.2897 25.1827 16.97 26.7998C20.2737 24.5126 24.1541 23.2598 28.1413 23.1942L30.2559 13.0258V13.0112C30.3627 12.5159 30.8398 12.21 31.3168 12.3193L38.3371 13.7542C38.7857 12.953 39.5974 12.414 40.5016 12.3193C42.0751 12.1445 43.4849 13.3099 43.6558 14.9196C43.8266 16.5294 42.6874 17.9716 41.1139 18.1464C39.5404 18.3212 38.1306 17.1558 37.9598 15.5461L31.8295 14.2277L29.9711 23.369C33.9085 23.4564 37.739 24.702 41 26.9746C41.7405 26.2535 42.7159 25.8237 43.7412 25.7873Z" fill="url(#paint3_linear_71_2461)"/>
<path d="M160.139 20.9726C162.294 20.9726 164.041 19.1855 164.041 16.981C164.041 14.7765 162.294 12.9894 160.139 12.9894C157.984 12.9894 156.237 14.7765 156.237 16.981C156.237 19.1855 157.984 20.9726 160.139 20.9726Z" fill="url(#paint4_linear_71_2461)"/>
<path d="M104.845 33.9672C106.354 34.0764 107.665 32.911 107.778 31.3595C107.786 31.2721 107.786 31.1701 107.786 31.0754C107.764 30.5364 107.7 29.9901 107.593 29.4584C106.668 24.4033 102.446 20.6812 97.426 20.4773C91.7086 20.4773 86.9311 25.8528 86.9311 32.4521C86.9311 39.0514 91.6303 44.4342 97.4189 44.4342C100.488 44.558 103.464 43.2906 105.529 40.967C106.376 40.0201 106.305 38.5561 105.379 37.6893C105.308 37.6237 105.244 37.5654 105.173 37.5145C104.247 36.9244 103.044 37.0483 102.26 37.8204C100.972 39.1315 99.2416 39.8817 97.4189 39.94C94.2718 39.6851 91.7514 37.1648 91.4381 33.938H104.76L104.845 33.9672ZM97.3975 24.9861C100.167 25.1754 102.495 27.2004 103.115 29.9756H91.6944C92.3067 27.1931 94.6207 25.1682 97.3975 24.9861Z" fill="url(#paint5_linear_71_2461)"/>
<path d="M87.159 22.8009C87.159 21.6791 86.3473 20.7249 85.2579 20.5866C82.3174 20.084 79.327 21.1984 77.3974 23.5293V23.2379C77.3974 21.9924 76.4149 20.9872 75.1974 20.9872C73.9799 20.9872 72.9973 21.9924 72.9973 23.2379V41.6663C72.9688 42.8754 73.873 43.9025 75.055 44.0045C76.2582 44.0919 77.312 43.1595 77.3903 41.9285C77.3974 41.8411 77.3974 41.7537 77.3903 41.6663V32.2117C77.1981 28.4387 80.0247 25.2264 83.7129 25.0225C84.0404 25.0006 84.375 25.0079 84.7026 25.0443H85.144C86.2832 24.9424 87.159 23.9736 87.159 22.8009Z" fill="url(#paint6_linear_71_2461)"/>
<path d="M162.332 25.2191C162.332 23.9736 161.349 22.9684 160.132 22.9684C158.914 22.9684 157.932 23.9736 157.932 25.2191V41.659C157.932 42.9046 158.914 43.9098 160.132 43.9098C161.349 43.9098 162.332 42.9046 162.332 41.659V25.2191Z" fill="url(#paint7_linear_71_2461)"/>
<path d="M129.865 12.7272C129.865 11.4889 128.882 10.4837 127.672 10.4837C126.461 10.4837 125.479 11.4889 125.479 12.7272V22.779C123.998 21.2494 121.962 20.419 119.861 20.4773C114.144 20.4773 109.366 25.8528 109.366 32.4521C109.366 39.0514 114.073 44.4342 119.861 44.4342C121.997 44.4998 124.062 43.6621 125.578 42.1106C125.92 43.2979 127.138 43.9753 128.298 43.6257C129.174 43.3635 129.801 42.5768 129.858 41.6372L129.865 12.7272ZM119.847 39.9983C116.479 39.9983 113.738 36.6477 113.738 32.5031C113.738 28.3585 116.458 25.0079 119.847 25.0079C123.236 25.0079 125.956 28.3585 125.956 32.5031C125.956 36.6477 123.236 39.9619 119.861 39.9619L119.847 39.9983Z" fill="url(#paint8_linear_71_2461)"/>
<path d="M152.805 12.7272C152.805 11.4889 151.823 10.4837 150.612 10.4837C149.402 10.4837 148.419 11.4889 148.419 12.7272V22.779C146.938 21.2494 144.902 20.419 142.802 20.4773C137.084 20.4773 132.307 25.8528 132.307 32.4521C132.307 39.0514 137.013 44.4342 142.802 44.4342C144.938 44.4998 147.003 43.6621 148.519 42.1106C148.861 43.2979 150.078 43.9753 151.239 43.6257C152.115 43.3635 152.741 42.5768 152.798 41.6372L152.805 12.7272ZM142.795 39.9983C139.427 39.9983 136.686 36.6477 136.686 32.5031C136.686 28.3585 139.406 25.0079 142.795 25.0079C146.184 25.0079 148.904 28.3585 148.904 32.5031C148.904 36.6477 146.184 39.9619 142.809 39.9619L142.795 39.9983Z" fill="url(#paint9_linear_71_2461)"/>
<path d="M173.731 41.6517V24.9861H175.632C176.686 25.0516 177.583 24.2285 177.647 23.1578C177.647 23.1214 177.654 23.0777 177.654 23.034C177.747 21.9632 176.971 21.0163 175.931 20.9216C175.874 20.9143 175.81 20.9143 175.753 20.9143H173.738V17.8186C173.752 16.6168 172.855 15.6043 171.68 15.4951C170.477 15.4077 169.431 16.34 169.345 17.571C169.338 17.622 169.338 17.6803 169.338 17.7312V20.9653H167.43C166.376 20.8998 165.479 21.7228 165.415 22.7936C165.415 22.83 165.408 22.8737 165.408 22.9174C165.315 23.9882 166.091 24.9351 167.131 25.0298C167.188 25.037 167.252 25.037 167.309 25.037H169.21V41.659C169.21 42.8973 170.192 43.9025 171.403 43.9025C172.613 43.9826 173.646 43.0357 173.724 41.7974C173.731 41.7537 173.731 41.7027 173.731 41.6517Z" fill="url(#paint10_linear_71_2461)"/>
<defs>
<linearGradient id="paint0_linear_71_2461" x1="12.2205" y1="44.5617" x2="23.0118" y2="-11.9856" gradientUnits="userSpaceOnUse">
<stop stop-color="#75030B"/>
<stop offset="0.333333" stop-color="#930210"/>
<stop offset="0.666667" stop-color="#B4001E"/>
<stop offset="1" stop-color="#DA291C"/>
</linearGradient>
<linearGradient id="paint1_linear_71_2461" x1="12.2205" y1="44.5617" x2="23.0118" y2="-11.9856" gradientUnits="userSpaceOnUse">
<stop stop-color="#75030B"/>
<stop offset="0.333333" stop-color="#930210"/>
<stop offset="0.666667" stop-color="#B4001E"/>
<stop offset="1" stop-color="#DA291C"/>
</linearGradient>
<linearGradient id="paint2_linear_71_2461" x1="12.2205" y1="44.5617" x2="23.0118" y2="-11.9856" gradientUnits="userSpaceOnUse">
<stop stop-color="#75030B"/>
<stop offset="0.333333" stop-color="#930210"/>
<stop offset="0.666667" stop-color="#B4001E"/>
<stop offset="1" stop-color="#DA291C"/>
</linearGradient>
<linearGradient id="paint3_linear_71_2461" x1="12.2205" y1="44.5617" x2="23.0118" y2="-11.9856" gradientUnits="userSpaceOnUse">
<stop stop-color="#75030B"/>
<stop offset="0.333333" stop-color="#930210"/>
<stop offset="0.666667" stop-color="#B4001E"/>
<stop offset="1" stop-color="#DA291C"/>
</linearGradient>
<linearGradient id="paint4_linear_71_2461" x1="12.2205" y1="44.5617" x2="23.0118" y2="-11.9856" gradientUnits="userSpaceOnUse">
<stop stop-color="#75030B"/>
<stop offset="0.333333" stop-color="#930210"/>
<stop offset="0.666667" stop-color="#B4001E"/>
<stop offset="1" stop-color="#DA291C"/>
</linearGradient>
<linearGradient id="paint5_linear_71_2461" x1="12.2205" y1="44.5617" x2="23.0118" y2="-11.9856" gradientUnits="userSpaceOnUse">
<stop stop-color="#75030B"/>
<stop offset="0.333333" stop-color="#930210"/>
<stop offset="0.666667" stop-color="#B4001E"/>
<stop offset="1" stop-color="#DA291C"/>
</linearGradient>
<linearGradient id="paint6_linear_71_2461" x1="12.2205" y1="44.5617" x2="23.0118" y2="-11.9856" gradientUnits="userSpaceOnUse">
<stop stop-color="#75030B"/>
<stop offset="0.333333" stop-color="#930210"/>
<stop offset="0.666667" stop-color="#B4001E"/>
<stop offset="1" stop-color="#DA291C"/>
</linearGradient>
<linearGradient id="paint7_linear_71_2461" x1="12.2205" y1="44.5617" x2="23.0118" y2="-11.9856" gradientUnits="userSpaceOnUse">
<stop stop-color="#75030B"/>
<stop offset="0.333333" stop-color="#930210"/>
<stop offset="0.666667" stop-color="#B4001E"/>
<stop offset="1" stop-color="#DA291C"/>
</linearGradient>
<linearGradient id="paint8_linear_71_2461" x1="12.2205" y1="44.5617" x2="23.0118" y2="-11.9856" gradientUnits="userSpaceOnUse">
<stop stop-color="#75030B"/>
<stop offset="0.333333" stop-color="#930210"/>
<stop offset="0.666667" stop-color="#B4001E"/>
<stop offset="1" stop-color="#DA291C"/>
</linearGradient>
<linearGradient id="paint9_linear_71_2461" x1="12.2205" y1="44.5617" x2="23.0118" y2="-11.9856" gradientUnits="userSpaceOnUse">
<stop stop-color="#75030B"/>
<stop offset="0.333333" stop-color="#930210"/>
<stop offset="0.666667" stop-color="#B4001E"/>
<stop offset="1" stop-color="#DA291C"/>
</linearGradient>
<linearGradient id="paint10_linear_71_2461" x1="12.2205" y1="44.5617" x2="23.0118" y2="-11.9856" gradientUnits="userSpaceOnUse">
<stop stop-color="#75030B"/>
<stop offset="0.333333" stop-color="#930210"/>
<stop offset="0.666667" stop-color="#B4001E"/>
<stop offset="1" stop-color="#DA291C"/>
</linearGradient>
</defs>
</svg>
