<svg width="188" height="43" viewBox="0 0 188 43" fill="none" xmlns="http://www.w3.org/2000/svg">
<path fill-rule="evenodd" clip-rule="evenodd" d="M53.1399 1.28449C55.7073 1.99239 57.7251 4.07059 58.4123 6.7151C59.6542 11.5035 59.6592 21.5001 59.6592 21.5001C59.6592 21.5001 59.6592 31.4967 58.4123 36.2852C57.7251 38.9297 55.7073 41.0079 53.1399 41.7157C48.4912 43.0001 29.8415 43.0001 29.8415 43.0001C29.8415 43.0001 11.1921 43.0001 6.54325 41.7157C3.97584 41.0079 1.95821 38.9297 1.27095 36.2852C0.0240479 31.4967 0.0240479 21.5001 0.0240479 21.5001C0.0240479 21.5001 0.0240479 11.5035 1.27095 6.7151C1.95821 4.07059 3.97584 1.99239 6.54325 1.28449C11.1921 0.000152588 29.8415 0.000152588 29.8415 0.000152588C29.8415 0.000152588 48.4912 0.000152588 53.1399 1.28449ZM39.3656 21.5008L23.8726 30.7136V12.2879L39.3656 21.5008Z" fill="url(#paint0_linear_71_2455)"/>
<path d="M72.2508 27.9577L65.5548 3.04969H71.3966L73.7432 14.3407C74.3421 17.1217 74.7789 19.4932 75.0637 21.4551H75.2354C75.4319 20.0494 75.8737 17.6931 76.5561 14.3812L78.986 3.04969H84.8278L78.0483 27.9577V39.9061H72.246V27.9577H72.2508Z" fill="url(#paint1_linear_71_2455)"/>
<path d="M86.5851 39.1164C85.407 38.2972 84.5675 37.0229 84.0667 35.2937C83.571 33.5644 83.3207 31.2689 83.3207 28.3967V24.488C83.3207 21.5907 83.6054 19.2598 84.1748 17.5052C84.7443 15.7506 85.6328 14.4663 86.8404 13.6623C88.0481 12.8583 89.6336 12.4538 91.5974 12.4538C93.5315 12.4538 95.0778 12.8634 96.2461 13.6825C97.4095 14.5017 98.2637 15.786 98.8037 17.5254C99.3437 19.2699 99.6138 21.5907 99.6138 24.488V28.3967C99.6138 31.2689 99.3487 33.5746 98.8235 35.3139C98.2981 37.0584 97.444 38.3327 96.2657 39.1366C95.0876 39.9407 93.4872 40.3451 91.4696 40.3451C89.3882 40.35 87.7634 39.9355 86.5851 39.1164ZM93.1927 34.8994C93.5167 34.0196 93.6837 32.5886 93.6837 30.5964V22.2077C93.6837 20.2761 93.5217 18.8603 93.1927 17.9704C92.8638 17.0754 92.2895 16.6304 91.4646 16.6304C90.6696 16.6304 90.1049 17.0754 89.781 17.9704C89.452 18.8654 89.29 20.2761 89.29 22.2077V30.5964C89.29 32.5886 89.447 34.0245 89.7614 34.8994C90.0755 35.7792 90.6399 36.219 91.4646 36.219C92.2895 36.219 92.8638 35.7792 93.1927 34.8994Z" fill="url(#paint2_linear_71_2455)"/>
<path d="M118.617 39.9112H114.012L113.501 36.6144H113.374C112.122 39.1022 110.247 40.346 107.743 40.346C106.01 40.346 104.729 39.7594 103.904 38.5916C103.08 37.4183 102.667 35.588 102.667 33.1003V12.9806H108.553V32.7462C108.553 33.9497 108.681 34.8041 108.936 35.315C109.191 35.8256 109.618 36.0834 110.217 36.0834C110.728 36.0834 111.219 35.9217 111.69 35.5981C112.161 35.2743 112.505 34.8648 112.736 34.3694V12.9756H118.617V39.9112Z" fill="url(#paint3_linear_71_2455)"/>
<path d="M134.606 7.92829H128.764V39.9102H123.006V7.92829H117.164V3.05388H134.606V7.92829Z" fill="url(#paint4_linear_71_2455)"/>
<path d="M148.802 39.9112H144.198L143.687 36.6144H143.56C142.308 39.1022 140.433 40.346 137.929 40.346C136.196 40.346 134.915 39.7594 134.09 38.5916C133.265 37.4183 132.853 35.588 132.853 33.1003V12.9806H138.739V32.7462C138.739 33.9497 138.866 34.8041 139.122 35.315C139.377 35.8256 139.804 36.0834 140.403 36.0834C140.913 36.0834 141.404 35.9217 141.876 35.5981C142.347 35.2743 142.691 34.8648 142.921 34.3694V12.9756H148.802V39.9112Z" fill="url(#paint5_linear_71_2455)"/>
<path d="M168.282 17.2832C167.923 15.5842 167.349 14.3555 166.554 13.592C165.758 12.8285 164.664 12.4492 163.27 12.4492C162.19 12.4492 161.178 12.7627 160.241 13.3948C159.303 14.0268 158.576 14.851 158.066 15.8775H158.022V1.68914H152.352V39.9056H157.212L157.811 37.3573H157.938C158.395 38.2673 159.077 38.9803 159.985 39.5113C160.894 40.0372 161.905 40.3002 163.014 40.3002C165.002 40.3002 166.47 39.3546 167.408 37.4684C168.346 35.5773 168.817 32.6294 168.817 28.6147V24.3521C168.817 21.3435 168.635 18.9821 168.282 17.2832ZM162.887 28.2707C162.887 30.2326 162.808 31.7698 162.651 32.8823C162.494 33.9947 162.234 34.7887 161.861 35.2537C161.492 35.7239 160.992 35.9565 160.368 35.9565C159.882 35.9565 159.436 35.8402 159.023 35.6026C158.611 35.37 158.277 35.0161 158.022 34.5509V19.2653C158.218 18.5321 158.562 17.9355 159.048 17.4652C159.529 16.995 160.059 16.7624 160.623 16.7624C161.223 16.7624 161.684 17.0051 162.008 17.4854C162.337 17.9709 162.563 18.7799 162.69 19.9226C162.818 21.0654 162.882 22.6885 162.882 24.797V28.2707H162.887Z" fill="url(#paint6_linear_71_2455)"/>
<path d="M177.167 29.823C177.167 31.5523 177.216 32.8468 177.314 33.7115C177.412 34.576 177.618 35.2032 177.933 35.6026C178.247 35.997 178.728 36.1941 179.381 36.1941C180.26 36.1941 180.868 35.8402 181.192 35.1374C181.521 34.4346 181.698 33.2615 181.727 31.6232L186.803 31.9315C186.833 32.1642 186.847 32.4877 186.847 32.8973C186.847 35.3851 186.185 37.2459 184.864 38.4746C183.544 39.7033 181.673 40.3202 179.258 40.3202C176.357 40.3202 174.324 39.3847 173.161 37.5088C171.993 35.633 171.413 32.7356 171.413 28.8117V24.1092C171.413 20.0692 172.017 17.1162 173.225 15.2555C174.433 13.3947 176.499 12.4643 179.43 12.4643C181.447 12.4643 182.999 12.8435 184.079 13.6071C185.159 14.3706 185.92 15.5538 186.361 17.1668C186.803 18.7798 187.024 21.0046 187.024 23.8463V28.4578H177.167V29.823ZM177.913 17.1314C177.613 17.5106 177.417 18.1326 177.314 18.9972C177.216 19.8619 177.167 21.1715 177.167 22.9312V24.8628H181.472V22.9312C181.472 21.2018 181.413 19.8922 181.3 18.9972C181.187 18.1022 180.981 17.4752 180.682 17.1061C180.382 16.7421 179.921 16.555 179.297 16.555C178.669 16.56 178.208 16.7522 177.913 17.1314Z" fill="url(#paint7_linear_71_2455)"/>
<defs>
<linearGradient id="paint0_linear_71_2455" x1="12.5623" y1="32.2501" x2="18.1728" y2="-10.0048" gradientUnits="userSpaceOnUse">
<stop stop-color="#75030B"/>
<stop offset="0.333333" stop-color="#930210"/>
<stop offset="0.666667" stop-color="#B4001E"/>
<stop offset="1" stop-color="#DA291C"/>
</linearGradient>
<linearGradient id="paint1_linear_71_2455" x1="12.5623" y1="32.2501" x2="18.1728" y2="-10.0048" gradientUnits="userSpaceOnUse">
<stop stop-color="#75030B"/>
<stop offset="0.333333" stop-color="#930210"/>
<stop offset="0.666667" stop-color="#B4001E"/>
<stop offset="1" stop-color="#DA291C"/>
</linearGradient>
<linearGradient id="paint2_linear_71_2455" x1="12.5623" y1="32.2501" x2="18.1728" y2="-10.0048" gradientUnits="userSpaceOnUse">
<stop stop-color="#75030B"/>
<stop offset="0.333333" stop-color="#930210"/>
<stop offset="0.666667" stop-color="#B4001E"/>
<stop offset="1" stop-color="#DA291C"/>
</linearGradient>
<linearGradient id="paint3_linear_71_2455" x1="12.5623" y1="32.2501" x2="18.1728" y2="-10.0048" gradientUnits="userSpaceOnUse">
<stop stop-color="#75030B"/>
<stop offset="0.333333" stop-color="#930210"/>
<stop offset="0.666667" stop-color="#B4001E"/>
<stop offset="1" stop-color="#DA291C"/>
</linearGradient>
<linearGradient id="paint4_linear_71_2455" x1="12.5623" y1="32.2501" x2="18.1728" y2="-10.0048" gradientUnits="userSpaceOnUse">
<stop stop-color="#75030B"/>
<stop offset="0.333333" stop-color="#930210"/>
<stop offset="0.666667" stop-color="#B4001E"/>
<stop offset="1" stop-color="#DA291C"/>
</linearGradient>
<linearGradient id="paint5_linear_71_2455" x1="12.5623" y1="32.2501" x2="18.1728" y2="-10.0048" gradientUnits="userSpaceOnUse">
<stop stop-color="#75030B"/>
<stop offset="0.333333" stop-color="#930210"/>
<stop offset="0.666667" stop-color="#B4001E"/>
<stop offset="1" stop-color="#DA291C"/>
</linearGradient>
<linearGradient id="paint6_linear_71_2455" x1="12.5623" y1="32.2501" x2="18.1728" y2="-10.0048" gradientUnits="userSpaceOnUse">
<stop stop-color="#75030B"/>
<stop offset="0.333333" stop-color="#930210"/>
<stop offset="0.666667" stop-color="#B4001E"/>
<stop offset="1" stop-color="#DA291C"/>
</linearGradient>
<linearGradient id="paint7_linear_71_2455" x1="12.5623" y1="32.2501" x2="18.1728" y2="-10.0048" gradientUnits="userSpaceOnUse">
<stop stop-color="#75030B"/>
<stop offset="0.333333" stop-color="#930210"/>
<stop offset="0.666667" stop-color="#B4001E"/>
<stop offset="1" stop-color="#DA291C"/>
</linearGradient>
</defs>
</svg>
