<svg width="39" height="39" viewBox="0 0 39 39" fill="" xmlns="http://www.w3.org/2000/svg">
<g clip-path="url(#clip0_459_3026)">
<path d="M16.5994 22.4353C16.5994 21.4359 17.0795 19.8467 20.8089 19.8467C21.9521 19.8467 22.6565 19.9296 23.6023 20.1416C23.3 24.0562 21.3842 24.573 19.5219 24.573C18.503 24.573 16.5994 24.0416 16.5994 22.4353Z" fill="url(#paint0_linear_459_3026)"/>
<path d="M6.31312 39H32.6869C34.3612 39 35.967 38.3349 37.1509 37.1509C38.3349 35.967 39 34.3612 39 32.6869V6.31312C39 4.63878 38.3349 3.03301 37.1509 1.84907C35.967 0.665131 34.3612 0 32.6869 0L6.31312 0C4.63878 0 3.03301 0.665131 1.84907 1.84907C0.665131 3.03301 0 4.63878 0 6.31312L0 32.6869C0 34.3612 0.665131 35.967 1.84907 37.1509C3.03301 38.3349 4.63878 39 6.31312 39ZM14.2984 14.4056C15.6804 12.4312 17.5037 11.661 20.0265 11.661C21.8059 11.661 23.3196 12.2606 24.4018 13.3941C25.4816 14.5299 26.0983 16.1533 26.2397 18.2276C26.8377 18.4779 27.3886 18.7728 27.8923 19.1124C29.9203 20.475 31.0367 22.5128 31.0367 24.8479C31.0367 29.8131 26.9661 34.125 19.5999 34.125C13.2746 34.125 6.70312 30.4444 6.70312 19.4902C6.70312 8.59463 13.0674 4.875 19.5804 4.875C22.5883 4.875 29.6449 5.31862 32.2969 14.0814L29.8106 14.7249C27.7582 8.48494 23.4561 7.49044 19.5146 7.49044C12.9943 7.49044 9.30881 11.4587 9.30881 19.9046C9.30881 27.4779 13.4282 31.4998 19.5999 31.4998C24.6772 31.4998 28.4627 28.8624 28.4627 24.999C28.4627 22.3689 26.2543 21.1112 26.1397 21.1112C25.7083 23.3659 24.5529 27.1611 19.4781 27.1611C16.5214 27.1611 13.9693 25.1184 13.9693 22.4421C13.9693 18.6201 17.5963 17.2356 20.4604 17.2356C21.5329 17.2356 22.8247 17.3087 23.4999 17.4452C23.4999 16.2801 22.5152 14.2862 20.0241 14.2862C17.8035 14.2862 17.1966 14.9882 16.4897 15.8072L16.4312 15.873C15.9388 15.5439 14.2984 14.4056 14.2984 14.4056Z" fill="url(#paint1_linear_459_3026)"/>
</g>
<defs>
<linearGradient id="paint0_linear_459_3026" x1="17.0666" y1="23.3914" x2="18.6653" y2="19.2879" gradientUnits="userSpaceOnUse">
<stop stop-color="#75030B"/>
<stop offset="0.333333" stop-color="#930210"/>
<stop offset="0.666667" stop-color="#B4001E"/>
<stop offset="1" stop-color="#DA291C"/>
</linearGradient>
<linearGradient id="paint1_linear_459_3026" x1="2.61492" y1="29.25" x2="19.5036" y2="0.00204401" gradientUnits="userSpaceOnUse">
<stop stop-color="#75030B"/>
<stop offset="0.333333" stop-color="#930210"/>
<stop offset="0.666667" stop-color="#B4001E"/>
<stop offset="1" stop-color="#DA291C"/>
</linearGradient>
<clipPath id="clip0_459_3026">
<rect width="39" height="39" fill="white"/>
</clipPath>
</defs>
</svg>
