<svg width="29" height="30" viewBox="0 0 29 30" fill="none" xmlns="http://www.w3.org/2000/svg">
<g clip-path="url(#clip0_459_3169)">
<path d="M12.3431 17.1827C12.3431 16.4396 12.7002 15.2578 15.4733 15.2578C16.3234 15.2578 16.8472 15.3194 17.5504 15.4771C17.3257 18.388 15.9011 18.7723 14.5163 18.7723C13.7587 18.7723 12.3431 18.3771 12.3431 17.1827Z" fill="#949494"/>
<path d="M4.69438 29.5H24.3056C25.5506 29.5 26.7447 29.0054 27.625 28.125C28.5054 27.2447 29 26.0506 29 24.8056V5.19438C29 3.94935 28.5054 2.75532 27.625 1.87495C26.7447 0.994585 25.5506 0.5 24.3056 0.5L4.69438 0.5C3.44935 0.5 2.25532 0.994585 1.37495 1.87495C0.494585 2.75532 0 3.94935 0 5.19438L0 24.8056C0 26.0506 0.494585 27.2447 1.37495 28.125C2.25532 29.0054 3.44935 29.5 4.69438 29.5ZM10.6321 11.2119C11.6598 9.74375 13.0156 9.171 14.8915 9.171C16.2146 9.171 17.3402 9.61687 18.1449 10.4597C18.9479 11.3043 19.4064 12.5114 19.5116 14.0539C19.9562 14.24 20.3659 14.4593 20.7404 14.7118C22.2484 15.725 23.0786 17.2402 23.0786 18.9766C23.0786 22.6687 20.0517 25.875 14.5743 25.875C9.87088 25.875 4.98438 23.1381 4.98438 14.9927C4.98438 6.89087 9.71681 4.125 14.5598 4.125C16.7964 4.125 22.0436 4.45487 24.0156 10.9708L22.1669 11.4493C20.6407 6.80931 17.4417 6.06981 14.5109 6.06981C9.66244 6.06981 6.92194 9.02056 6.92194 15.3009C6.92194 20.9323 9.98506 23.9229 14.5743 23.9229C18.3498 23.9229 21.1646 21.9618 21.1646 19.089C21.1646 17.1333 19.5224 16.1981 19.4373 16.1981C19.1164 17.8746 18.2573 20.6967 14.4837 20.6967C12.2851 20.6967 10.3874 19.1778 10.3874 17.1877C10.3874 14.3457 13.0844 13.3162 15.2141 13.3162C16.0116 13.3162 16.9722 13.3706 17.4743 13.4721C17.4743 12.6057 16.7421 11.1231 14.8897 11.1231C13.2385 11.1231 12.7872 11.6451 12.2616 12.2541L12.2181 12.303C11.8519 12.0583 10.6321 11.2119 10.6321 11.2119Z" fill="#949494"/>
</g>
<defs>
<clipPath id="clip0_459_3169">
<rect width="29" height="29" fill="white" transform="translate(0 0.5)"/>
</clipPath>
</defs>
</svg>
