<svg width="38" height="44" viewBox="0 0 38 44" fill="none" xmlns="http://www.w3.org/2000/svg">
<g clip-path="url(#clip0_75_2642)">
<path d="M38 4.631C37.9885 3.42497 37.5037 2.2721 36.6508 1.42236C35.7978 0.572626 34.6455 0.0945057 33.4437 0.0916667L4.53442 0C3.33379 0.000238538 2.18224 0.478215 1.33224 1.32914C0.482235 2.18006 0.00314363 3.33449 0 4.53933V34.4667C0 36.9692 2.03519 38.8667 4.53442 38.8667H29.2308L28.0433 34.8333L38 44V4.631ZM25.2709 28.7659C25.2709 28.7659 24.4744 27.8135 23.8094 26.9949C26.7087 26.1754 27.8149 24.3833 27.8149 24.3833C27.0186 24.9134 26.1652 25.3516 25.2709 25.6896C24.2384 26.1198 23.1633 26.4391 22.0638 26.642C20.1692 26.9912 18.2264 26.9838 16.3345 26.62C15.2217 26.4126 14.1325 26.0932 13.0835 25.6667C12.5286 25.4534 11.989 25.2019 11.4685 24.9141C11.4018 24.8701 11.3361 24.8481 11.2694 24.8032C11.2246 24.7812 11.2027 24.7592 11.178 24.7592C10.7798 24.5373 10.5587 24.3824 10.5587 24.3824C10.5587 24.3824 11.6201 26.1323 14.43 26.9729C13.7659 27.8144 12.9474 28.7888 12.9474 28.7888C8.05947 28.6339 6.20149 25.4457 6.20149 25.4457C6.20149 18.3819 9.38673 12.6473 9.38673 12.6473C12.572 10.2777 15.58 10.3446 15.58 10.3446L15.8011 10.6104C11.8193 11.7397 10.0061 13.4887 10.0061 13.4887C10.0061 13.4887 10.492 13.2229 11.3105 12.8682C13.6773 11.8278 15.5581 11.5619 16.3345 11.4739C16.4584 11.4481 16.5844 11.433 16.7109 11.429C18.1931 11.236 19.6929 11.2212 21.1786 11.385C23.5114 11.6539 25.7714 12.368 27.8368 13.4887C27.8368 13.4887 26.0894 11.825 22.3287 10.6975L22.6383 10.3437C22.6383 10.3437 25.6683 10.2768 28.8325 12.65C28.8325 12.65 32.0177 18.3847 32.0177 25.4485C32.0177 25.4228 30.1588 28.611 25.2709 28.7659Z" fill="url(#paint0_linear_75_2642)"/>
<path d="M14.9854 18.5167C13.7248 18.5167 12.7291 19.6021 12.7291 20.9523C12.7291 22.3026 13.7467 23.3879 14.9854 23.3879C16.246 23.3879 17.2416 22.3035 17.2416 20.9523C17.2645 19.5993 16.246 18.5167 14.9854 18.5167ZM23.0585 18.5167C21.798 18.5167 20.8023 19.6021 20.8023 20.9523C20.8023 22.3026 21.8199 23.3879 23.0585 23.3879C24.32 23.3879 25.3148 22.3035 25.3148 20.9523C25.3148 19.6011 24.2981 18.5167 23.0585 18.5167Z" fill="url(#paint1_linear_75_2642)"/>
</g>
<defs>
<linearGradient id="paint0_linear_75_2642" x1="2.54787" y1="33" x2="22.8782" y2="2.59292" gradientUnits="userSpaceOnUse">
<stop stop-color="#75030B"/>
<stop offset="0.333333" stop-color="#930210"/>
<stop offset="0.666667" stop-color="#B4001E"/>
<stop offset="1" stop-color="#DA291C"/>
</linearGradient>
<linearGradient id="paint1_linear_75_2642" x1="13.573" y1="22.1701" x2="14.6098" y2="17.5307" gradientUnits="userSpaceOnUse">
<stop stop-color="#75030B"/>
<stop offset="0.333333" stop-color="#930210"/>
<stop offset="0.666667" stop-color="#B4001E"/>
<stop offset="1" stop-color="#DA291C"/>
</linearGradient>
<clipPath id="clip0_75_2642">
<rect width="38" height="44" fill="white"/>
</clipPath>
</defs>
</svg>
