<svg width="29" height="34" viewBox="0 0 29 34" fill="none" xmlns="http://www.w3.org/2000/svg">
<path d="M29 3.53418C28.9912 2.61379 28.6212 1.73397 27.9703 1.08549C27.3194 0.437004 26.44 0.0721228 25.5228 0.0699561L3.46048 0C2.54421 0.000182042 1.66539 0.364954 1.01671 1.01434C0.368021 1.66373 0.00239908 2.54474 0 3.46423V26.3035C0 28.2133 1.55317 29.6614 3.46048 29.6614H22.3077L21.4014 26.5833L29 33.5789V3.53418ZM19.2857 21.9529C19.2857 21.9529 18.6778 21.2261 18.1703 20.6014C20.383 19.976 21.2272 18.6083 21.2272 18.6083C20.6195 19.0129 19.9682 19.3473 19.2857 19.6052C18.4977 19.9335 17.6773 20.1772 16.8381 20.3321C15.3923 20.5986 13.9096 20.5929 12.4658 20.3153C11.6166 20.157 10.7853 19.9132 9.98478 19.5877C9.56128 19.4249 9.14947 19.233 8.75228 19.0134C8.70139 18.9798 8.6512 18.963 8.60031 18.9287C8.56615 18.9119 8.54942 18.8952 8.5306 18.8952C8.22666 18.7259 8.05796 18.6076 8.05796 18.6076C8.05796 18.6076 8.868 19.9431 11.0123 20.5846C10.5055 21.2268 9.88091 21.9704 9.88091 21.9704C6.15065 21.8522 4.73272 19.4191 4.73272 19.4191C4.73272 14.0283 7.16356 9.65185 7.16356 9.65185C9.5944 7.84348 11.89 7.89455 11.89 7.89455L12.0587 8.09742C9.01998 8.95928 7.6362 10.294 7.6362 10.294C7.6362 10.294 8.00707 10.0912 8.63168 9.82044C10.4379 9.02644 11.8733 8.82357 12.4658 8.75641C12.5604 8.73669 12.6565 8.72522 12.753 8.72213C13.8842 8.57484 15.0288 8.56357 16.1626 8.68855C17.9429 8.89377 19.6676 9.43872 21.2439 10.294C21.2439 10.294 19.9103 9.02434 17.0403 8.16388L17.2766 7.89385C17.2766 7.89385 19.5889 7.84278 22.0037 9.65395C22.0037 9.65395 24.4346 14.0304 24.4346 19.4212C24.4346 19.4016 23.016 21.8347 19.2857 21.9529Z" fill="url(#paint0_linear_2228_2967)"/>
<path d="M11.4362 14.1309C10.4741 14.1309 9.71429 14.9591 9.71429 15.9896C9.71429 17.02 10.4909 17.8483 11.4362 17.8483C12.3982 17.8483 13.158 17.0207 13.158 15.9896C13.1755 14.957 12.3982 14.1309 11.4362 14.1309ZM17.5973 14.1309C16.6353 14.1309 15.8754 14.9591 15.8754 15.9896C15.8754 17.02 16.652 17.8483 17.5973 17.8483C18.56 17.8483 19.3191 17.0207 19.3191 15.9896C19.3191 14.9584 18.5433 14.1309 17.5973 14.1309Z" fill="url(#paint1_linear_2228_2967)"/>
<defs>
<linearGradient id="paint0_linear_2228_2967" x1="14.5" y1="0" x2="14.5" y2="33.5789" gradientUnits="userSpaceOnUse">
<stop stop-color="#949494"/>
<stop offset="1" stop-color="#ABABAB"/>
</linearGradient>
<linearGradient id="paint1_linear_2228_2967" x1="14.5167" y1="14.1309" x2="14.5167" y2="17.8483" gradientUnits="userSpaceOnUse">
<stop stop-color="#949494"/>
<stop offset="1" stop-color="#ABABAB"/>
</linearGradient>
</defs>
</svg>
