<svg width="30" height="29" viewBox="0 0 30 29" fill="#949494" xmlns="http://www.w3.org/2000/svg">
<g clip-path="url(#clip0_2011_711)">
<path fill-rule="evenodd" clip-rule="evenodd" d="M28.344 0H1.656C0.741 0 0 0.7163 0 1.6008V27.3992C0 28.2837 0.741 29 1.656 29H16.023V17.7698H12.114V13.3937H16.023V10.1645C16.023 6.4177 18.39 4.379 21.8475 4.379C23.5035 4.379 24.9255 4.4979 25.341 4.55155V8.46655H22.944C21.063 8.46655 20.7 9.33075 20.7 10.5981V13.3922H25.1835L24.5985 17.7683H20.6985V29H28.344C29.259 29 30 28.2837 30 27.3992V1.6008C30 0.7163 29.259 0 28.344 0Z"/>
</g>
<defs>
<clipPath id="clip0_2011_711">
<rect width="30" height="29" fill="white"/>
</clipPath>
</defs>
</svg>
