<svg width="39" height="39" viewBox="0 0 39 39" fill="none" xmlns="http://www.w3.org/2000/svg">
<g clip-path="url(#clip0_75_2636)">
<path d="M21.5046 0C23.6983 0.00584986 24.8117 0.0175496 25.773 0.044849L26.1512 0.0584986C26.588 0.0740982 27.0189 0.0935977 27.5396 0.116997C29.6143 0.214495 31.0299 0.542087 32.272 1.02373C33.5589 1.51901 34.6431 2.1898 35.7272 3.27202C36.7187 4.2468 37.4859 5.42592 37.9754 6.72734C38.4571 7.96946 38.7846 9.38513 38.8821 11.4618C38.9055 11.9805 38.925 12.4115 38.9406 12.8502L38.9523 13.2285C38.9816 14.1879 38.9933 15.3013 38.9972 17.495L38.9991 18.9497V21.5041C39.0039 22.9264 38.989 24.3487 38.9543 25.7706L38.9426 26.1489C38.927 26.5876 38.9075 27.0186 38.8841 27.5373C38.7866 29.614 38.4551 31.0277 37.9754 32.2717C37.4873 33.5739 36.7199 34.7533 35.7272 35.7271C34.7522 36.7183 33.5732 37.4854 32.272 37.9754C31.0299 38.457 29.6143 38.7846 27.5396 38.8821C27.0769 38.9039 26.6141 38.9234 26.1512 38.9406L25.773 38.9523C24.8117 38.9796 23.6983 38.9932 21.5046 38.9971L20.05 38.9991H17.4976C16.0747 39.004 14.6517 38.989 13.2292 38.9542L12.851 38.9425C12.3881 38.925 11.9253 38.9049 11.4626 38.8821C9.38794 38.7846 7.97232 38.457 6.72828 37.9754C5.42705 37.4867 4.24843 36.7193 3.27501 35.7271C2.2826 34.7526 1.51468 33.5735 1.02482 32.2717C0.543197 31.0296 0.215614 29.614 0.118119 27.5373C0.0963948 27.0746 0.0768956 26.6118 0.059622 26.1489L0.0498728 25.7706C0.0139401 24.3487 -0.0023108 22.9264 0.00112509 21.5041V17.495C-0.00431701 16.0727 0.00998378 14.6504 0.044023 13.2285L0.0576723 12.8502C0.0732715 12.4115 0.0927704 11.9805 0.116169 11.4618C0.213664 9.38513 0.541247 7.97141 1.02287 6.72734C1.51252 5.42459 2.28196 4.2451 3.27696 3.27202C4.25014 2.28042 5.42798 1.51314 6.72828 1.02373C7.97232 0.542087 9.38599 0.214495 11.4626 0.116997C11.9813 0.0935977 12.4142 0.0740982 12.851 0.0584986L13.2292 0.0467988C14.6511 0.0121535 16.0734 -0.00279759 17.4956 0.00194981L21.5046 0ZM19.5001 9.74977C16.9144 9.74977 14.4346 10.777 12.6062 12.6054C10.7778 14.4339 9.75063 16.9137 9.75063 19.4995C9.75063 22.0853 10.7778 24.5652 12.6062 26.3937C14.4346 28.2221 16.9144 29.2493 19.5001 29.2493C22.0859 29.2493 24.5657 28.2221 26.3941 26.3937C28.2225 24.5652 29.2496 22.0853 29.2496 19.4995C29.2496 16.9137 28.2225 14.4339 26.3941 12.6054C24.5657 10.777 22.0859 9.74977 19.5001 9.74977ZM19.5001 13.6497C20.2683 13.6496 21.029 13.8007 21.7388 14.0946C22.4486 14.3885 23.0935 14.8193 23.6368 15.3624C24.1801 15.9055 24.6111 16.5503 24.9051 17.26C25.1992 17.9697 25.3507 18.7304 25.3508 19.4986C25.3509 20.2668 25.1998 21.0275 24.9059 21.7373C24.612 22.4471 24.1813 23.092 23.6382 23.6353C23.0951 24.1786 22.4503 24.6096 21.7406 24.9037C21.0309 25.1978 20.2703 25.3493 19.5021 25.3494C17.9506 25.3494 16.4627 24.7331 15.3657 23.636C14.2687 22.539 13.6524 21.051 13.6524 19.4995C13.6524 17.9481 14.2687 16.4601 15.3657 15.3631C16.4627 14.266 17.9506 13.6497 19.5021 13.6497M29.7391 6.82484C29.0926 6.82484 28.4727 7.08164 28.0156 7.53875C27.5585 7.99586 27.3017 8.61583 27.3017 9.26228C27.3017 9.90873 27.5585 10.5287 28.0156 10.9858C28.4727 11.4429 29.0926 11.6997 29.7391 11.6997C30.3855 11.6997 31.0054 11.4429 31.4625 10.9858C31.9196 10.5287 32.1764 9.90873 32.1764 9.26228C32.1764 8.61583 31.9196 7.99586 31.4625 7.53875C31.0054 7.08164 30.3855 6.82484 29.7391 6.82484Z" fill="url(#paint0_linear_75_2636)"/>
</g>
<defs>
<linearGradient id="paint0_linear_75_2636" x1="2.61492" y1="29.25" x2="19.5036" y2="0.00204401" gradientUnits="userSpaceOnUse">
<stop stop-color="#75030B"/>
<stop offset="0.333333" stop-color="#930210"/>
<stop offset="0.666667" stop-color="#B4001E"/>
<stop offset="1" stop-color="#DA291C"/>
</linearGradient>
<clipPath id="clip0_75_2636">
<rect width="39" height="39" fill="white"/>
</clipPath>
</defs>
</svg>
