<svg width="29" height="30" viewBox="0 0 29 30" fill="none" xmlns="http://www.w3.org/2000/svg">
<path d="M25.7778 0.5C26.6324 0.5 27.4519 0.839483 28.0562 1.44377C28.6605 2.04805 29 2.86764 29 3.72222V26.2778C29 27.1324 28.6605 27.9519 28.0562 28.5562C27.4519 29.1605 26.6324 29.5 25.7778 29.5H3.22222C2.36764 29.5 1.54805 29.1605 0.943767 28.5562C0.339483 27.9519 0 27.1324 0 26.2778V3.72222C0 2.86764 0.339483 2.04805 0.943767 1.44377C1.54805 0.839483 2.36764 0.5 3.22222 0.5H25.7778ZM24.9722 25.4722V16.9333C24.9722 15.5404 24.4189 14.2044 23.4339 13.2195C22.4489 12.2345 21.113 11.6811 19.72 11.6811C18.3506 11.6811 16.7556 12.5189 15.9822 13.7756V11.9872H11.4872V25.4722H15.9822V17.5294C15.9822 16.2889 16.9811 15.2739 18.2217 15.2739C18.8199 15.2739 19.3936 15.5115 19.8166 15.9345C20.2396 16.3575 20.4772 16.9312 20.4772 17.5294V25.4722H24.9722ZM6.25111 9.45778C6.96896 9.45778 7.65742 9.17261 8.16501 8.66501C8.67261 8.15742 8.95778 7.46896 8.95778 6.75111C8.95778 5.25278 7.74944 4.02833 6.25111 4.02833C5.52899 4.02833 4.83644 4.3152 4.32582 4.82582C3.8152 5.33644 3.52833 6.02899 3.52833 6.75111C3.52833 8.24944 4.75278 9.45778 6.25111 9.45778ZM8.49056 25.4722V11.9872H4.02778V25.4722H8.49056Z" fill="url(#paint0_linear_343_3154)"/>
<defs>
<linearGradient id="paint0_linear_343_3154" x1="14.5" y1="0.5" x2="14.5" y2="29.5" gradientUnits="userSpaceOnUse">
<stop stop-color="#949494"/>
<stop offset="1" stop-color="#ABABAB"/>
</linearGradient>
</defs>
</svg>
