<svg width="29" height="18" viewBox="0 0 29 18" fill="none" xmlns="http://www.w3.org/2000/svg">
<path d="M8.7 0.300781C11.0074 0.300781 13.2203 1.21739 14.8518 2.84895C16.4834 4.48052 17.4 6.6934 17.4 9.00078C17.4 11.3082 16.4834 13.521 14.8518 15.1526C13.2203 16.7842 11.0074 17.7008 8.7 17.7008C6.39262 17.7008 4.17974 16.7842 2.54817 15.1526C0.916604 13.521 0 11.3082 0 9.00078C0 6.6934 0.916604 4.48052 2.54817 2.84895C4.17974 1.21739 6.39262 0.300781 8.7 0.300781ZM21.75 1.75078C23.925 1.75078 25.375 4.99733 25.375 9.00078C25.375 13.0042 23.925 16.2508 21.75 16.2508C19.575 16.2508 18.125 13.0042 18.125 9.00078C18.125 4.99733 19.575 1.75078 21.75 1.75078ZM27.55 2.47578C28.101 2.47578 28.5824 3.67493 28.826 5.73248L28.8942 6.37483L28.9217 6.71558L28.9652 7.43188L28.9797 7.80743L28.9971 8.59188L29 9.00078L28.9971 9.40968L28.9797 10.1941L28.9652 10.5711L28.9217 11.286L28.8927 11.6267L28.8275 12.2691C28.5824 14.3281 28.1025 15.5258 27.55 15.5258C26.999 15.5258 26.5176 14.3266 26.274 12.2691L26.2059 11.6267C26.1959 11.5132 26.1867 11.3996 26.1783 11.286L26.1348 10.5697C26.1292 10.4445 26.1244 10.3193 26.1203 10.1941L26.1029 9.40968V8.59188L26.1203 7.80743L26.1348 7.43043L26.1783 6.71558L26.2073 6.37483L26.2726 5.73248C26.5176 3.67348 26.9976 2.47578 27.55 2.47578Z" fill="url(#paint0_linear_343_3166)"/>
<defs>
<linearGradient id="paint0_linear_343_3166" x1="14.5" y1="0.300781" x2="14.5" y2="17.7008" gradientUnits="userSpaceOnUse">
<stop stop-color="#949494"/>
<stop offset="1" stop-color="#ABABAB"/>
</linearGradient>
</defs>
</svg>
