<svg width="39" height="24" viewBox="0 0 39 24" fill="none" xmlns="http://www.w3.org/2000/svg">
<g clip-path="url(#clip0_459_3021)">
<path d="M11.7 0.400024C14.803 0.400024 17.779 1.6327 19.9732 3.82688C22.1673 6.02105 23.4 8.99699 23.4 12.1C23.4 15.2031 22.1673 18.179 19.9732 20.3732C17.779 22.5674 14.803 23.8 11.7 23.8C8.59697 23.8 5.62103 22.5674 3.42685 20.3732C1.23267 18.179 0 15.2031 0 12.1C0 8.99699 1.23267 6.02105 3.42685 3.82688C5.62103 1.6327 8.59697 0.400024 11.7 0.400024ZM29.25 2.35002C32.175 2.35002 34.125 6.71607 34.125 12.1C34.125 17.484 32.175 21.85 29.25 21.85C26.325 21.85 24.375 17.484 24.375 12.1C24.375 6.71607 26.325 2.35002 29.25 2.35002ZM37.05 3.32502C37.791 3.32502 38.4384 4.93767 38.766 7.70472L38.8577 8.56857L38.8947 9.02682L38.9532 9.99012L38.9727 10.4952L38.9961 11.5501L39 12.1L38.9961 12.6499L38.9727 13.7049L38.9532 14.2119L38.8947 15.1732L38.8557 15.6315L38.768 16.4953C38.4384 19.2643 37.7929 20.875 37.05 20.875C36.309 20.875 35.6616 19.2624 35.334 16.4953L35.2424 15.6315C35.2289 15.4788 35.2166 15.3261 35.2053 15.1732L35.1468 14.2099C35.1393 14.0416 35.1328 13.8733 35.1273 13.7049L35.1039 12.6499V11.5501L35.1273 10.4952L35.1468 9.98817L35.2053 9.02682L35.2443 8.56857L35.3321 7.70472C35.6616 4.93572 36.3071 3.32502 37.05 3.32502Z" fill="url(#paint0_linear_459_3021)"/>
</g>
<defs>
<linearGradient id="paint0_linear_459_3021" x1="2.61492" y1="17.95" x2="9.8532" y2="-2.9422" gradientUnits="userSpaceOnUse">
<stop stop-color="#75030B"/>
<stop offset="0.333333" stop-color="#930210"/>
<stop offset="0.666667" stop-color="#B4001E"/>
<stop offset="1" stop-color="#DA291C"/>
</linearGradient>
<clipPath id="clip0_459_3021">
<rect width="39" height="23.4" fill="white" transform="translate(0 0.400024)"/>
</clipPath>
</defs>
</svg>
