<svg width="29" height="18" viewBox="0 0 29 18" fill="none" xmlns="http://www.w3.org/2000/svg">
<g clip-path="url(#clip0_459_3168)">
<path d="M8.7 0.300049C11.0074 0.300049 13.2203 1.21665 14.8518 2.84822C16.4834 4.47979 17.4 6.69267 17.4 9.00005C17.4 11.3074 16.4834 13.5203 14.8518 15.1519C13.2203 16.7834 11.0074 17.7 8.7 17.7C6.39262 17.7 4.17974 16.7834 2.54817 15.1519C0.916604 13.5203 0 11.3074 0 9.00005C0 6.69267 0.916604 4.47979 2.54817 2.84822C4.17974 1.21665 6.39262 0.300049 8.7 0.300049ZM21.75 1.75005C23.925 1.75005 25.375 4.9966 25.375 9.00005C25.375 13.0035 23.925 16.25 21.75 16.25C19.575 16.25 18.125 13.0035 18.125 9.00005C18.125 4.9966 19.575 1.75005 21.75 1.75005ZM27.55 2.47505C28.101 2.47505 28.5824 3.6742 28.826 5.73175L28.8942 6.3741L28.9217 6.71485L28.9652 7.43115L28.9797 7.8067L28.9971 8.59115L29 9.00005L28.9971 9.40895L28.9797 10.1934L28.9652 10.5704L28.9217 11.2852L28.8927 11.626L28.8275 12.2683C28.5824 14.3273 28.1025 15.525 27.55 15.525C26.999 15.525 26.5176 14.3259 26.274 12.2683L26.2059 11.626C26.1959 11.5125 26.1867 11.3989 26.1783 11.2852L26.1348 10.5689C26.1292 10.4438 26.1244 10.3186 26.1203 10.1934L26.1029 9.40895V8.59115L26.1203 7.8067L26.1348 7.4297L26.1783 6.71485L26.2073 6.3741L26.2726 5.73175C26.5176 3.67275 26.9976 2.47505 27.55 2.47505Z" fill="#949494"/>
</g>
<defs>
<clipPath id="clip0_459_3168">
<rect width="29" height="17.4" fill="white" transform="translate(0 0.300049)"/>
</clipPath>
</defs>
</svg>
