<svg width="39" height="39" viewBox="0 0 39 39" fill="none" xmlns="http://www.w3.org/2000/svg">
<g clip-path="url(#clip0_459_3008)">
<path d="M17.0625 21.528C17.0625 20.4165 16.146 19.5 15.0345 19.5C13.923 19.5 13.0065 20.4165 13.0065 21.528C13.0065 22.0659 13.2201 22.5817 13.6005 22.962C13.9808 23.3423 14.4966 23.556 15.0345 23.556C15.5723 23.556 16.0882 23.3423 16.4685 22.962C16.8488 22.5817 17.0625 22.0659 17.0625 21.528ZM23.5755 26.1495C22.698 27.027 20.826 27.339 19.5 27.339C18.174 27.339 16.302 27.027 15.4245 26.1495C15.377 26.0987 15.3197 26.0582 15.2559 26.0306C15.1922 26.0029 15.1235 25.9886 15.054 25.9886C14.9845 25.9886 14.9157 26.0029 14.852 26.0306C14.7883 26.0582 14.7309 26.0987 14.6835 26.1495C14.6327 26.1969 14.5922 26.2543 14.5645 26.318C14.5368 26.3818 14.5226 26.4505 14.5226 26.52C14.5226 26.5895 14.5368 26.6582 14.5645 26.722C14.5922 26.7857 14.6327 26.8431 14.6835 26.8905C16.068 28.275 18.72 28.392 19.5 28.392C20.28 28.392 22.932 28.275 24.3165 26.8905C24.3672 26.8431 24.4077 26.7857 24.4354 26.722C24.4631 26.6582 24.4774 26.5895 24.4774 26.52C24.4774 26.4505 24.4631 26.3818 24.4354 26.318C24.4077 26.2543 24.3672 26.1969 24.3165 26.1495C24.1215 25.9545 23.79 25.9545 23.5755 26.1495ZM23.9655 19.5C22.854 19.5 21.9375 20.4165 21.9375 21.528C21.9375 22.6395 22.854 23.556 23.9655 23.556C25.077 23.556 25.9935 22.6395 25.9935 21.528C25.9935 20.4165 25.0965 19.5 23.9655 19.5Z" fill="url(#paint0_linear_459_3008)"/>
<path d="M19.5 0C8.736 0 0 8.736 0 19.5C0 30.264 8.736 39 19.5 39C30.264 39 39 30.264 39 19.5C39 8.736 30.264 0 19.5 0ZM30.81 22.0935C30.849 22.3665 30.8685 22.659 30.8685 22.9515C30.8685 27.3195 25.779 30.8685 19.5 30.8685C13.221 30.8685 8.1315 27.3195 8.1315 22.9515C8.1315 22.659 8.151 22.3665 8.19 22.0935C7.1955 21.645 6.513 20.6505 6.513 19.5C6.51011 18.9408 6.67251 18.3933 6.97982 17.9261C7.28712 17.4589 7.72561 17.093 8.24022 16.8742C8.75484 16.6555 9.32262 16.5936 9.87225 16.6965C10.4219 16.7994 10.9289 17.0624 11.3295 17.4525C13.299 16.029 16.029 15.132 19.0515 15.0345L20.4945 8.229C20.514 8.0925 20.592 7.9755 20.709 7.917C20.826 7.839 20.9625 7.8195 21.099 7.839L25.818 8.853C25.978 8.52848 26.222 8.25269 26.5246 8.05424C26.8271 7.85578 27.1773 7.74189 27.5387 7.72438C27.9001 7.70687 28.2596 7.78638 28.58 7.95465C28.9003 8.12293 29.1698 8.37384 29.3604 8.68137C29.5511 8.9889 29.656 9.34184 29.6643 9.70359C29.6726 10.0653 29.5839 10.4227 29.4075 10.7386C29.2311 11.0546 28.9734 11.3176 28.6611 11.5003C28.3488 11.6831 27.9933 11.779 27.6315 11.778C26.5395 11.778 25.662 10.92 25.6035 9.8475L21.372 8.9505L20.085 15.0345C23.0685 15.132 25.74 16.0485 27.69 17.4525C27.9889 17.167 28.3466 16.9504 28.7381 16.8176C29.1295 16.6848 29.5452 16.6392 29.9561 16.6838C30.367 16.7285 30.7632 16.8624 31.117 17.0762C31.4707 17.29 31.7735 17.5785 32.0041 17.9215C32.2347 18.2645 32.3876 18.6538 32.452 19.0621C32.5164 19.4704 32.4909 19.8878 32.3772 20.2852C32.2634 20.6826 32.0643 21.0503 31.7936 21.3626C31.5229 21.675 31.1872 21.9244 30.81 22.0935Z" fill="url(#paint1_linear_459_3008)"/>
</g>
<defs>
<linearGradient id="paint0_linear_459_3008" x1="13.8772" y1="26.169" x2="16.9175" y2="18.479" gradientUnits="userSpaceOnUse">
<stop stop-color="#75030B"/>
<stop offset="0.333333" stop-color="#930210"/>
<stop offset="0.666667" stop-color="#B4001E"/>
<stop offset="1" stop-color="#DA291C"/>
</linearGradient>
<linearGradient id="paint1_linear_459_3008" x1="2.61492" y1="29.25" x2="19.5036" y2="0.00204401" gradientUnits="userSpaceOnUse">
<stop stop-color="#75030B"/>
<stop offset="0.333333" stop-color="#930210"/>
<stop offset="0.666667" stop-color="#B4001E"/>
<stop offset="1" stop-color="#DA291C"/>
</linearGradient>
<clipPath id="clip0_459_3008">
<rect width="39" height="39" fill="white"/>
</clipPath>
</defs>
</svg>
