<svg width="29" height="30" viewBox="0 0 29 30" fill="none" xmlns="http://www.w3.org/2000/svg">
<path d="M12.6875 16.508C12.6875 15.6815 12.006 15 11.1795 15C10.353 15 9.67149 15.6815 9.67149 16.508C9.67149 16.9079 9.83037 17.2915 10.1132 17.5743C10.396 17.8571 10.7795 18.016 11.1795 18.016C11.5794 18.016 11.963 17.8571 12.2458 17.5743C12.5286 17.2915 12.6875 16.9079 12.6875 16.508ZM17.5305 19.9445C16.878 20.597 15.486 20.829 14.5 20.829C13.514 20.829 12.122 20.597 11.4695 19.9445C11.4342 19.9067 11.3916 19.8766 11.3442 19.8561C11.2968 19.8355 11.2457 19.8248 11.194 19.8248C11.1423 19.8248 11.0912 19.8355 11.0438 19.8561C10.9964 19.8766 10.9538 19.9067 10.9185 19.9445C10.8807 19.9798 10.8506 20.0224 10.83 20.0698C10.8095 20.1172 10.7988 20.1683 10.7988 20.22C10.7988 20.2717 10.8095 20.3228 10.83 20.3702C10.8506 20.4176 10.8807 20.4602 10.9185 20.4955C11.948 21.525 13.92 21.612 14.5 21.612C15.08 21.612 17.052 21.525 18.0815 20.4955C18.1193 20.4602 18.1494 20.4176 18.1699 20.3702C18.1905 20.3228 18.2011 20.2717 18.2011 20.22C18.2011 20.1683 18.1905 20.1172 18.1699 20.0698C18.1494 20.0224 18.1193 19.9798 18.0815 19.9445C17.9365 19.7995 17.69 19.7995 17.5305 19.9445ZM17.8205 15C16.994 15 16.3125 15.6815 16.3125 16.508C16.3125 17.3345 16.994 18.016 17.8205 18.016C18.647 18.016 19.3285 17.3345 19.3285 16.508C19.3285 15.6815 18.6615 15 17.8205 15Z" fill="url(#paint0_linear_2228_2965)"/>
<path d="M14.5 0.5C6.496 0.5 0 6.996 0 15C0 23.004 6.496 29.5 14.5 29.5C22.504 29.5 29 23.004 29 15C29 6.996 22.504 0.5 14.5 0.5ZM22.91 16.9285C22.939 17.1315 22.9535 17.349 22.9535 17.5665C22.9535 20.8145 19.169 23.4535 14.5 23.4535C9.831 23.4535 6.0465 20.8145 6.0465 17.5665C6.0465 17.349 6.061 17.1315 6.09 16.9285C5.3505 16.595 4.843 15.8555 4.843 15C4.84085 14.5842 4.96161 14.177 5.19012 13.8297C5.41863 13.4823 5.74469 13.2102 6.12735 13.0475C6.51001 12.8848 6.9322 12.8389 7.3409 12.9154C7.74961 12.9919 8.12659 13.1874 8.4245 13.4775C9.889 12.419 11.919 11.752 14.1665 11.6795L15.2395 6.619C15.254 6.5175 15.312 6.4305 15.399 6.387C15.486 6.329 15.5875 6.3145 15.689 6.329L19.198 7.083C19.317 6.84169 19.4984 6.63661 19.7234 6.48905C19.9484 6.34148 20.2087 6.25679 20.4775 6.24377C20.7462 6.23075 21.0136 6.28987 21.2518 6.415C21.49 6.54013 21.6903 6.7267 21.8321 6.95538C21.9739 7.18406 22.0519 7.4465 22.0581 7.71549C22.0642 7.98448 21.9983 8.25022 21.8671 8.48514C21.736 8.72007 21.5443 8.91562 21.3121 9.05152C21.0799 9.18742 20.8156 9.25871 20.5465 9.258C19.7345 9.258 19.082 8.62 19.0385 7.8225L15.892 7.1555L14.935 11.6795C17.1535 11.752 19.14 12.4335 20.59 13.4775C20.8123 13.2652 21.0783 13.1041 21.3693 13.0054C21.6604 12.9067 21.9695 12.8727 22.275 12.9059C22.5806 12.9391 22.8752 13.0387 23.1382 13.1977C23.4013 13.3567 23.6264 13.5712 23.7979 13.8263C23.9694 14.0813 24.0831 14.3708 24.131 14.6744C24.1789 14.978 24.1599 15.2884 24.0753 15.5838C23.9908 15.8793 23.8426 16.1528 23.6414 16.385C23.4401 16.6173 23.1905 16.8028 22.91 16.9285Z" fill="url(#paint1_linear_2228_2965)"/>
<defs>
<linearGradient id="paint0_linear_2228_2965" x1="14.5" y1="15" x2="14.5" y2="21.612" gradientUnits="userSpaceOnUse">
<stop stop-color="#949494"/>
<stop offset="1" stop-color="#ABABAB"/>
</linearGradient>
<linearGradient id="paint1_linear_2228_2965" x1="14.5" y1="0.5" x2="14.5" y2="29.5" gradientUnits="userSpaceOnUse">
<stop stop-color="#949494"/>
<stop offset="1" stop-color="#ABABAB"/>
</linearGradient>
</defs>
</svg>
