<svg width="29" height="30" viewBox="0 0 29 30" fill="none" xmlns="http://www.w3.org/2000/svg">
<path d="M14.5 0.5C6.496 0.5 0 6.996 0 15C0 23.004 6.496 29.5 14.5 29.5C22.504 29.5 29 23.004 29 15C29 6.996 22.504 0.5 14.5 0.5ZM21.228 10.36C21.0105 12.651 20.068 18.219 19.5895 20.7855C19.3865 21.873 18.9805 22.2355 18.6035 22.279C17.7625 22.3515 17.1245 21.728 16.3125 21.1915C15.0365 20.3505 14.3115 19.8285 13.079 19.0165C11.6435 18.074 12.5715 17.552 13.398 16.711C13.6155 16.4935 17.3275 13.115 17.4 12.8105C17.4101 12.7644 17.4087 12.7165 17.3961 12.671C17.3835 12.6255 17.3599 12.5838 17.3275 12.5495C17.2405 12.477 17.1245 12.506 17.023 12.5205C16.8925 12.5495 14.8625 13.898 10.904 16.566C10.324 16.9575 9.802 17.1605 9.338 17.146C8.816 17.1315 7.83 16.856 7.0905 16.6095C6.177 16.3195 5.4665 16.16 5.5245 15.6525C5.5535 15.3915 5.916 15.1305 6.5975 14.855C10.8315 13.0135 13.6445 11.7955 15.051 11.2155C19.082 9.5335 19.9085 9.2435 20.4595 9.2435C20.5755 9.2435 20.851 9.2725 21.025 9.4175C21.17 9.5335 21.2135 9.693 21.228 9.809C21.2135 9.896 21.2425 10.157 21.228 10.36Z" fill="url(#paint0_linear_343_3163)"/>
<defs>
<linearGradient id="paint0_linear_343_3163" x1="14.5" y1="0.5" x2="14.5" y2="29.5" gradientUnits="userSpaceOnUse">
<stop stop-color="#949494"/>
<stop offset="1" stop-color="#ABABAB"/>
</linearGradient>
</defs>
</svg>
