<svg width="29" height="29" viewBox="0 0 29 29" fill="" xmlns="http://www.w3.org/2000/svg">
<path fill-rule="evenodd" clip-rule="evenodd" d="M4 0C1.79086 0 0 1.79086 0 4V25C0 27.2091 1.79086 29 4 29H25C27.2091 29 29 27.2091 29 25V4C29 1.79086 27.2091 0 25 0H4ZM23.6319 4.73469L16.36 13.0055L24.2653 24.2653H18.4491L13.1237 16.6814L6.45729 24.2653H4.73469L12.3601 15.5931L4.73469 4.73469H10.5509L15.5924 11.9147L21.9093 4.73469H23.6319ZM9.72542 6.00573H7.07902L19.2609 23.0567H21.908L9.72542 6.00573Z" fill="#949494"/>
</svg>
