<svg width="29" height="22" viewBox="0 0 29 22" fill="none" xmlns="http://www.w3.org/2000/svg">
<g clip-path="url(#clip0_459_3166)">
<path d="M11.6 15.35L19.1255 11L11.6 6.64998V15.35ZM28.362 3.99648C28.5505 4.67798 28.681 5.59148 28.768 6.75147C28.8695 7.91147 28.913 8.91197 28.913 9.78197L29 11C29 14.1755 28.768 16.51 28.362 18.0035C27.9995 19.3085 27.1585 20.1495 25.8535 20.512C25.172 20.7005 23.925 20.831 22.011 20.918C20.126 21.0195 18.4005 21.063 16.8055 21.063L14.5 21.15C8.4245 21.15 4.64 20.918 3.1465 20.512C1.8415 20.1495 1.0005 19.3085 0.638 18.0035C0.4495 17.322 0.319 16.4085 0.232 15.2485C0.1305 14.0885 0.0869999 13.088 0.0869999 12.218L0 11C0 7.82448 0.232 5.48998 0.638 3.99648C1.0005 2.69148 1.8415 1.85048 3.1465 1.48798C3.828 1.29948 5.075 1.16898 6.989 1.08198C8.874 0.980475 10.5995 0.936976 12.1945 0.936976L14.5 0.849976C20.5755 0.849976 24.36 1.08198 25.8535 1.48798C27.1585 1.85048 27.9995 2.69148 28.362 3.99648Z" fill="#949494"/>
</g>
<defs>
<clipPath id="clip0_459_3166">
<rect width="29" height="20.3" fill="white" transform="translate(0 0.849976)"/>
</clipPath>
</defs>
</svg>
