<svg width="29" height="22" viewBox="0 0 29 22" fill="none" xmlns="http://www.w3.org/2000/svg">
<path d="M11.6 15.3496L19.1255 10.9996L11.6 6.64961V15.3496ZM28.362 3.99611C28.5505 4.67761 28.681 5.59111 28.768 6.75111C28.8695 7.91111 28.913 8.91161 28.913 9.78161L29 10.9996C29 14.1751 28.768 16.5096 28.362 18.0031C27.9995 19.3081 27.1585 20.1491 25.8535 20.5116C25.172 20.7001 23.925 20.8306 22.011 20.9176C20.126 21.0191 18.4005 21.0626 16.8055 21.0626L14.5 21.1496C8.4245 21.1496 4.64 20.9176 3.1465 20.5116C1.8415 20.1491 1.0005 19.3081 0.638 18.0031C0.4495 17.3216 0.319 16.4081 0.232 15.2481C0.1305 14.0881 0.0869999 13.0876 0.0869999 12.2176L0 10.9996C0 7.82411 0.232 5.48961 0.638 3.99611C1.0005 2.69111 1.8415 1.85011 3.1465 1.48761C3.828 1.29911 5.075 1.16861 6.989 1.08161C8.874 0.980109 10.5995 0.936609 12.1945 0.936609L14.5 0.849609C20.5755 0.849609 24.36 1.08161 25.8535 1.48761C27.1585 1.85011 27.9995 2.69111 28.362 3.99611Z" fill="url(#paint0_linear_343_3159)"/>
<defs>
<linearGradient id="paint0_linear_343_3159" x1="14.5" y1="0.849609" x2="14.5" y2="21.1496" gradientUnits="userSpaceOnUse">
<stop stop-color="#949494"/>
<stop offset="1" stop-color="#ABABAB"/>
</linearGradient>
</defs>
</svg>
