<svg width="39" height="28" viewBox="0 0 39 28" fill="none" xmlns="http://www.w3.org/2000/svg">
<g clip-path="url(#clip0_459_3013)">
<path d="M15.6 19.8L25.7205 13.95L15.6 8.10005V19.8ZM38.142 4.53155C38.3955 5.44805 38.571 6.67655 38.688 8.23655C38.8245 9.79655 38.883 11.142 38.883 12.312L39 13.95C39 18.2205 38.688 21.36 38.142 23.3685C37.6545 25.1235 36.5235 26.2545 34.7685 26.742C33.852 26.9955 32.175 27.171 29.601 27.288C27.066 27.4245 24.7455 27.483 22.6005 27.483L19.5 27.6C11.3295 27.6 6.24 27.288 4.2315 26.742C2.4765 26.2545 1.3455 25.1235 0.858 23.3685C0.6045 22.452 0.429 21.2235 0.312 19.6635C0.1755 18.1035 0.117 16.758 0.117 15.588L0 13.95C0 9.67955 0.312 6.54005 0.858 4.53155C1.3455 2.77655 2.4765 1.64555 4.2315 1.15805C5.148 0.904549 6.825 0.729049 9.399 0.612049C11.934 0.475549 14.2545 0.417049 16.3995 0.417049L19.5 0.300049C27.6705 0.300049 32.76 0.612049 34.7685 1.15805C36.5235 1.64555 37.6545 2.77655 38.142 4.53155Z" fill="url(#paint0_linear_459_3013)"/>
</g>
<defs>
<linearGradient id="paint0_linear_459_3013" x1="2.61492" y1="20.7751" x2="12.1" y2="-2.69107" gradientUnits="userSpaceOnUse">
<stop stop-color="#75030B"/>
<stop offset="0.333333" stop-color="#930210"/>
<stop offset="0.666667" stop-color="#B4001E"/>
<stop offset="1" stop-color="#DA291C"/>
</linearGradient>
<clipPath id="clip0_459_3013">
<rect width="39" height="27.3" fill="white" transform="translate(0 0.300049)"/>
</clipPath>
</defs>
</svg>
