<svg width="862" height="897" viewBox="0 0 862 897" fill="none" xmlns="http://www.w3.org/2000/svg">
<path d="M873.216 499.267L845.209 547.753L838.905 558.663L817.202 596.24L700.809 797.823H742.759C785.558 797.823 825.446 775.034 847.149 738.184L929.23 596.24L957.237 547.753L979.182 509.813C979.668 508.964 980.152 507.995 980.758 507.025C981.971 504.479 983.183 501.813 984.396 499.267H873.216ZM78.3486 414.416L99.4447 450.78L76.2877 410.537C76.8938 411.871 77.6212 413.204 78.3486 414.416Z" fill="url(#paint0_linear_56_1724)"/>
<path d="M846.785 162.529C825.083 126.043 785.436 103.617 742.88 103.617H361.936L306.043 6.88696C308.588 6.76562 311.256 6.64429 313.923 6.64429H686.866C729.665 6.64429 769.554 29.433 791.256 66.2832L846.785 162.529Z" fill="url(#paint1_linear_56_1724)"/>
<path d="M271.125 748.003L215.474 844.249C213.171 841.097 210.988 837.703 208.927 834.188L187.831 797.823L78.47 608.362V608.24L43.4306 547.754L22.4559 511.389C0.875057 473.933 0.875057 427.507 22.4559 390.172L43.552 353.565L77.9853 293.927C57.4952 329.807 56.8891 374.05 76.2877 410.537C76.8938 411.871 77.6212 413.204 78.3486 414.416L99.4447 450.781L264.82 737.215C265.79 739.033 266.881 740.73 267.972 742.427L271.125 748.003Z" fill="url(#paint2_linear_56_1724)"/>
<path d="M464.022 280.351H402.067L377.091 323.746L330.897 243.865L305.921 200.59L275.853 148.467L274.883 146.892L264.941 164.225L243.967 200.59H243.845L161.885 342.535L155.338 353.808V353.929L99.4447 450.781L76.2877 410.537C56.8891 374.051 57.4952 329.807 77.9852 293.927C78.1066 293.685 78.2272 293.442 78.3486 293.2L101.264 253.562H101.385L152.913 164.225L153.035 163.983L208.927 67.2524C212.201 61.6769 215.838 56.3434 219.839 51.4944C240.936 25.4334 272.216 9.06877 306.043 6.88696L330.897 49.7972L361.936 103.617L362.057 103.86L417.95 200.59L464.022 280.351Z" fill="url(#paint3_linear_56_1724)"/>
<path d="M984.396 499.267H669.044L697.051 450.781L669.044 402.294H873.216L763.613 212.349L756.823 200.59L707.599 115.376L700.809 103.617H742.88C785.436 103.617 825.083 126.043 846.785 162.529C847.028 162.771 847.149 163.013 847.271 163.256L979.061 391.627C981.001 395.143 982.82 398.658 984.396 402.294C997.975 433.083 997.854 468.357 984.396 499.267Z" fill="url(#paint4_linear_56_1724)"/>
<path d="M923.168 606.786L791.256 835.157C769.554 872.007 729.665 894.796 686.866 894.796H313.923C308.831 894.796 303.739 894.432 298.768 893.826C265.426 889.583 235.115 871.644 215.474 844.249L271.125 748.003L373.211 571.148L402.067 621.089H456.383L354.297 797.823H742.759C785.558 797.823 825.446 775.034 847.149 738.184L923.168 606.786Z" fill="url(#paint5_linear_56_1724)"/>
<path d="M598.723 280.472L531.433 396.961L528.281 402.294L500.395 450.659V450.781H303.739L377.091 323.746L402.067 280.351H464.022L598.723 280.472Z" fill="url(#paint6_linear_56_1724)"/>
<path d="M697.051 450.781L669.044 499.267L598.723 620.969L528.402 499.267L527.553 497.813V497.691L500.395 450.781V450.659L528.281 402.294L531.433 396.961L598.723 280.472L669.044 402.294L697.051 450.781Z" fill="url(#paint7_linear_56_1724)"/>
<path d="M598.723 620.969L456.383 621.089H402.067L373.211 571.148L303.739 450.781H500.395L527.553 497.691V497.813L528.402 499.267L598.723 620.969Z" fill="white"/>
<defs>
<linearGradient id="paint0_linear_56_1724" x1="437.779" y1="-63.8824" x2="597.186" y2="829.93" gradientUnits="userSpaceOnUse">
<stop offset="0.623967" stop-color="#C8C7C8"/>
<stop offset="0.753989" stop-color="white"/>
<stop offset="0.818569" stop-color="#FBFBFB"/>
<stop offset="0.882266" stop-color="#EFEFEF"/>
<stop offset="0.945398" stop-color="#DCDBDC"/>
<stop offset="1" stop-color="#C5C4C5"/>
</linearGradient>
<linearGradient id="paint1_linear_56_1724" x1="306.043" y1="84.5866" x2="846.785" y2="84.5866" gradientUnits="userSpaceOnUse">
<stop offset="2e-07" stop-color="#C8C8C8"/>
<stop offset="0.515266" stop-color="white"/>
</linearGradient>
<linearGradient id="paint2_linear_56_1724" x1="-1.36088" y1="468.868" x2="330.604" y2="693.622" gradientUnits="userSpaceOnUse">
<stop stop-color="white"/>
<stop offset="0.264733" stop-color="#FBFBFB"/>
<stop offset="0.525838" stop-color="#EFEFEF"/>
<stop offset="0.784624" stop-color="#DCDCDC"/>
<stop offset="0.999999" stop-color="#C6C5C6"/>
</linearGradient>
<linearGradient id="paint3_linear_56_1724" x1="239.407" y1="24.9747" x2="271.602" y2="425.451" gradientUnits="userSpaceOnUse">
<stop offset="0.0923251" stop-color="white"/>
<stop offset="0.668435" stop-color="#E3E3E3"/>
</linearGradient>
<linearGradient id="paint4_linear_56_1724" x1="578.451" y1="227.654" x2="1007.44" y2="450.231" gradientUnits="userSpaceOnUse">
<stop stop-color="#C7C6C7"/>
<stop offset="0.440553" stop-color="#E8E8E8"/>
<stop offset="0.999999" stop-color="white"/>
</linearGradient>
<linearGradient id="paint5_linear_56_1724" x1="585.6" y1="714.973" x2="-68.4541" y2="985.179" gradientUnits="userSpaceOnUse">
<stop offset="0.215013" stop-color="white"/>
<stop offset="0.539482" stop-color="#C4C3C4"/>
</linearGradient>
<linearGradient id="paint6_linear_56_1724" x1="592.69" y1="286.211" x2="305.574" y2="447.346" gradientUnits="userSpaceOnUse">
<stop offset="1e-08" stop-color="#C0BFC0"/>
<stop offset="0.149844" stop-color="#CFCECF"/>
<stop offset="0.379545" stop-color="#DEDEDE"/>
<stop offset="0.640879" stop-color="#E7E7E7"/>
<stop offset="1" stop-color="#EAEAEA"/>
</linearGradient>
<linearGradient id="paint7_linear_56_1724" x1="513.58" y1="535.844" x2="683.829" y2="365.559" gradientUnits="userSpaceOnUse">
<stop offset="1e-08" stop-color="#C0BFC0"/>
<stop offset="0.149844" stop-color="#CFCECF"/>
<stop offset="0.379545" stop-color="#DEDEDE"/>
<stop offset="0.640879" stop-color="#E7E7E7"/>
<stop offset="1" stop-color="#EAEAEA"/>
</linearGradient>
</defs>
</svg>
