<svg width="19" height="18" viewBox="0 0 19 18" fill="none" xmlns="http://www.w3.org/2000/svg">
<g clip-path="url(#clip0_986_378)">
<path d="M2.44727 18C1.89727 18 1.4266 17.8043 1.03527 17.413C0.643932 17.0217 0.447932 16.5507 0.447266 16V2C0.447266 1.45 0.643266 0.979333 1.03527 0.588C1.42727 0.196667 1.89793 0.000666667 2.44727 0H16.4473C16.9973 0 17.4683 0.196 17.8603 0.588C18.2523 0.98 18.4479 1.45067 18.4473 2V16C18.4473 16.55 18.2516 17.021 17.8603 17.413C17.4689 17.805 16.9979 18.0007 16.4473 18H2.44727ZM3.44727 14H15.4473L11.6973 9L8.69726 13L6.44726 10L3.44727 14Z" fill="#949494"/>
</g>
<defs>
<clipPath id="clip0_986_378">
<rect width="18" height="18" fill="white" transform="translate(0.447266)"/>
</clipPath>
</defs>
</svg>
