<svg width="213" height="60" viewBox="0 0 213 60" fill="none" xmlns="http://www.w3.org/2000/svg">
<path d="M58.3501 33.1635L56.4651 36.4276L56.0408 37.1621L54.5801 39.6918L46.7462 53.2623H49.5696C52.4502 53.2623 55.135 51.7282 56.5957 49.2475L62.1202 39.6918L64.0052 36.4276L65.4822 33.8735C65.5149 33.8163 65.5475 33.7511 65.5883 33.6858C65.6699 33.5144 65.7515 33.3349 65.8331 33.1635H58.3501ZM4.85124 27.4513L6.27112 29.8994L4.71252 27.1902C4.75332 27.28 4.80228 27.3697 4.85124 27.4513Z" fill="url(#paint0_linear_54_1645)"/>
<path d="M56.5712 10.4942C55.1105 8.03792 52.4421 6.52823 49.5778 6.52823H23.9382L20.1763 0.0163365C20.3477 0.00816823 20.5272 0 20.7067 0H45.8078C48.6884 0 51.3731 1.53414 52.8338 4.0149L56.5712 10.4942Z" fill="url(#paint1_linear_54_1645)"/>
<path d="M17.8261 49.9084L14.0806 56.3877C13.9255 56.1755 13.7786 55.947 13.6399 55.7104L12.22 53.2623L4.85943 40.5078V40.4996L2.50109 36.4276L1.08938 33.9795C-0.363127 31.458 -0.363127 28.3326 1.08938 25.8192L2.50926 23.3548L4.82681 19.34C3.44772 21.7554 3.40692 24.7339 4.71255 27.1902C4.75334 27.28 4.8023 27.3697 4.85126 27.4513L6.27115 29.8994L17.4018 49.1822C17.4671 49.3046 17.5405 49.4188 17.614 49.5331L17.8261 49.9084Z" fill="url(#paint2_linear_54_1645)"/>
<path d="M30.8092 18.426H26.6393L24.9583 21.3474L21.8492 15.9697L20.1682 13.0565L18.1444 9.54757L18.0791 9.44149L17.41 10.6084L15.9983 13.0565H15.9901L10.4737 22.6122L10.0331 23.3711V23.3793L6.27116 29.8993L4.71257 27.1901C3.40694 24.7339 3.44773 21.7554 4.82682 19.3399C4.83499 19.3236 4.84311 19.3073 4.85128 19.291L6.39358 16.6225H6.40175L9.86988 10.6084L9.87805 10.5921L13.6399 4.08017C13.8603 3.70483 14.1051 3.34577 14.3744 3.01934C15.7943 1.26491 17.8996 0.163237 20.1763 0.0163574L21.8492 2.90508L23.9382 6.52826L23.9464 6.54459L27.7083 13.0565L30.8092 18.426Z" fill="url(#paint3_linear_54_1645)"/>
<path d="M65.8331 33.1634H44.6082L46.4932 29.8993L44.6082 26.6352H58.3501L50.9732 13.848L50.5163 13.0564L47.2032 7.31977L46.7462 6.5282H49.5778C52.4421 6.5282 55.1105 8.03788 56.5712 10.4941C56.5875 10.5104 56.5957 10.5268 56.6039 10.5431L65.4741 25.9171C65.6046 26.1537 65.7271 26.3904 65.8331 26.6352C66.7471 28.7079 66.7389 31.0825 65.8331 33.1634Z" fill="url(#paint4_linear_54_1645)"/>
<path d="M61.7122 40.4017L52.8338 55.7757C51.3731 58.2564 48.6884 59.7906 45.8078 59.7906H20.7067C20.364 59.7906 20.0213 59.7661 19.6867 59.7253C17.4426 59.4397 15.4025 58.232 14.0806 56.3877L17.8262 49.9085L24.6971 38.0026L26.6393 41.3646H30.2951L23.4241 53.2623H49.5697C52.4503 53.2623 55.135 51.7282 56.5957 49.2475L61.7122 40.4017Z" fill="url(#paint5_linear_54_1645)"/>
<path d="M39.8752 18.4342L35.3462 26.2762L35.1341 26.6353L33.2572 29.8912V29.8994H20.0212L24.9582 21.3474L26.6392 18.426H30.8091L39.8752 18.4342Z" fill="url(#paint6_linear_54_1645)"/>
<path d="M46.4933 29.8993L44.6083 33.1634L39.8753 41.3564L35.1423 33.1634L35.0852 33.0655V33.0573L33.2573 29.8993V29.8911L35.1342 26.6352L35.3463 26.2761L39.8753 18.4341L44.6083 26.6352L46.4933 29.8993Z" fill="url(#paint7_linear_54_1645)"/>
<path d="M39.8752 41.3565L30.295 41.3646H26.6392L24.6971 38.0026L20.0212 29.8994H33.2572L35.0851 33.0574V33.0656L35.1422 33.1635L39.8752 41.3565Z" fill="#DA291C"/>
<path d="M76.308 40.5999V19.191H88.2221C93.7606 19.191 96.2987 21.5048 96.2987 25.6555C96.2987 28.8655 94.5371 31.1346 91.581 32.0602L98.0156 40.5999H92.8648L86.908 32.493H80.6228V40.5999H76.308ZM88.0727 28.6264C90.7598 28.6264 91.9245 27.5665 91.9245 25.8344C91.9245 24.1028 90.7299 23.1473 88.1922 23.1473H80.6228V28.6264H88.0727Z" fill="#DA291C"/>
<path d="M114.402 39.3905C113.402 40.0025 111.252 40.8683 107.803 40.8683C102.22 40.8683 98.8308 37.6437 98.8308 32.7618C98.8308 27.9545 102.279 24.6848 107.176 24.6848C112.178 24.6848 114.969 27.2975 114.969 31.9406C114.969 32.4483 114.955 33.12 114.775 33.9114H103.085C103.578 36.3746 105.295 37.2556 108.371 37.2556C111.297 37.2556 113.178 36.5388 114.402 35.8821V39.3905ZM110.804 31.0895C110.804 29.0742 109.266 27.8947 107.027 27.8947C104.937 27.8947 103.399 28.8654 103.026 31.0895H110.804Z" fill="#DA291C"/>
<path d="M132.806 40.5998L131.79 38.3306C130.238 39.9427 128.312 40.8536 125.236 40.8536C120.862 40.8536 117.682 37.9126 117.682 33.1651C117.682 27.5963 121.444 24.6848 126.475 24.6848C128.416 24.6848 129.954 25.0729 131.283 25.7598V19.2057H135.463V40.5998H132.806ZM131.283 29.8057C130.252 28.91 128.864 28.2382 126.893 28.2382C124.117 28.2382 121.907 29.4176 121.907 32.8363C121.907 35.5538 123.564 37.2408 126.475 37.2408C128.506 37.2408 130.058 36.4794 131.283 35.0461V29.8057Z" fill="#DA291C"/>
<path d="M160.375 39.1965C158.688 40.1221 155.971 40.8684 151.895 40.8684C144.146 40.8684 139.22 36.5839 139.22 29.8656C139.22 23.0875 144.773 18.9221 152.044 18.9221C156.149 18.9221 158.598 19.7585 159.867 20.5199V24.9985C158.105 23.8641 155.687 22.9831 151.955 22.9831C146.908 22.9831 143.579 25.2376 143.594 29.7759C143.594 34.3147 147.147 36.7927 152.074 36.7927C155.627 36.7927 158.404 35.8822 160.375 34.7474V39.1965Z" fill="#B21815"/>
<path d="M163.086 32.7767C163.086 27.8351 166.893 24.6849 172.266 24.6849C177.626 24.6849 181.448 27.8351 181.448 32.7767C181.448 37.7187 177.611 40.8685 172.266 40.8685C166.893 40.8685 163.086 37.7187 163.086 32.7767ZM177.313 32.7321C177.313 29.8505 175.476 28.2981 172.312 28.2981C169.162 28.2981 167.311 29.8505 167.311 32.7321C167.311 35.6133 169.162 37.2557 172.312 37.2557C175.462 37.2557 177.313 35.6133 177.313 32.7321Z" fill="#B21815"/>
<path d="M190.998 37.4944C193.237 37.4944 194.327 37.1959 194.327 36.3149C194.327 35.6432 193.909 35.33 190.43 34.7028C185.832 33.8816 184.16 32.3739 184.16 29.6417C184.16 26.4915 186.803 24.7001 191.177 24.7001C194.312 24.7001 196.387 25.3567 197.492 26.0285V29.6863C195.835 28.7758 193.804 28.1487 191.252 28.1487C189.206 28.1487 188.191 28.5519 188.191 29.2683C188.191 29.9851 188.893 30.1939 192.327 30.8211C196.746 31.6272 198.313 33.0456 198.313 35.7778C198.313 39.1368 195.641 40.8685 190.968 40.8685C187.878 40.8685 185.713 40.2118 184.19 39.3607V35.6583C185.907 36.8078 188.251 37.4944 190.998 37.4944Z" fill="#B21815"/>
<path d="M200.877 24.9686H203.49V21.5945L207.685 21.296V24.9686H212.597V28.5367H207.685V35.4044C207.685 36.4794 208.297 36.9871 209.879 36.9871C211.268 36.9871 212.343 36.6882 213 36.4344V39.9727C212.253 40.3607 210.582 40.7194 209.043 40.7194C205.177 40.7194 203.49 39.3459 203.49 35.7028V28.5367H200.877V24.9686Z" fill="#B21815"/>
<defs>
<linearGradient id="paint0_linear_54_1645" x1="29.0429" y1="-4.74777" x2="39.7763" y2="55.423" gradientUnits="userSpaceOnUse">
<stop offset="0.623967" stop-color="#560A0A"/>
<stop offset="0.753989" stop-color="#DA291C"/>
<stop offset="0.803519" stop-color="#D6281B"/>
<stop offset="0.852375" stop-color="#CA2519"/>
<stop offset="0.900977" stop-color="#B61F16"/>
<stop offset="0.949432" stop-color="#9B1712"/>
<stop offset="0.997378" stop-color="#770E0C"/>
<stop offset="1" stop-color="#750D0C"/>
</linearGradient>
<linearGradient id="paint1_linear_54_1645" x1="20.1763" y1="5.24709" x2="56.5712" y2="5.24709" gradientUnits="userSpaceOnUse">
<stop stop-color="#6D0B0B"/>
<stop offset="0.515266" stop-color="#DA291C"/>
</linearGradient>
<linearGradient id="paint2_linear_54_1645" x1="-0.513617" y1="31.1171" x2="21.8325" y2="46.243" gradientUnits="userSpaceOnUse">
<stop stop-color="#DA291C"/>
<stop offset="0.193899" stop-color="#D6281B"/>
<stop offset="0.385176" stop-color="#CA251A"/>
<stop offset="0.575423" stop-color="#B61F16"/>
<stop offset="0.765154" stop-color="#9B1812"/>
<stop offset="0.952806" stop-color="#770E0D"/>
<stop offset="0.999999" stop-color="#6D0B0B"/>
</linearGradient>
<linearGradient id="paint3_linear_54_1645" x1="15.6914" y1="1.23403" x2="17.8592" y2="28.1941" gradientUnits="userSpaceOnUse">
<stop offset="0.0923252" stop-color="#DA291C"/>
<stop offset="0.668435" stop-color="#9C0114"/>
</linearGradient>
<linearGradient id="paint4_linear_54_1645" x1="38.5108" y1="14.8784" x2="67.387" y2="29.8572" gradientUnits="userSpaceOnUse">
<stop stop-color="#730D0C"/>
<stop offset="0.440553" stop-color="#BF0C1D"/>
<stop offset="0.999999" stop-color="#DA291C"/>
</linearGradient>
<linearGradient id="paint5_linear_54_1645" x1="38.992" y1="47.6848" x2="-5.03215" y2="65.8684" gradientUnits="userSpaceOnUse">
<stop offset="0.215013" stop-color="#DA291C"/>
<stop offset="0.539482" stop-color="#82030D"/>
</linearGradient>
<linearGradient id="paint6_linear_54_1645" x1="37.776" y1="16.3349" x2="22.1164" y2="31.9945" gradientUnits="userSpaceOnUse">
<stop stop-color="#75030B"/>
<stop offset="0.333333" stop-color="#930210"/>
<stop offset="0.666667" stop-color="#B4001E"/>
<stop offset="1" stop-color="#DA291C"/>
</linearGradient>
<linearGradient id="paint7_linear_54_1645" x1="34.1447" y1="35.6258" x2="45.6059" y2="24.1646" gradientUnits="userSpaceOnUse">
<stop stop-color="#75030B"/>
<stop offset="0.333333" stop-color="#930210"/>
<stop offset="0.666667" stop-color="#B4001E"/>
<stop offset="1" stop-color="#DA291C"/>
</linearGradient>
</defs>
</svg>
