<svg width="24" height="22" viewBox="0 0 24 22" fill="none" xmlns="http://www.w3.org/2000/svg">
<g clip-path="url(#clip0_2525_1650)">
<path d="M22.7019 0.0461426L13.4101 6.87723L15.1284 2.84698L22.7019 0.0461426Z" fill="#E2761B" stroke="#E2761B" stroke-linecap="round" stroke-linejoin="round"/>
<path d="M1.25134 0.0461426L10.4685 6.94194L8.83422 2.84698L1.25134 0.0461426Z" fill="#E4761B" stroke="#E4761B" stroke-linecap="round" stroke-linejoin="round"/>
<path d="M19.3587 15.8806L16.884 19.6336L22.179 21.0756L23.7012 15.9638L19.3587 15.8806Z" fill="#E4761B" stroke="#E4761B" stroke-linecap="round" stroke-linejoin="round"/>
<path d="M0.270813 15.9638L1.78365 21.0756L7.0786 19.6336L4.60389 15.8806L0.270813 15.9638Z" fill="#E4761B" stroke="#E4761B" stroke-linecap="round" stroke-linejoin="round"/>
<path d="M6.77975 9.53931L5.30426 11.7486L10.5618 11.9796L10.3751 6.38721L6.77975 9.53931Z" fill="#E4761B" stroke="#E4761B" stroke-linecap="round" stroke-linejoin="round"/>
<path d="M17.1735 9.53932L13.5315 6.32251L13.4101 11.9797L18.6583 11.7486L17.1735 9.53932Z" fill="#E4761B" stroke="#E4761B" stroke-linecap="round" stroke-linejoin="round"/>
<path d="M7.07861 19.6335L10.235 18.1083L7.50819 16.0007L7.07861 19.6335Z" fill="#E4761B" stroke="#E4761B" stroke-linecap="round" stroke-linejoin="round"/>
<path d="M13.7183 18.1083L16.884 19.6335L16.4451 16.0007L13.7183 18.1083Z" fill="#E4761B" stroke="#E4761B" stroke-linecap="round" stroke-linejoin="round"/>
<path d="M16.8841 19.6336L13.7183 18.1084L13.9705 20.1513L13.9424 21.0109L16.8841 19.6336Z" fill="#D7C1B3" stroke="#D7C1B3" stroke-linecap="round" stroke-linejoin="round"/>
<path d="M7.07861 19.6336L10.0202 21.0109L10.0016 20.1513L10.235 18.1084L7.07861 19.6336Z" fill="#D7C1B3" stroke="#D7C1B3" stroke-linecap="round" stroke-linejoin="round"/>
<path d="M10.0669 14.6514L7.43347 13.8841L9.29184 13.043L10.0669 14.6514Z" fill="#233447" stroke="#233447" stroke-linecap="round" stroke-linejoin="round"/>
<path d="M13.8864 14.6514L14.6615 13.043L16.5292 13.8841L13.8864 14.6514Z" fill="#233447" stroke="#233447" stroke-linecap="round" stroke-linejoin="round"/>
<path d="M7.07859 19.6336L7.52684 15.8806L4.60388 15.9638L7.07859 19.6336Z" fill="#CD6116" stroke="#CD6116" stroke-linecap="round" stroke-linejoin="round"/>
<path d="M16.4358 15.8806L16.884 19.6336L19.3587 15.9638L16.4358 15.8806Z" fill="#CD6116" stroke="#CD6116" stroke-linecap="round" stroke-linejoin="round"/>
<path d="M18.6583 11.7488L13.4101 11.9799L13.8957 14.6513L14.6708 13.0429L16.5385 13.8841L18.6583 11.7488Z" fill="#CD6116" stroke="#CD6116" stroke-linecap="round" stroke-linejoin="round"/>
<path d="M7.43344 13.8841L9.30115 13.0429L10.0669 14.6513L10.5618 11.9799L5.30426 11.7488L7.43344 13.8841Z" fill="#CD6116" stroke="#CD6116" stroke-linecap="round" stroke-linejoin="round"/>
<path d="M5.30426 11.7488L7.50815 16.0009L7.43344 13.8841L5.30426 11.7488Z" fill="#E4751F" stroke="#E4751F" stroke-linecap="round" stroke-linejoin="round"/>
<path d="M16.5385 13.8841L16.4451 16.0009L18.6584 11.7488L16.5385 13.8841Z" fill="#E4751F" stroke="#E4751F" stroke-linecap="round" stroke-linejoin="round"/>
<path d="M10.5618 11.98L10.0669 14.6514L10.6832 17.8035L10.8233 13.6531L10.5618 11.98Z" fill="#E4751F" stroke="#E4751F" stroke-linecap="round" stroke-linejoin="round"/>
<path d="M13.4101 11.98L13.158 13.6438L13.27 17.8035L13.8957 14.6514L13.4101 11.98Z" fill="#E4751F" stroke="#E4751F" stroke-linecap="round" stroke-linejoin="round"/>
<path d="M13.8957 14.6513L13.27 17.8034L13.7183 18.1084L16.4451 16.0008L16.5385 13.884L13.8957 14.6513Z" fill="#F6851B" stroke="#F6851B" stroke-linecap="round" stroke-linejoin="round"/>
<path d="M7.43347 13.884L7.50818 16.0008L10.235 18.1084L10.6833 17.8034L10.0669 14.6513L7.43347 13.884Z" fill="#F6851B" stroke="#F6851B" stroke-linecap="round" stroke-linejoin="round"/>
<path d="M13.9424 21.0109L13.9704 20.1512L13.737 19.9478H10.2164L10.0016 20.1512L10.0202 21.0109L7.07861 19.6335L8.10585 20.4655L10.1883 21.8983H13.765L15.8568 20.4655L16.8841 19.6335L13.9424 21.0109Z" fill="#C0AD9E" stroke="#C0AD9E" stroke-linecap="round" stroke-linejoin="round"/>
<path d="M13.7183 18.1085L13.2701 17.8035H10.6833L10.235 18.1085L10.0016 20.1514L10.2164 19.948H13.737L13.9705 20.1514L13.7183 18.1085Z" fill="#161616" stroke="#161616" stroke-linecap="round" stroke-linejoin="round"/>
<path d="M23.0941 7.32093L23.8879 3.5495L22.7019 0.0461426L13.7183 6.64614L17.1735 9.53942L22.0576 10.9537L23.1408 9.70581L22.6739 9.37303L23.421 8.69824L22.842 8.25455L23.5891 7.69068L23.0941 7.32093Z" fill="#763D16" stroke="#763D16" stroke-linecap="round" stroke-linejoin="round"/>
<path d="M0.074707 3.5495L0.868481 7.32093L0.364201 7.69068L1.11128 8.25455L0.541633 8.69824L1.28871 9.37303L0.821789 9.70581L1.89572 10.9537L6.77977 9.53942L10.235 6.64614L1.25136 0.0461426L0.074707 3.5495Z" fill="#763D16" stroke="#763D16" stroke-linecap="round" stroke-linejoin="round"/>
<path d="M22.0576 10.9538L17.1735 9.53955L18.6584 11.7488L16.4451 16.0009L19.3587 15.9639H23.7012L22.0576 10.9538Z" fill="#F6851B" stroke="#F6851B" stroke-linecap="round" stroke-linejoin="round"/>
<path d="M6.77976 9.53955L1.89572 10.9538L0.270813 15.9639H4.60389L7.50817 16.0009L5.30428 11.7488L6.77976 9.53955Z" fill="#F6851B" stroke="#F6851B" stroke-linecap="round" stroke-linejoin="round"/>
<path d="M13.4101 11.9799L13.7183 6.64633L15.1377 2.84717H8.83423L10.235 6.64633L10.5619 11.9799L10.6739 13.6623L10.6833 17.8035H13.27L13.2887 13.6623L13.4101 11.9799Z" fill="#F6851B" stroke="#F6851B" stroke-linecap="round" stroke-linejoin="round"/>
</g>
<defs>
<clipPath id="clip0_2525_1650">
<rect width="24" height="22" fill="white"/>
</clipPath>
</defs>
</svg>
