<svg width="136" height="39" viewBox="0 0 136 39" fill="none" xmlns="http://www.w3.org/2000/svg">
<path d="M37.2564 21.1753L36.0528 23.2594L35.7819 23.7284L34.8492 25.3436L29.8473 34.0083H31.6501C33.4894 34.0083 35.2035 33.0288 36.1362 31.4449L39.6636 25.3436L40.8672 23.2594L41.8102 21.6286C41.8311 21.5921 41.8519 21.5505 41.878 21.5088C41.9301 21.3993 41.9822 21.2847 42.0343 21.1753H37.2564ZM3.09751 17.5281L4.0041 19.0912L3.00894 17.3613C3.03499 17.4187 3.06625 17.476 3.09751 17.5281Z" fill="url(#paint0_linear_312_1882)"/>
<path d="M36.1206 6.70051C35.188 5.13219 33.4842 4.16826 31.6553 4.16826H15.2845L12.8825 0.0104308C12.9919 0.0052154 13.1066 0 13.2212 0H29.2482C31.0874 0 32.8016 0.979544 33.7342 2.5635L36.1206 6.70051Z" fill="url(#paint1_linear_312_1882)"/>
<path d="M11.382 31.8665L8.9904 36.0035C8.8914 35.8681 8.79762 35.7222 8.70905 35.5711L7.80246 34.008L3.10274 25.8642V25.859L1.59694 23.2591L0.695566 21.696C-0.231855 20.086 -0.231855 18.0904 0.695566 16.4856L1.60216 14.9121L3.08191 12.3486C2.20136 13.8909 2.17531 15.7927 3.00895 17.361C3.035 17.4183 3.06626 17.4756 3.09752 17.5277L4.00411 19.0908L11.111 31.4028C11.1527 31.481 11.1996 31.5539 11.2465 31.6268L11.382 31.8665Z" fill="url(#paint2_linear_312_1882)"/>
<path d="M19.6716 11.7652H17.0091L15.9358 13.6305L13.9506 10.1969L12.8773 8.33683L11.5852 6.0964L11.5435 6.02866L11.1162 6.77374L10.2148 8.33683H10.2096L6.68744 14.4381L6.40609 14.9227V14.9279L4.00411 19.091L3.00895 17.3611C2.17531 15.7928 2.20135 13.8911 3.0819 12.3488C3.08712 12.3384 3.0923 12.328 3.09752 12.3175L4.08228 10.6137H4.08749L6.30188 6.77374L6.3071 6.76334L8.70905 2.60548C8.84974 2.36582 9.00604 2.13656 9.17799 1.92814C10.0846 0.807938 11.4288 0.104524 12.8825 0.0107422L13.9506 1.85519L15.2845 4.16857L15.2897 4.179L17.6917 8.33683L19.6716 11.7652Z" fill="url(#paint3_linear_312_1882)"/>
<path d="M42.0343 21.1745H28.4822L29.6858 19.0904L28.4822 17.0062H37.2564L32.5463 8.84165L32.2545 8.33623L30.1391 4.67339L29.8473 4.16797H31.6553C33.4841 4.16797 35.1879 5.1319 36.1206 6.70021C36.131 6.71061 36.1362 6.72104 36.1414 6.73147L41.8051 16.5477C41.8884 16.6988 41.9666 16.8499 42.0343 17.0062C42.6179 18.3297 42.6126 19.8459 42.0343 21.1745Z" fill="url(#paint4_linear_312_1882)"/>
<path d="M39.4031 25.7965L33.7343 35.6128C32.8016 37.1967 31.0874 38.1762 29.2482 38.1762H13.2212C13.0024 38.1762 12.7836 38.1606 12.5699 38.1345C11.1371 37.9522 9.83449 37.1811 8.99042 36.0035L11.382 31.8665L15.7691 24.2646L17.0091 26.4113H19.3433L14.9562 34.008H31.6501C33.4894 34.008 35.2036 33.0284 36.1362 31.4445L39.4031 25.7965Z" fill="url(#paint5_linear_312_1882)"/>
<path d="M25.4602 11.7699L22.5685 16.777L22.433 17.0062L21.2346 19.0852V19.0904H12.7835L15.9358 13.63L17.0091 11.7646H19.6715L25.4602 11.7699Z" fill="url(#paint6_linear_312_1882)"/>
<path d="M29.6858 19.091L28.4823 21.1751L25.4603 26.4063L22.4383 21.1751L22.4018 21.1126V21.1074L21.2347 19.091V19.0858L22.4331 17.0069L22.5685 16.7776L25.4603 11.7705L28.4823 17.0069L29.6858 19.091Z" fill="url(#paint7_linear_312_1882)"/>
<path d="M25.4602 26.4061L19.3433 26.4113H17.0091L15.769 24.2647L12.7835 19.0908H21.2346L22.4018 21.1072V21.1124L22.4382 21.175L25.4602 26.4061Z" fill="#DA291C"/>
<path d="M48.7224 25.9224V12.2529H56.3296C59.8659 12.2529 61.4865 13.7303 61.4865 16.3805C61.4865 18.43 60.3617 19.8789 58.4742 20.4699L62.5827 25.9224H59.294L55.4905 20.7462H51.4774V25.9224H48.7224ZM56.2342 18.2774C57.9499 18.2774 58.6935 17.6006 58.6935 16.4947C58.6935 15.389 57.9308 14.779 56.3105 14.779H51.4774V18.2774H56.2342Z" fill="#DA291C"/>
<path d="M73.0456 25.1503C72.4068 25.541 71.0343 26.0939 68.8321 26.0939C65.267 26.0939 63.1033 24.0349 63.1033 20.9179C63.1033 17.8484 65.3052 15.7607 68.4319 15.7607C71.6253 15.7607 73.4077 17.4289 73.4077 20.3936C73.4077 20.7177 73.3982 21.1466 73.2838 21.6519H65.8199C66.1346 23.2246 67.2308 23.7871 69.1944 23.7871C71.0628 23.7871 72.2638 23.3295 73.0456 22.9102V25.1503ZM70.7483 19.8501C70.7483 18.5633 69.7663 17.8103 68.3365 17.8103C67.0019 17.8103 66.0201 18.43 65.7817 19.8501H70.7483Z" fill="#DA291C"/>
<path d="M84.7961 25.9228L84.1478 24.4739C83.1564 25.5032 81.9266 26.0848 79.963 26.0848C77.1699 26.0848 75.1397 24.207 75.1397 21.1757C75.1397 17.6201 77.5418 15.7611 80.7543 15.7611C81.9935 15.7611 82.9753 16.0089 83.8237 16.4475V12.2627H86.4928V25.9228H84.7961ZM83.8237 19.0308C83.1658 18.4589 82.2795 18.0299 81.0211 18.0299C79.2482 18.0299 77.8372 18.783 77.8372 20.9658C77.8372 22.7009 78.8953 23.7781 80.7543 23.7781C82.0505 23.7781 83.0419 23.2919 83.8237 22.3768V19.0308Z" fill="#DA291C"/>
<path d="M102.399 25.0252C101.322 25.6162 99.5868 26.0928 96.9844 26.0928C92.0369 26.0928 88.8914 23.3571 88.8914 19.0675C88.8914 14.7397 92.4373 12.0801 97.0796 12.0801C99.701 12.0801 101.264 12.6141 102.075 13.1003V15.9598C100.95 15.2355 99.4056 14.673 97.0226 14.673C93.8005 14.673 91.6749 16.1125 91.6843 19.0102C91.6843 21.9082 93.9531 23.4904 97.0986 23.4904C99.3675 23.4904 101.14 22.9091 102.399 22.1845V25.0252Z" fill="#B21815"/>
<path d="M104.13 20.9263C104.13 17.7711 106.56 15.7598 109.992 15.7598C113.414 15.7598 115.854 17.7711 115.854 20.9263C115.854 24.0818 113.404 26.0929 109.992 26.0929C106.56 26.0929 104.13 24.0818 104.13 20.9263ZM113.214 20.8978C113.214 19.0579 112.041 18.0668 110.021 18.0668C108.01 18.0668 106.828 19.0579 106.828 20.8978C106.828 22.7375 108.01 23.7862 110.021 23.7862C112.032 23.7862 113.214 22.7375 113.214 20.8978Z" fill="#B21815"/>
<path d="M121.952 23.9387C123.381 23.9387 124.077 23.7481 124.077 23.1856C124.077 22.7567 123.81 22.5567 121.589 22.1563C118.653 21.6319 117.586 20.6692 117.586 18.9247C117.586 16.9134 119.273 15.7695 122.066 15.7695C124.068 15.7695 125.393 16.1888 126.098 16.6177V18.9532C125.04 18.3719 123.744 17.9715 122.114 17.9715C120.808 17.9715 120.159 18.2289 120.159 18.6863C120.159 19.144 120.608 19.2773 122.8 19.6778C125.622 20.1925 126.622 21.0982 126.622 22.8427C126.622 24.9873 124.916 26.093 121.933 26.093C119.959 26.093 118.577 25.6737 117.605 25.1303V22.7663C118.701 23.5003 120.198 23.9387 121.952 23.9387Z" fill="#B21815"/>
<path d="M128.259 15.9406H129.928V13.7863L132.606 13.5957V15.9406H135.743V18.2189H132.606V22.6039C132.606 23.2903 132.997 23.6144 134.007 23.6144C134.894 23.6144 135.58 23.4236 136 23.2615V25.5207C135.523 25.7685 134.456 25.9975 133.474 25.9975C131.005 25.9975 129.928 25.1205 129.928 22.7944V18.2189H128.259V15.9406Z" fill="#B21815"/>
<defs>
<linearGradient id="paint0_linear_312_1882" x1="18.5438" y1="-3.03098" x2="25.3971" y2="35.3879" gradientUnits="userSpaceOnUse">
<stop offset="0.623967" stop-color="#560A0A"/>
<stop offset="0.753989" stop-color="#DA291C"/>
<stop offset="0.803519" stop-color="#D6281B"/>
<stop offset="0.852375" stop-color="#CA2519"/>
<stop offset="0.900977" stop-color="#B61F16"/>
<stop offset="0.949432" stop-color="#9B1712"/>
<stop offset="0.997378" stop-color="#770E0C"/>
<stop offset="1" stop-color="#750D0C"/>
</linearGradient>
<linearGradient id="paint1_linear_312_1882" x1="12.8825" y1="3.35025" x2="36.1206" y2="3.35025" gradientUnits="userSpaceOnUse">
<stop stop-color="#6D0B0B"/>
<stop offset="0.515266" stop-color="#DA291C"/>
</linearGradient>
<linearGradient id="paint2_linear_312_1882" x1="-0.327943" y1="19.8683" x2="13.94" y2="29.5261" gradientUnits="userSpaceOnUse">
<stop stop-color="#DA291C"/>
<stop offset="0.193899" stop-color="#D6281B"/>
<stop offset="0.385176" stop-color="#CA251A"/>
<stop offset="0.575423" stop-color="#B61F16"/>
<stop offset="0.765154" stop-color="#9B1812"/>
<stop offset="0.952806" stop-color="#770E0D"/>
<stop offset="0.999999" stop-color="#6D0B0B"/>
</linearGradient>
<linearGradient id="paint3_linear_312_1882" x1="10.0189" y1="0.788221" x2="11.403" y2="18.0022" gradientUnits="userSpaceOnUse">
<stop offset="0.0923252" stop-color="#DA291C"/>
<stop offset="0.668435" stop-color="#9C0114"/>
</linearGradient>
<linearGradient id="paint4_linear_312_1882" x1="24.5891" y1="9.49952" x2="43.0265" y2="19.0635" gradientUnits="userSpaceOnUse">
<stop stop-color="#730D0C"/>
<stop offset="0.440553" stop-color="#BF0C1D"/>
<stop offset="0.999999" stop-color="#DA291C"/>
</linearGradient>
<linearGradient id="paint5_linear_312_1882" x1="24.8963" y1="30.4468" x2="-3.213" y2="42.0569" gradientUnits="userSpaceOnUse">
<stop offset="0.215013" stop-color="#DA291C"/>
<stop offset="0.539482" stop-color="#82030D"/>
</linearGradient>
<linearGradient id="paint6_linear_312_1882" x1="24.1199" y1="10.4295" x2="14.1213" y2="20.4281" gradientUnits="userSpaceOnUse">
<stop stop-color="#75030B"/>
<stop offset="0.333333" stop-color="#930210"/>
<stop offset="0.666667" stop-color="#B4001E"/>
<stop offset="1" stop-color="#DA291C"/>
</linearGradient>
<linearGradient id="paint7_linear_312_1882" x1="21.8013" y1="22.7474" x2="29.1192" y2="15.4295" gradientUnits="userSpaceOnUse">
<stop stop-color="#75030B"/>
<stop offset="0.333333" stop-color="#930210"/>
<stop offset="0.666667" stop-color="#B4001E"/>
<stop offset="1" stop-color="#DA291C"/>
</linearGradient>
</defs>
</svg>
