<svg width="77" height="274" viewBox="0 0 77 274" fill="none" xmlns="http://www.w3.org/2000/svg">
<path d="M137.752 363.575L108.808 413.632C107.61 411.993 106.475 410.227 105.403 408.399L94.4305 389.486L37.5513 290.949V290.886L19.3272 259.427L8.4182 240.514C-2.80607 221.034 -2.80607 196.888 8.4182 177.47L19.3903 158.431L37.2992 127.414C26.6423 146.075 26.327 169.085 36.4163 188.062C36.7315 188.755 37.1098 189.449 37.4882 190.079L48.4604 208.992L134.473 357.964C134.977 358.91 135.544 359.792 136.112 360.675L137.752 363.575Z" fill="url(#paint0_linear_213_377)"/>
<path d="M238.078 120.353H205.855L192.865 142.923L168.84 101.377L155.85 78.8698L140.211 51.7611L139.707 50.9416L134.536 59.9567L123.627 78.8698H123.564L80.9358 152.694L77.5307 158.557V158.62L48.4603 208.992L36.4163 188.061C26.327 169.085 26.6422 146.075 37.2992 127.414C37.3623 127.288 37.425 127.161 37.4881 127.035L49.4064 106.42H49.4694L76.2694 59.9567L76.3326 59.831L105.403 9.52188C107.105 6.62214 108.997 3.84826 111.078 1.3263C122.05 -12.2279 138.319 -20.7391 155.913 -21.8738L168.84 0.443501L184.983 28.435L185.046 28.5612L214.116 78.8698L238.078 120.353Z" fill="url(#paint1_linear_213_377)"/>
<defs>
<linearGradient id="paint0_linear_213_377" x1="-3.96905" y1="218.399" x2="168.685" y2="335.295" gradientUnits="userSpaceOnUse">
<stop stop-color="#DA291C"/>
<stop offset="0.193899" stop-color="#D6281B"/>
<stop offset="0.385176" stop-color="#CA251A"/>
<stop offset="0.575423" stop-color="#B61F16"/>
<stop offset="0.765154" stop-color="#9B1812"/>
<stop offset="0.952806" stop-color="#770E0D"/>
<stop offset="0.999999" stop-color="#6D0B0B"/>
</linearGradient>
<linearGradient id="paint1_linear_213_377" x1="121.255" y1="-12.4665" x2="137.999" y2="195.818" gradientUnits="userSpaceOnUse">
<stop offset="0.0923252" stop-color="#DA291C"/>
<stop offset="0.668435" stop-color="#9C0114"/>
</linearGradient>
</defs>
</svg>
