<svg width="29" height="26" viewBox="0 0 29 26" fill="none" xmlns="http://www.w3.org/2000/svg">
<g clip-path="url(#clip0_222_2719)">
<path d="M22.6931 13.7427C19.2098 13.7427 16.3861 16.4773 16.3861 19.8507C16.3861 23.2241 19.2098 25.9587 22.6931 25.9587C26.1764 25.9587 29 23.224 29 19.8507C29 16.4773 26.1764 13.7427 22.6931 13.7427ZM6.30693 13.7432C2.82376 13.7432 0 16.4773 0 19.8507C0 23.2241 2.82376 25.9587 6.30693 25.9587C9.79033 25.9587 12.6142 23.224 12.6142 19.8507C12.6142 16.4773 9.79033 13.7432 6.30693 13.7432ZM20.8069 6.10781C20.8069 9.48122 17.9832 12.2162 14.5001 12.2162C11.0167 12.2162 8.19307 9.48122 8.19307 6.10781C8.19307 2.73472 11.0166 0 14.5 0C17.9831 0 20.8067 2.73494 20.8067 6.1077" fill="url(#paint0_linear_222_2719)"/>
</g>
<defs>
<linearGradient id="paint0_linear_222_2719" x1="1.94443" y1="19.4691" x2="12.533" y2="-1.0167" gradientUnits="userSpaceOnUse">
<stop stop-color="#75030B"/>
<stop offset="0.333333" stop-color="#930210"/>
<stop offset="0.666667" stop-color="#B4001E"/>
<stop offset="1" stop-color="#DA291C"/>
</linearGradient>
<clipPath id="clip0_222_2719">
<rect width="29" height="26" fill="white"/>
</clipPath>
</defs>
</svg>
