<svg width="23" height="18" viewBox="0 0 23 18" fill="none" xmlns="http://www.w3.org/2000/svg">
<g clip-path="url(#clip0_704_13394)">
<path fill-rule="evenodd" clip-rule="evenodd" d="M11.25 0C8.11462 0 5.32912 1.41413 3.34575 3.16463C2.35125 4.04325 1.53 5.02875 0.95175 6.012C0.3825 6.97612 0 8.02125 0 9C0 9.97875 0.3825 11.0239 0.95175 11.988C1.53 12.9701 2.35013 13.9567 3.34575 14.8354C5.32912 16.5859 8.11575 18 11.25 18C14.3854 18 17.1709 16.5859 19.1542 14.8354C20.1499 13.9567 20.97 12.9701 21.5482 11.988C22.1175 11.0239 22.5 9.97875 22.5 9C22.5 8.02125 22.1175 6.97612 21.5482 6.012C20.97 5.02987 20.1499 4.04325 19.1542 3.16463C17.1709 1.41413 14.3842 0 11.25 0ZM13.5 9C13.905 9 14.2841 8.89313 14.6126 8.70638C14.6726 9.39622 14.5189 10.0878 14.1724 10.6873C13.8259 11.2869 13.3034 11.7653 12.6757 12.0578C12.0481 12.3502 11.3457 12.4426 10.6638 12.3222C9.98184 12.2019 9.35345 11.8747 8.86381 11.3851C8.37418 10.8954 8.047 10.267 7.92666 9.58512C7.80632 8.90321 7.89864 8.20078 8.1911 7.57313C8.48356 6.94547 8.962 6.42296 9.56153 6.07647C10.1611 5.72999 10.8527 5.5763 11.5425 5.63625C11.3474 5.97865 11.2457 6.36628 11.2475 6.76035C11.2493 7.15442 11.3546 7.54109 11.5528 7.88169C11.751 8.22228 12.0352 8.50485 12.3769 8.70111C12.7187 8.89737 13.1059 9.00044 13.5 9Z" fill="#949494"/>
</g>
<defs>
<clipPath id="clip0_704_13394">
<rect width="22.5" height="18" fill="white"/>
</clipPath>
</defs>
</svg>
